G04 #@! TF.FileFunction,Legend,Top*
%FSLAX46Y46*%
G04 Gerber Fmt 4.6, Leading zero omitted, Abs format (unit mm)*
G04 Created by KiCad (PCBNEW 4.0.7) date 08/13/18 10:29:34*
%MOMM*%
%LPD*%
G01*
G04 APERTURE LIST*
%ADD10C,0.100000*%
%ADD11C,0.300000*%
%ADD12C,0.250000*%
%ADD13C,0.200000*%
%ADD14C,0.190500*%
%ADD15C,0.150000*%
%ADD16C,0.120000*%
%ADD17C,0.152400*%
%ADD18C,0.010000*%
G04 APERTURE END LIST*
D10*
D11*
X137383429Y-223996286D02*
X137601286Y-224186762D01*
X137673905Y-224377238D01*
X137746524Y-224758190D01*
X137746524Y-225329619D01*
X137673905Y-225710571D01*
X137601286Y-225901048D01*
X137456048Y-226091524D01*
X136875095Y-226091524D01*
X136875095Y-222091524D01*
X137383429Y-222091524D01*
X137528667Y-222282000D01*
X137601286Y-222472476D01*
X137673905Y-222853429D01*
X137673905Y-223234381D01*
X137601286Y-223615333D01*
X137528667Y-223805810D01*
X137383429Y-223996286D01*
X136875095Y-223996286D01*
X138981048Y-225901048D02*
X138835810Y-226091524D01*
X138545333Y-226091524D01*
X138400095Y-225901048D01*
X138327476Y-225520095D01*
X138327476Y-223996286D01*
X138400095Y-223615333D01*
X138545333Y-223424857D01*
X138835810Y-223424857D01*
X138981048Y-223615333D01*
X139053667Y-223996286D01*
X139053667Y-224377238D01*
X138327476Y-224758190D01*
X140360810Y-225901048D02*
X140215572Y-226091524D01*
X139925095Y-226091524D01*
X139779857Y-225901048D01*
X139707238Y-225710571D01*
X139634619Y-225329619D01*
X139634619Y-224186762D01*
X139707238Y-223805810D01*
X139779857Y-223615333D01*
X139925095Y-223424857D01*
X140215572Y-223424857D01*
X140360810Y-223615333D01*
X141232238Y-226091524D02*
X141087000Y-225901048D01*
X141014381Y-225710571D01*
X140941762Y-225329619D01*
X140941762Y-224186762D01*
X141014381Y-223805810D01*
X141087000Y-223615333D01*
X141232238Y-223424857D01*
X141450096Y-223424857D01*
X141595334Y-223615333D01*
X141667953Y-223805810D01*
X141740572Y-224186762D01*
X141740572Y-225329619D01*
X141667953Y-225710571D01*
X141595334Y-225901048D01*
X141450096Y-226091524D01*
X141232238Y-226091524D01*
X142394143Y-226091524D02*
X142394143Y-223424857D01*
X142394143Y-223805810D02*
X142466762Y-223615333D01*
X142612000Y-223424857D01*
X142829858Y-223424857D01*
X142975096Y-223615333D01*
X143047715Y-223996286D01*
X143047715Y-226091524D01*
X143047715Y-223996286D02*
X143120334Y-223615333D01*
X143265572Y-223424857D01*
X143483429Y-223424857D01*
X143628667Y-223615333D01*
X143701286Y-223996286D01*
X143701286Y-226091524D01*
X145008429Y-225901048D02*
X144863191Y-226091524D01*
X144572714Y-226091524D01*
X144427476Y-225901048D01*
X144354857Y-225520095D01*
X144354857Y-223996286D01*
X144427476Y-223615333D01*
X144572714Y-223424857D01*
X144863191Y-223424857D01*
X145008429Y-223615333D01*
X145081048Y-223996286D01*
X145081048Y-224377238D01*
X144354857Y-224758190D01*
X147550096Y-226091524D02*
X147550096Y-223996286D01*
X147477477Y-223615333D01*
X147332239Y-223424857D01*
X147041762Y-223424857D01*
X146896524Y-223615333D01*
X147550096Y-225901048D02*
X147404858Y-226091524D01*
X147041762Y-226091524D01*
X146896524Y-225901048D01*
X146823905Y-225520095D01*
X146823905Y-225139143D01*
X146896524Y-224758190D01*
X147041762Y-224567714D01*
X147404858Y-224567714D01*
X147550096Y-224377238D01*
X149438191Y-226091524D02*
X149438191Y-222091524D01*
X149946525Y-224948667D01*
X150454858Y-222091524D01*
X150454858Y-226091524D01*
X151834620Y-226091524D02*
X151834620Y-223996286D01*
X151762001Y-223615333D01*
X151616763Y-223424857D01*
X151326286Y-223424857D01*
X151181048Y-223615333D01*
X151834620Y-225901048D02*
X151689382Y-226091524D01*
X151326286Y-226091524D01*
X151181048Y-225901048D01*
X151108429Y-225520095D01*
X151108429Y-225139143D01*
X151181048Y-224758190D01*
X151326286Y-224567714D01*
X151689382Y-224567714D01*
X151834620Y-224377238D01*
X152560810Y-226091524D02*
X152560810Y-223424857D01*
X152560810Y-224186762D02*
X152633429Y-223805810D01*
X152706048Y-223615333D01*
X152851286Y-223424857D01*
X152996525Y-223424857D01*
X153287001Y-223424857D02*
X153867953Y-223424857D01*
X153504858Y-222091524D02*
X153504858Y-225520095D01*
X153577477Y-225901048D01*
X153722715Y-226091524D01*
X153867953Y-226091524D01*
X154376287Y-226091524D02*
X154376287Y-223424857D01*
X154376287Y-222091524D02*
X154303668Y-222282000D01*
X154376287Y-222472476D01*
X154448906Y-222282000D01*
X154376287Y-222091524D01*
X154376287Y-222472476D01*
X155756049Y-226091524D02*
X155756049Y-223996286D01*
X155683430Y-223615333D01*
X155538192Y-223424857D01*
X155247715Y-223424857D01*
X155102477Y-223615333D01*
X155756049Y-225901048D02*
X155610811Y-226091524D01*
X155247715Y-226091524D01*
X155102477Y-225901048D01*
X155029858Y-225520095D01*
X155029858Y-225139143D01*
X155102477Y-224758190D01*
X155247715Y-224567714D01*
X155610811Y-224567714D01*
X155756049Y-224377238D01*
X156482239Y-223424857D02*
X156482239Y-226091524D01*
X156482239Y-223805810D02*
X156554858Y-223615333D01*
X156700096Y-223424857D01*
X156917954Y-223424857D01*
X157063192Y-223615333D01*
X157135811Y-223996286D01*
X157135811Y-226091524D01*
X160258430Y-226091524D02*
X160185811Y-226091524D01*
X160040573Y-225901048D01*
X159822716Y-225329619D01*
X159459621Y-224186762D01*
X159314382Y-223615333D01*
X159241763Y-223043905D01*
X159241763Y-222662952D01*
X159314382Y-222282000D01*
X159459621Y-222091524D01*
X159532240Y-222091524D01*
X159677478Y-222282000D01*
X159750097Y-222662952D01*
X159750097Y-222853429D01*
X159677478Y-223234381D01*
X159604859Y-223424857D01*
X159169144Y-224186762D01*
X159096525Y-224377238D01*
X159023906Y-224758190D01*
X159023906Y-225329619D01*
X159096525Y-225710571D01*
X159169144Y-225901048D01*
X159314382Y-226091524D01*
X159532240Y-226091524D01*
X159677478Y-225901048D01*
X159750097Y-225710571D01*
X159967954Y-224948667D01*
X160040573Y-224377238D01*
X160040573Y-223996286D01*
X162509621Y-222091524D02*
X162509621Y-224948667D01*
X162437001Y-225520095D01*
X162291763Y-225901048D01*
X162073906Y-226091524D01*
X161928668Y-226091524D01*
X163453668Y-226091524D02*
X163308430Y-225901048D01*
X163235811Y-225710571D01*
X163163192Y-225329619D01*
X163163192Y-224186762D01*
X163235811Y-223805810D01*
X163308430Y-223615333D01*
X163453668Y-223424857D01*
X163671526Y-223424857D01*
X163816764Y-223615333D01*
X163889383Y-223805810D01*
X163962002Y-224186762D01*
X163962002Y-225329619D01*
X163889383Y-225710571D01*
X163816764Y-225901048D01*
X163671526Y-226091524D01*
X163453668Y-226091524D01*
X164615573Y-226091524D02*
X164615573Y-223424857D01*
X164615573Y-222091524D02*
X164542954Y-222282000D01*
X164615573Y-222472476D01*
X164688192Y-222282000D01*
X164615573Y-222091524D01*
X164615573Y-222472476D01*
X165341763Y-223424857D02*
X165341763Y-226091524D01*
X165341763Y-223805810D02*
X165414382Y-223615333D01*
X165559620Y-223424857D01*
X165777478Y-223424857D01*
X165922716Y-223615333D01*
X165995335Y-223996286D01*
X165995335Y-226091524D01*
X167665573Y-222091524D02*
X168537002Y-222091524D01*
X168101287Y-226091524D02*
X168101287Y-222091524D01*
X169263192Y-226091524D02*
X169117954Y-225901048D01*
X169045335Y-225710571D01*
X168972716Y-225329619D01*
X168972716Y-224186762D01*
X169045335Y-223805810D01*
X169117954Y-223615333D01*
X169263192Y-223424857D01*
X169481050Y-223424857D01*
X169626288Y-223615333D01*
X169698907Y-223805810D01*
X169771526Y-224186762D01*
X169771526Y-225329619D01*
X169698907Y-225710571D01*
X169626288Y-225901048D01*
X169481050Y-226091524D01*
X169263192Y-226091524D01*
X171078669Y-226091524D02*
X171078669Y-222091524D01*
X171078669Y-225901048D02*
X170933431Y-226091524D01*
X170642954Y-226091524D01*
X170497716Y-225901048D01*
X170425097Y-225710571D01*
X170352478Y-225329619D01*
X170352478Y-224186762D01*
X170425097Y-223805810D01*
X170497716Y-223615333D01*
X170642954Y-223424857D01*
X170933431Y-223424857D01*
X171078669Y-223615333D01*
X172458431Y-226091524D02*
X172458431Y-223996286D01*
X172385812Y-223615333D01*
X172240574Y-223424857D01*
X171950097Y-223424857D01*
X171804859Y-223615333D01*
X172458431Y-225901048D02*
X172313193Y-226091524D01*
X171950097Y-226091524D01*
X171804859Y-225901048D01*
X171732240Y-225520095D01*
X171732240Y-225139143D01*
X171804859Y-224758190D01*
X171950097Y-224567714D01*
X172313193Y-224567714D01*
X172458431Y-224377238D01*
X173039383Y-223424857D02*
X173402478Y-226091524D01*
X173765574Y-223424857D02*
X173402478Y-226091524D01*
X173257240Y-227043905D01*
X173184621Y-227234381D01*
X173039383Y-227424857D01*
X174346526Y-225710571D02*
X174419145Y-225901048D01*
X174346526Y-226091524D01*
X174273907Y-225901048D01*
X174346526Y-225710571D01*
X174346526Y-226091524D01*
X174346526Y-224567714D02*
X174273907Y-222282000D01*
X174346526Y-222091524D01*
X174419145Y-222282000D01*
X174346526Y-224567714D01*
X174346526Y-222091524D01*
X175072716Y-225710571D02*
X175145335Y-225901048D01*
X175072716Y-226091524D01*
X175000097Y-225901048D01*
X175072716Y-225710571D01*
X175072716Y-226091524D01*
X175072716Y-224567714D02*
X175000097Y-222282000D01*
X175072716Y-222091524D01*
X175145335Y-222282000D01*
X175072716Y-224567714D01*
X175072716Y-222091524D01*
X175798906Y-225710571D02*
X175871525Y-225901048D01*
X175798906Y-226091524D01*
X175726287Y-225901048D01*
X175798906Y-225710571D01*
X175798906Y-226091524D01*
X175798906Y-224567714D02*
X175726287Y-222282000D01*
X175798906Y-222091524D01*
X175871525Y-222282000D01*
X175798906Y-224567714D01*
X175798906Y-222091524D01*
D12*
X136638569Y-219924381D02*
X137781426Y-219924381D01*
X137209998Y-220924381D02*
X137209998Y-219924381D01*
X138733808Y-220924381D02*
X138543332Y-220876762D01*
X138448093Y-220829143D01*
X138352855Y-220733905D01*
X138352855Y-220448190D01*
X138448093Y-220352952D01*
X138543332Y-220305333D01*
X138733808Y-220257714D01*
X139019522Y-220257714D01*
X139209998Y-220305333D01*
X139305236Y-220352952D01*
X139400474Y-220448190D01*
X139400474Y-220733905D01*
X139305236Y-220829143D01*
X139209998Y-220876762D01*
X139019522Y-220924381D01*
X138733808Y-220924381D01*
X141114760Y-220924381D02*
X141114760Y-219924381D01*
X141114760Y-220876762D02*
X140924284Y-220924381D01*
X140543332Y-220924381D01*
X140352856Y-220876762D01*
X140257617Y-220829143D01*
X140162379Y-220733905D01*
X140162379Y-220448190D01*
X140257617Y-220352952D01*
X140352856Y-220305333D01*
X140543332Y-220257714D01*
X140924284Y-220257714D01*
X141114760Y-220305333D01*
X142924284Y-220924381D02*
X142924284Y-220400571D01*
X142829046Y-220305333D01*
X142638570Y-220257714D01*
X142257618Y-220257714D01*
X142067141Y-220305333D01*
X142924284Y-220876762D02*
X142733808Y-220924381D01*
X142257618Y-220924381D01*
X142067141Y-220876762D01*
X141971903Y-220781524D01*
X141971903Y-220686286D01*
X142067141Y-220591048D01*
X142257618Y-220543429D01*
X142733808Y-220543429D01*
X142924284Y-220495810D01*
X143686189Y-220257714D02*
X144162380Y-220924381D01*
X144638570Y-220257714D02*
X144162380Y-220924381D01*
X143971904Y-221162476D01*
X143876665Y-221210095D01*
X143686189Y-221257714D01*
X145400475Y-220829143D02*
X145495714Y-220876762D01*
X145400475Y-220924381D01*
X145305237Y-220876762D01*
X145400475Y-220829143D01*
X145400475Y-220924381D01*
X147590952Y-219924381D02*
X148733809Y-219924381D01*
X148162381Y-220924381D02*
X148162381Y-219924381D01*
X149686191Y-220924381D02*
X149495715Y-220876762D01*
X149400476Y-220829143D01*
X149305238Y-220733905D01*
X149305238Y-220448190D01*
X149400476Y-220352952D01*
X149495715Y-220305333D01*
X149686191Y-220257714D01*
X149971905Y-220257714D01*
X150162381Y-220305333D01*
X150257619Y-220352952D01*
X150352857Y-220448190D01*
X150352857Y-220733905D01*
X150257619Y-220829143D01*
X150162381Y-220876762D01*
X149971905Y-220924381D01*
X149686191Y-220924381D01*
X151210000Y-220924381D02*
X151210000Y-220257714D01*
X151210000Y-220352952D02*
X151305239Y-220305333D01*
X151495715Y-220257714D01*
X151781429Y-220257714D01*
X151971905Y-220305333D01*
X152067143Y-220400571D01*
X152067143Y-220924381D01*
X152067143Y-220400571D02*
X152162381Y-220305333D01*
X152352858Y-220257714D01*
X152638572Y-220257714D01*
X152829048Y-220305333D01*
X152924286Y-220400571D01*
X152924286Y-220924381D01*
X154162382Y-220924381D02*
X153971906Y-220876762D01*
X153876667Y-220829143D01*
X153781429Y-220733905D01*
X153781429Y-220448190D01*
X153876667Y-220352952D01*
X153971906Y-220305333D01*
X154162382Y-220257714D01*
X154448096Y-220257714D01*
X154638572Y-220305333D01*
X154733810Y-220352952D01*
X154829048Y-220448190D01*
X154829048Y-220733905D01*
X154733810Y-220829143D01*
X154638572Y-220876762D01*
X154448096Y-220924381D01*
X154162382Y-220924381D01*
X155686191Y-220924381D02*
X155686191Y-220257714D01*
X155686191Y-220448190D02*
X155781430Y-220352952D01*
X155876668Y-220305333D01*
X156067144Y-220257714D01*
X156257620Y-220257714D01*
X156924286Y-220924381D02*
X156924286Y-220257714D01*
X156924286Y-220448190D02*
X157019525Y-220352952D01*
X157114763Y-220305333D01*
X157305239Y-220257714D01*
X157495715Y-220257714D01*
X158448096Y-220924381D02*
X158257620Y-220876762D01*
X158162381Y-220829143D01*
X158067143Y-220733905D01*
X158067143Y-220448190D01*
X158162381Y-220352952D01*
X158257620Y-220305333D01*
X158448096Y-220257714D01*
X158733810Y-220257714D01*
X158924286Y-220305333D01*
X159019524Y-220352952D01*
X159114762Y-220448190D01*
X159114762Y-220733905D01*
X159019524Y-220829143D01*
X158924286Y-220876762D01*
X158733810Y-220924381D01*
X158448096Y-220924381D01*
X159781429Y-220257714D02*
X160162382Y-220924381D01*
X160543334Y-220448190D01*
X160924286Y-220924381D01*
X161305239Y-220257714D01*
X162067143Y-220829143D02*
X162162382Y-220876762D01*
X162067143Y-220924381D01*
X161971905Y-220876762D01*
X162067143Y-220829143D01*
X162067143Y-220924381D01*
X165210001Y-220400571D02*
X164543334Y-220400571D01*
X164543334Y-220924381D02*
X164543334Y-219924381D01*
X165495715Y-219924381D01*
X166543335Y-220924381D02*
X166352859Y-220876762D01*
X166257620Y-220829143D01*
X166162382Y-220733905D01*
X166162382Y-220448190D01*
X166257620Y-220352952D01*
X166352859Y-220305333D01*
X166543335Y-220257714D01*
X166829049Y-220257714D01*
X167019525Y-220305333D01*
X167114763Y-220352952D01*
X167210001Y-220448190D01*
X167210001Y-220733905D01*
X167114763Y-220829143D01*
X167019525Y-220876762D01*
X166829049Y-220924381D01*
X166543335Y-220924381D01*
X168067144Y-220924381D02*
X168067144Y-220257714D01*
X168067144Y-220448190D02*
X168162383Y-220352952D01*
X168257621Y-220305333D01*
X168448097Y-220257714D01*
X168638573Y-220257714D01*
X170067144Y-220876762D02*
X169876668Y-220924381D01*
X169495716Y-220924381D01*
X169305239Y-220876762D01*
X169210001Y-220781524D01*
X169210001Y-220400571D01*
X169305239Y-220305333D01*
X169495716Y-220257714D01*
X169876668Y-220257714D01*
X170067144Y-220305333D01*
X170162382Y-220400571D01*
X170162382Y-220495810D01*
X169210001Y-220591048D01*
X170829049Y-220257714D02*
X171305240Y-220924381D01*
X171781430Y-220257714D01*
X173305240Y-220876762D02*
X173114764Y-220924381D01*
X172733812Y-220924381D01*
X172543335Y-220876762D01*
X172448097Y-220781524D01*
X172448097Y-220400571D01*
X172543335Y-220305333D01*
X172733812Y-220257714D01*
X173114764Y-220257714D01*
X173305240Y-220305333D01*
X173400478Y-220400571D01*
X173400478Y-220495810D01*
X172448097Y-220591048D01*
X174257621Y-220924381D02*
X174257621Y-220257714D01*
X174257621Y-220448190D02*
X174352860Y-220352952D01*
X174448098Y-220305333D01*
X174638574Y-220257714D01*
X174829050Y-220257714D01*
X175495716Y-220829143D02*
X175590955Y-220876762D01*
X175495716Y-220924381D01*
X175400478Y-220876762D01*
X175495716Y-220829143D01*
X175495716Y-220924381D01*
D11*
X136844951Y-218697714D02*
X136844951Y-214197714D01*
X137511618Y-217412000D01*
X138178285Y-214197714D01*
X138178285Y-218697714D01*
X139035427Y-217412000D02*
X139987808Y-217412000D01*
X138844951Y-218697714D02*
X139511618Y-214197714D01*
X140178285Y-218697714D01*
X141987809Y-218697714D02*
X141321142Y-216554857D01*
X140844951Y-218697714D02*
X140844951Y-214197714D01*
X141606856Y-214197714D01*
X141797332Y-214412000D01*
X141892571Y-214626286D01*
X141987809Y-215054857D01*
X141987809Y-215697714D01*
X141892571Y-216126286D01*
X141797332Y-216340571D01*
X141606856Y-216554857D01*
X140844951Y-216554857D01*
X142749713Y-218483429D02*
X143035428Y-218697714D01*
X143511618Y-218697714D01*
X143702094Y-218483429D01*
X143797332Y-218269143D01*
X143892571Y-217840571D01*
X143892571Y-217412000D01*
X143797332Y-216983429D01*
X143702094Y-216769143D01*
X143511618Y-216554857D01*
X143130666Y-216340571D01*
X142940190Y-216126286D01*
X142844951Y-215912000D01*
X142749713Y-215483429D01*
X142749713Y-215054857D01*
X142844951Y-214626286D01*
X142940190Y-214412000D01*
X143130666Y-214197714D01*
X143606856Y-214197714D01*
X143892571Y-214412000D01*
X147416381Y-218697714D02*
X146749714Y-216554857D01*
X146273523Y-218697714D02*
X146273523Y-214197714D01*
X147035428Y-214197714D01*
X147225904Y-214412000D01*
X147321143Y-214626286D01*
X147416381Y-215054857D01*
X147416381Y-215697714D01*
X147321143Y-216126286D01*
X147225904Y-216340571D01*
X147035428Y-216554857D01*
X146273523Y-216554857D01*
X148654476Y-214197714D02*
X149035428Y-214197714D01*
X149225904Y-214412000D01*
X149416381Y-214840571D01*
X149511619Y-215697714D01*
X149511619Y-217197714D01*
X149416381Y-218054857D01*
X149225904Y-218483429D01*
X149035428Y-218697714D01*
X148654476Y-218697714D01*
X148464000Y-218483429D01*
X148273523Y-218054857D01*
X148178285Y-217197714D01*
X148178285Y-215697714D01*
X148273523Y-214840571D01*
X148464000Y-214412000D01*
X148654476Y-214197714D01*
X150083047Y-214197714D02*
X150749714Y-218697714D01*
X151416381Y-214197714D01*
X152083047Y-216340571D02*
X152749714Y-216340571D01*
X153035428Y-218697714D02*
X152083047Y-218697714D01*
X152083047Y-214197714D01*
X153035428Y-214197714D01*
X155035429Y-218697714D02*
X154368762Y-216554857D01*
X153892571Y-218697714D02*
X153892571Y-214197714D01*
X154654476Y-214197714D01*
X154844952Y-214412000D01*
X154940191Y-214626286D01*
X155035429Y-215054857D01*
X155035429Y-215697714D01*
X154940191Y-216126286D01*
X154844952Y-216340571D01*
X154654476Y-216554857D01*
X153892571Y-216554857D01*
X157416381Y-218697714D02*
X157416381Y-214197714D01*
X157892572Y-214197714D01*
X158178286Y-214412000D01*
X158368762Y-214840571D01*
X158464001Y-215269143D01*
X158559239Y-216126286D01*
X158559239Y-216769143D01*
X158464001Y-217626286D01*
X158368762Y-218054857D01*
X158178286Y-218483429D01*
X157892572Y-218697714D01*
X157416381Y-218697714D01*
X159416381Y-216340571D02*
X160083048Y-216340571D01*
X160368762Y-218697714D02*
X159416381Y-218697714D01*
X159416381Y-214197714D01*
X160368762Y-214197714D01*
X161130667Y-218483429D02*
X161416382Y-218697714D01*
X161892572Y-218697714D01*
X162083048Y-218483429D01*
X162178286Y-218269143D01*
X162273525Y-217840571D01*
X162273525Y-217412000D01*
X162178286Y-216983429D01*
X162083048Y-216769143D01*
X161892572Y-216554857D01*
X161511620Y-216340571D01*
X161321144Y-216126286D01*
X161225905Y-215912000D01*
X161130667Y-215483429D01*
X161130667Y-215054857D01*
X161225905Y-214626286D01*
X161321144Y-214412000D01*
X161511620Y-214197714D01*
X161987810Y-214197714D01*
X162273525Y-214412000D01*
X163130667Y-218697714D02*
X163130667Y-214197714D01*
X165130668Y-214412000D02*
X164940191Y-214197714D01*
X164654477Y-214197714D01*
X164368763Y-214412000D01*
X164178287Y-214840571D01*
X164083048Y-215269143D01*
X163987810Y-216126286D01*
X163987810Y-216769143D01*
X164083048Y-217626286D01*
X164178287Y-218054857D01*
X164368763Y-218483429D01*
X164654477Y-218697714D01*
X164844953Y-218697714D01*
X165130668Y-218483429D01*
X165225906Y-218269143D01*
X165225906Y-216769143D01*
X164844953Y-216769143D01*
X166083048Y-218697714D02*
X166083048Y-214197714D01*
X167225906Y-218697714D01*
X167225906Y-214197714D01*
X169416382Y-214197714D02*
X170559239Y-214197714D01*
X169987811Y-218697714D02*
X169987811Y-214197714D01*
X171225906Y-216340571D02*
X171892573Y-216340571D01*
X172178287Y-218697714D02*
X171225906Y-218697714D01*
X171225906Y-214197714D01*
X172178287Y-214197714D01*
X172940192Y-217412000D02*
X173892573Y-217412000D01*
X172749716Y-218697714D02*
X173416383Y-214197714D01*
X174083050Y-218697714D01*
X174749716Y-218697714D02*
X174749716Y-214197714D01*
X175416383Y-217412000D01*
X176083050Y-214197714D01*
X176083050Y-218697714D01*
X119925333Y-152852571D02*
X121711048Y-152852571D01*
X120639619Y-150709714D02*
X119925333Y-157138286D01*
X121472953Y-154995429D02*
X119687238Y-154995429D01*
X120758667Y-157138286D02*
X121472953Y-150709714D01*
X123972953Y-156185905D02*
X123139619Y-153804952D01*
X122544381Y-156185905D02*
X122544381Y-151185905D01*
X123496762Y-151185905D01*
X123734857Y-151424000D01*
X123853905Y-151662095D01*
X123972953Y-152138286D01*
X123972953Y-152852571D01*
X123853905Y-153328762D01*
X123734857Y-153566857D01*
X123496762Y-153804952D01*
X122544381Y-153804952D01*
X125520572Y-151185905D02*
X125996762Y-151185905D01*
X126234857Y-151424000D01*
X126472953Y-151900190D01*
X126592000Y-152852571D01*
X126592000Y-154519238D01*
X126472953Y-155471619D01*
X126234857Y-155947810D01*
X125996762Y-156185905D01*
X125520572Y-156185905D01*
X125282476Y-155947810D01*
X125044381Y-155471619D01*
X124925333Y-154519238D01*
X124925333Y-152852571D01*
X125044381Y-151900190D01*
X125282476Y-151424000D01*
X125520572Y-151185905D01*
X127306286Y-151185905D02*
X128139620Y-156185905D01*
X128972953Y-151185905D01*
X129806286Y-153566857D02*
X130639619Y-153566857D01*
X130996762Y-156185905D02*
X129806286Y-156185905D01*
X129806286Y-151185905D01*
X130996762Y-151185905D01*
X131949143Y-155947810D02*
X132306286Y-156185905D01*
X132901524Y-156185905D01*
X133139620Y-155947810D01*
X133258667Y-155709714D01*
X133377715Y-155233524D01*
X133377715Y-154757333D01*
X133258667Y-154281143D01*
X133139620Y-154043048D01*
X132901524Y-153804952D01*
X132425334Y-153566857D01*
X132187239Y-153328762D01*
X132068191Y-153090667D01*
X131949143Y-152614476D01*
X131949143Y-152138286D01*
X132068191Y-151662095D01*
X132187239Y-151424000D01*
X132425334Y-151185905D01*
X133020572Y-151185905D01*
X133377715Y-151424000D01*
X134925334Y-151185905D02*
X135401524Y-151185905D01*
X135639619Y-151424000D01*
X135877715Y-151900190D01*
X135996762Y-152852571D01*
X135996762Y-154519238D01*
X135877715Y-155471619D01*
X135639619Y-155947810D01*
X135401524Y-156185905D01*
X134925334Y-156185905D01*
X134687238Y-155947810D01*
X134449143Y-155471619D01*
X134330095Y-154519238D01*
X134330095Y-152852571D01*
X134449143Y-151900190D01*
X134687238Y-151424000D01*
X134925334Y-151185905D01*
X137068191Y-156185905D02*
X137068191Y-151185905D01*
X137068191Y-153566857D02*
X138496763Y-153566857D01*
X138496763Y-156185905D02*
X138496763Y-151185905D01*
X139568191Y-154757333D02*
X140758668Y-154757333D01*
X139330096Y-156185905D02*
X140163430Y-151185905D01*
X140996763Y-156185905D01*
X143258668Y-156185905D02*
X142425334Y-153804952D01*
X141830096Y-156185905D02*
X141830096Y-151185905D01*
X142782477Y-151185905D01*
X143020572Y-151424000D01*
X143139620Y-151662095D01*
X143258668Y-152138286D01*
X143258668Y-152852571D01*
X143139620Y-153328762D01*
X143020572Y-153566857D01*
X142782477Y-153804952D01*
X141830096Y-153804952D01*
X144330096Y-156185905D02*
X144330096Y-151185905D01*
X144925334Y-151185905D01*
X145282477Y-151424000D01*
X145520572Y-151900190D01*
X145639620Y-152376381D01*
X145758668Y-153328762D01*
X145758668Y-154043048D01*
X145639620Y-154995429D01*
X145520572Y-155471619D01*
X145282477Y-155947810D01*
X144925334Y-156185905D01*
X144330096Y-156185905D01*
D12*
X121632000Y-229841619D02*
X121632000Y-230627333D01*
X121582000Y-230784476D01*
X121482000Y-230889238D01*
X121332000Y-230941619D01*
X121232000Y-230941619D01*
X122282000Y-230941619D02*
X122182000Y-230889238D01*
X122132000Y-230836857D01*
X122082000Y-230732095D01*
X122082000Y-230417810D01*
X122132000Y-230313048D01*
X122182000Y-230260667D01*
X122282000Y-230208286D01*
X122432000Y-230208286D01*
X122532000Y-230260667D01*
X122582000Y-230313048D01*
X122632000Y-230417810D01*
X122632000Y-230732095D01*
X122582000Y-230836857D01*
X122532000Y-230889238D01*
X122432000Y-230941619D01*
X122282000Y-230941619D01*
X123082000Y-230941619D02*
X123082000Y-230208286D01*
X123082000Y-229841619D02*
X123032000Y-229894000D01*
X123082000Y-229946381D01*
X123132000Y-229894000D01*
X123082000Y-229841619D01*
X123082000Y-229946381D01*
X123582000Y-230208286D02*
X123582000Y-230941619D01*
X123582000Y-230313048D02*
X123632000Y-230260667D01*
X123732000Y-230208286D01*
X123882000Y-230208286D01*
X123982000Y-230260667D01*
X124032000Y-230365429D01*
X124032000Y-230941619D01*
X124532000Y-230941619D02*
X124532000Y-230208286D01*
X124532000Y-229841619D02*
X124482000Y-229894000D01*
X124532000Y-229946381D01*
X124582000Y-229894000D01*
X124532000Y-229841619D01*
X124532000Y-229946381D01*
X125032000Y-230208286D02*
X125032000Y-230941619D01*
X125032000Y-230313048D02*
X125082000Y-230260667D01*
X125182000Y-230208286D01*
X125332000Y-230208286D01*
X125432000Y-230260667D01*
X125482000Y-230365429D01*
X125482000Y-230941619D01*
X126432000Y-230208286D02*
X126432000Y-231098762D01*
X126382000Y-231203524D01*
X126332000Y-231255905D01*
X126232000Y-231308286D01*
X126082000Y-231308286D01*
X125982000Y-231255905D01*
X126432000Y-230889238D02*
X126332000Y-230941619D01*
X126132000Y-230941619D01*
X126032000Y-230889238D01*
X125982000Y-230836857D01*
X125932000Y-230732095D01*
X125932000Y-230417810D01*
X125982000Y-230313048D01*
X126032000Y-230260667D01*
X126132000Y-230208286D01*
X126332000Y-230208286D01*
X126432000Y-230260667D01*
X127582000Y-230208286D02*
X127982000Y-230208286D01*
X127732000Y-229841619D02*
X127732000Y-230784476D01*
X127782000Y-230889238D01*
X127882000Y-230941619D01*
X127982000Y-230941619D01*
X128332000Y-230941619D02*
X128332000Y-229841619D01*
X128782000Y-230941619D02*
X128782000Y-230365429D01*
X128732000Y-230260667D01*
X128632000Y-230208286D01*
X128482000Y-230208286D01*
X128382000Y-230260667D01*
X128332000Y-230313048D01*
X129682000Y-230889238D02*
X129582000Y-230941619D01*
X129382000Y-230941619D01*
X129282000Y-230889238D01*
X129232000Y-230784476D01*
X129232000Y-230365429D01*
X129282000Y-230260667D01*
X129382000Y-230208286D01*
X129582000Y-230208286D01*
X129682000Y-230260667D01*
X129732000Y-230365429D01*
X129732000Y-230470190D01*
X129232000Y-230574952D01*
X130832000Y-229841619D02*
X131432000Y-229841619D01*
X131132000Y-230941619D02*
X131132000Y-229841619D01*
X132182000Y-230889238D02*
X132082000Y-230941619D01*
X131882000Y-230941619D01*
X131782000Y-230889238D01*
X131732000Y-230784476D01*
X131732000Y-230365429D01*
X131782000Y-230260667D01*
X131882000Y-230208286D01*
X132082000Y-230208286D01*
X132182000Y-230260667D01*
X132232000Y-230365429D01*
X132232000Y-230470190D01*
X131732000Y-230574952D01*
X133132000Y-230941619D02*
X133132000Y-230365429D01*
X133082000Y-230260667D01*
X132982000Y-230208286D01*
X132782000Y-230208286D01*
X132682000Y-230260667D01*
X133132000Y-230889238D02*
X133032000Y-230941619D01*
X132782000Y-230941619D01*
X132682000Y-230889238D01*
X132632000Y-230784476D01*
X132632000Y-230679714D01*
X132682000Y-230574952D01*
X132782000Y-230522571D01*
X133032000Y-230522571D01*
X133132000Y-230470190D01*
X133632000Y-230941619D02*
X133632000Y-230208286D01*
X133632000Y-230313048D02*
X133682000Y-230260667D01*
X133782000Y-230208286D01*
X133932000Y-230208286D01*
X134032000Y-230260667D01*
X134082000Y-230365429D01*
X134082000Y-230941619D01*
X134082000Y-230365429D02*
X134132000Y-230260667D01*
X134232000Y-230208286D01*
X134382000Y-230208286D01*
X134482000Y-230260667D01*
X134532000Y-230365429D01*
X134532000Y-230941619D01*
X135982000Y-230941619D02*
X135882000Y-230889238D01*
X135832000Y-230836857D01*
X135782000Y-230732095D01*
X135782000Y-230417810D01*
X135832000Y-230313048D01*
X135882000Y-230260667D01*
X135982000Y-230208286D01*
X136132000Y-230208286D01*
X136232000Y-230260667D01*
X136282000Y-230313048D01*
X136332000Y-230417810D01*
X136332000Y-230732095D01*
X136282000Y-230836857D01*
X136232000Y-230889238D01*
X136132000Y-230941619D01*
X135982000Y-230941619D01*
X136782000Y-230941619D02*
X136782000Y-230208286D01*
X136782000Y-230417810D02*
X136832000Y-230313048D01*
X136882000Y-230260667D01*
X136982000Y-230208286D01*
X137082000Y-230208286D01*
X138232000Y-230941619D02*
X138232000Y-229841619D01*
X138232000Y-230365429D02*
X138832000Y-230365429D01*
X138832000Y-230941619D02*
X138832000Y-229841619D01*
X139782000Y-230941619D02*
X139782000Y-230365429D01*
X139732000Y-230260667D01*
X139632000Y-230208286D01*
X139432000Y-230208286D01*
X139332000Y-230260667D01*
X139782000Y-230889238D02*
X139682000Y-230941619D01*
X139432000Y-230941619D01*
X139332000Y-230889238D01*
X139282000Y-230784476D01*
X139282000Y-230679714D01*
X139332000Y-230574952D01*
X139432000Y-230522571D01*
X139682000Y-230522571D01*
X139782000Y-230470190D01*
X140182000Y-230208286D02*
X140432000Y-230941619D01*
X140682000Y-230208286D01*
X141482000Y-230889238D02*
X141382000Y-230941619D01*
X141182000Y-230941619D01*
X141082000Y-230889238D01*
X141032000Y-230784476D01*
X141032000Y-230365429D01*
X141082000Y-230260667D01*
X141182000Y-230208286D01*
X141382000Y-230208286D01*
X141482000Y-230260667D01*
X141532000Y-230365429D01*
X141532000Y-230470190D01*
X141032000Y-230574952D01*
X143482000Y-231046381D02*
X143382000Y-230994000D01*
X143282000Y-230889238D01*
X143132000Y-230732095D01*
X143032000Y-230679714D01*
X142932000Y-230679714D01*
X142982000Y-230941619D02*
X142882000Y-230889238D01*
X142782000Y-230784476D01*
X142732000Y-230574952D01*
X142732000Y-230208286D01*
X142782000Y-229998762D01*
X142882000Y-229894000D01*
X142982000Y-229841619D01*
X143182000Y-229841619D01*
X143282000Y-229894000D01*
X143382000Y-229998762D01*
X143432000Y-230208286D01*
X143432000Y-230574952D01*
X143382000Y-230784476D01*
X143282000Y-230889238D01*
X143182000Y-230941619D01*
X142982000Y-230941619D01*
X144332000Y-230208286D02*
X144332000Y-230941619D01*
X143882000Y-230208286D02*
X143882000Y-230784476D01*
X143932000Y-230889238D01*
X144032000Y-230941619D01*
X144182000Y-230941619D01*
X144282000Y-230889238D01*
X144332000Y-230836857D01*
X145232000Y-230889238D02*
X145132000Y-230941619D01*
X144932000Y-230941619D01*
X144832000Y-230889238D01*
X144782000Y-230784476D01*
X144782000Y-230365429D01*
X144832000Y-230260667D01*
X144932000Y-230208286D01*
X145132000Y-230208286D01*
X145232000Y-230260667D01*
X145282000Y-230365429D01*
X145282000Y-230470190D01*
X144782000Y-230574952D01*
X145682000Y-230889238D02*
X145782000Y-230941619D01*
X145982000Y-230941619D01*
X146082000Y-230889238D01*
X146132000Y-230784476D01*
X146132000Y-230732095D01*
X146082000Y-230627333D01*
X145982000Y-230574952D01*
X145832000Y-230574952D01*
X145732000Y-230522571D01*
X145682000Y-230417810D01*
X145682000Y-230365429D01*
X145732000Y-230260667D01*
X145832000Y-230208286D01*
X145982000Y-230208286D01*
X146082000Y-230260667D01*
X146432000Y-230208286D02*
X146832000Y-230208286D01*
X146582000Y-229841619D02*
X146582000Y-230784476D01*
X146632000Y-230889238D01*
X146732000Y-230941619D01*
X146832000Y-230941619D01*
X147182000Y-230941619D02*
X147182000Y-230208286D01*
X147182000Y-229841619D02*
X147132000Y-229894000D01*
X147182000Y-229946381D01*
X147232000Y-229894000D01*
X147182000Y-229841619D01*
X147182000Y-229946381D01*
X147832000Y-230941619D02*
X147732000Y-230889238D01*
X147682000Y-230836857D01*
X147632000Y-230732095D01*
X147632000Y-230417810D01*
X147682000Y-230313048D01*
X147732000Y-230260667D01*
X147832000Y-230208286D01*
X147982000Y-230208286D01*
X148082000Y-230260667D01*
X148132000Y-230313048D01*
X148182000Y-230417810D01*
X148182000Y-230732095D01*
X148132000Y-230836857D01*
X148082000Y-230889238D01*
X147982000Y-230941619D01*
X147832000Y-230941619D01*
X148632000Y-230208286D02*
X148632000Y-230941619D01*
X148632000Y-230313048D02*
X148682000Y-230260667D01*
X148782000Y-230208286D01*
X148932000Y-230208286D01*
X149032000Y-230260667D01*
X149082000Y-230365429D01*
X149082000Y-230941619D01*
X149532000Y-230889238D02*
X149632000Y-230941619D01*
X149832000Y-230941619D01*
X149932000Y-230889238D01*
X149982000Y-230784476D01*
X149982000Y-230732095D01*
X149932000Y-230627333D01*
X149832000Y-230574952D01*
X149682000Y-230574952D01*
X149582000Y-230522571D01*
X149532000Y-230417810D01*
X149532000Y-230365429D01*
X149582000Y-230260667D01*
X149682000Y-230208286D01*
X149832000Y-230208286D01*
X149932000Y-230260667D01*
X150582000Y-230836857D02*
X150632000Y-230889238D01*
X150582000Y-230941619D01*
X150532000Y-230889238D01*
X150582000Y-230836857D01*
X150582000Y-230941619D01*
X150382000Y-229894000D02*
X150482000Y-229841619D01*
X150732000Y-229841619D01*
X150832000Y-229894000D01*
X150882000Y-229998762D01*
X150882000Y-230103524D01*
X150832000Y-230208286D01*
X150782000Y-230260667D01*
X150682000Y-230313048D01*
X150632000Y-230365429D01*
X150582000Y-230470190D01*
X150582000Y-230522571D01*
X152732000Y-230836857D02*
X152682000Y-230889238D01*
X152532000Y-230941619D01*
X152432000Y-230941619D01*
X152282000Y-230889238D01*
X152182000Y-230784476D01*
X152132000Y-230679714D01*
X152082000Y-230470190D01*
X152082000Y-230313048D01*
X152132000Y-230103524D01*
X152182000Y-229998762D01*
X152282000Y-229894000D01*
X152432000Y-229841619D01*
X152532000Y-229841619D01*
X152682000Y-229894000D01*
X152732000Y-229946381D01*
X153332000Y-230941619D02*
X153232000Y-230889238D01*
X153182000Y-230836857D01*
X153132000Y-230732095D01*
X153132000Y-230417810D01*
X153182000Y-230313048D01*
X153232000Y-230260667D01*
X153332000Y-230208286D01*
X153482000Y-230208286D01*
X153582000Y-230260667D01*
X153632000Y-230313048D01*
X153682000Y-230417810D01*
X153682000Y-230732095D01*
X153632000Y-230836857D01*
X153582000Y-230889238D01*
X153482000Y-230941619D01*
X153332000Y-230941619D01*
X154132000Y-230208286D02*
X154132000Y-230941619D01*
X154132000Y-230313048D02*
X154182000Y-230260667D01*
X154282000Y-230208286D01*
X154432000Y-230208286D01*
X154532000Y-230260667D01*
X154582000Y-230365429D01*
X154582000Y-230941619D01*
X154932000Y-230208286D02*
X155332000Y-230208286D01*
X155082000Y-229841619D02*
X155082000Y-230784476D01*
X155132000Y-230889238D01*
X155232000Y-230941619D01*
X155332000Y-230941619D01*
X156132000Y-230941619D02*
X156132000Y-230365429D01*
X156082000Y-230260667D01*
X155982000Y-230208286D01*
X155782000Y-230208286D01*
X155682000Y-230260667D01*
X156132000Y-230889238D02*
X156032000Y-230941619D01*
X155782000Y-230941619D01*
X155682000Y-230889238D01*
X155632000Y-230784476D01*
X155632000Y-230679714D01*
X155682000Y-230574952D01*
X155782000Y-230522571D01*
X156032000Y-230522571D01*
X156132000Y-230470190D01*
X157082000Y-230889238D02*
X156982000Y-230941619D01*
X156782000Y-230941619D01*
X156682000Y-230889238D01*
X156632000Y-230836857D01*
X156582000Y-230732095D01*
X156582000Y-230417810D01*
X156632000Y-230313048D01*
X156682000Y-230260667D01*
X156782000Y-230208286D01*
X156982000Y-230208286D01*
X157082000Y-230260667D01*
X157382000Y-230208286D02*
X157782000Y-230208286D01*
X157532000Y-229841619D02*
X157532000Y-230784476D01*
X157582000Y-230889238D01*
X157682000Y-230941619D01*
X157782000Y-230941619D01*
X158932000Y-230941619D02*
X158932000Y-229841619D01*
X159282000Y-230627333D01*
X159632000Y-229841619D01*
X159632000Y-230941619D01*
X160582000Y-230941619D02*
X160582000Y-230365429D01*
X160532000Y-230260667D01*
X160432000Y-230208286D01*
X160232000Y-230208286D01*
X160132000Y-230260667D01*
X160582000Y-230889238D02*
X160482000Y-230941619D01*
X160232000Y-230941619D01*
X160132000Y-230889238D01*
X160082000Y-230784476D01*
X160082000Y-230679714D01*
X160132000Y-230574952D01*
X160232000Y-230522571D01*
X160482000Y-230522571D01*
X160582000Y-230470190D01*
X161082000Y-230941619D02*
X161082000Y-230208286D01*
X161082000Y-230417810D02*
X161132000Y-230313048D01*
X161182000Y-230260667D01*
X161282000Y-230208286D01*
X161382000Y-230208286D01*
X161682000Y-230889238D02*
X161782000Y-230941619D01*
X161982000Y-230941619D01*
X162082000Y-230889238D01*
X162132000Y-230784476D01*
X162132000Y-230732095D01*
X162082000Y-230627333D01*
X161982000Y-230574952D01*
X161832000Y-230574952D01*
X161732000Y-230522571D01*
X161682000Y-230417810D01*
X161682000Y-230365429D01*
X161732000Y-230260667D01*
X161832000Y-230208286D01*
X161982000Y-230208286D01*
X162082000Y-230260667D01*
X162582000Y-230941619D02*
X162582000Y-230208286D01*
X162582000Y-230417810D02*
X162632000Y-230313048D01*
X162682000Y-230260667D01*
X162782000Y-230208286D01*
X162882000Y-230208286D01*
X163382000Y-230941619D02*
X163282000Y-230889238D01*
X163232000Y-230836857D01*
X163182000Y-230732095D01*
X163182000Y-230417810D01*
X163232000Y-230313048D01*
X163282000Y-230260667D01*
X163382000Y-230208286D01*
X163532000Y-230208286D01*
X163632000Y-230260667D01*
X163682000Y-230313048D01*
X163732000Y-230417810D01*
X163732000Y-230732095D01*
X163682000Y-230836857D01*
X163632000Y-230889238D01*
X163532000Y-230941619D01*
X163382000Y-230941619D01*
X164082000Y-230208286D02*
X164332000Y-230941619D01*
X164582000Y-230208286D01*
X165382000Y-230889238D02*
X165282000Y-230941619D01*
X165082000Y-230941619D01*
X164982000Y-230889238D01*
X164932000Y-230784476D01*
X164932000Y-230365429D01*
X164982000Y-230260667D01*
X165082000Y-230208286D01*
X165282000Y-230208286D01*
X165382000Y-230260667D01*
X165432000Y-230365429D01*
X165432000Y-230470190D01*
X164932000Y-230574952D01*
X165882000Y-230941619D02*
X165882000Y-230208286D01*
X165882000Y-230417810D02*
X165932000Y-230313048D01*
X165982000Y-230260667D01*
X166082000Y-230208286D01*
X166182000Y-230208286D01*
X167182000Y-230417810D02*
X167132000Y-230365429D01*
X167032000Y-230313048D01*
X166932000Y-230313048D01*
X166832000Y-230365429D01*
X166782000Y-230417810D01*
X166732000Y-230522571D01*
X166732000Y-230627333D01*
X166782000Y-230732095D01*
X166832000Y-230784476D01*
X166932000Y-230836857D01*
X167032000Y-230836857D01*
X167132000Y-230784476D01*
X167182000Y-230732095D01*
X167182000Y-230313048D02*
X167182000Y-230732095D01*
X167232000Y-230784476D01*
X167282000Y-230784476D01*
X167382000Y-230732095D01*
X167432000Y-230627333D01*
X167432000Y-230365429D01*
X167332000Y-230208286D01*
X167182000Y-230103524D01*
X166982000Y-230051143D01*
X166782000Y-230103524D01*
X166632000Y-230208286D01*
X166532000Y-230365429D01*
X166482000Y-230574952D01*
X166532000Y-230784476D01*
X166632000Y-230941619D01*
X166782000Y-231046381D01*
X166982000Y-231098762D01*
X167182000Y-231046381D01*
X167332000Y-230941619D01*
X167882000Y-230941619D02*
X167882000Y-230208286D01*
X167882000Y-230313048D02*
X167932000Y-230260667D01*
X168032000Y-230208286D01*
X168182000Y-230208286D01*
X168282000Y-230260667D01*
X168332000Y-230365429D01*
X168332000Y-230941619D01*
X168332000Y-230365429D02*
X168382000Y-230260667D01*
X168482000Y-230208286D01*
X168632000Y-230208286D01*
X168732000Y-230260667D01*
X168782000Y-230365429D01*
X168782000Y-230941619D01*
X169232000Y-230889238D02*
X169332000Y-230941619D01*
X169532000Y-230941619D01*
X169632000Y-230889238D01*
X169682000Y-230784476D01*
X169682000Y-230732095D01*
X169632000Y-230627333D01*
X169532000Y-230574952D01*
X169382000Y-230574952D01*
X169282000Y-230522571D01*
X169232000Y-230417810D01*
X169232000Y-230365429D01*
X169282000Y-230260667D01*
X169382000Y-230208286D01*
X169532000Y-230208286D01*
X169632000Y-230260667D01*
X169982000Y-230208286D02*
X170382000Y-230208286D01*
X170132000Y-229841619D02*
X170132000Y-230784476D01*
X170182000Y-230889238D01*
X170282000Y-230941619D01*
X170382000Y-230941619D01*
X170732000Y-230836857D02*
X170782000Y-230889238D01*
X170732000Y-230941619D01*
X170682000Y-230889238D01*
X170732000Y-230836857D01*
X170732000Y-230941619D01*
X171632000Y-230889238D02*
X171532000Y-230941619D01*
X171332000Y-230941619D01*
X171232000Y-230889238D01*
X171182000Y-230784476D01*
X171182000Y-230365429D01*
X171232000Y-230260667D01*
X171332000Y-230208286D01*
X171532000Y-230208286D01*
X171632000Y-230260667D01*
X171682000Y-230365429D01*
X171682000Y-230470190D01*
X171182000Y-230574952D01*
X172582000Y-230941619D02*
X172582000Y-229841619D01*
X172582000Y-230889238D02*
X172482000Y-230941619D01*
X172282000Y-230941619D01*
X172182000Y-230889238D01*
X172132000Y-230836857D01*
X172082000Y-230732095D01*
X172082000Y-230417810D01*
X172132000Y-230313048D01*
X172182000Y-230260667D01*
X172282000Y-230208286D01*
X172482000Y-230208286D01*
X172582000Y-230260667D01*
X173532000Y-230208286D02*
X173532000Y-230941619D01*
X173082000Y-230208286D02*
X173082000Y-230784476D01*
X173132000Y-230889238D01*
X173232000Y-230941619D01*
X173382000Y-230941619D01*
X173482000Y-230889238D01*
X173532000Y-230836857D01*
X174082000Y-230889238D02*
X174082000Y-230941619D01*
X174032000Y-231046381D01*
X173982000Y-231098762D01*
X120282000Y-231741619D02*
X120282000Y-232527333D01*
X120232000Y-232684476D01*
X120132000Y-232789238D01*
X119982000Y-232841619D01*
X119882000Y-232841619D01*
X121232000Y-232841619D02*
X121232000Y-232265429D01*
X121182000Y-232160667D01*
X121082000Y-232108286D01*
X120882000Y-232108286D01*
X120782000Y-232160667D01*
X121232000Y-232789238D02*
X121132000Y-232841619D01*
X120882000Y-232841619D01*
X120782000Y-232789238D01*
X120732000Y-232684476D01*
X120732000Y-232579714D01*
X120782000Y-232474952D01*
X120882000Y-232422571D01*
X121132000Y-232422571D01*
X121232000Y-232370190D01*
X122182000Y-232789238D02*
X122082000Y-232841619D01*
X121882000Y-232841619D01*
X121782000Y-232789238D01*
X121732000Y-232736857D01*
X121682000Y-232632095D01*
X121682000Y-232317810D01*
X121732000Y-232213048D01*
X121782000Y-232160667D01*
X121882000Y-232108286D01*
X122082000Y-232108286D01*
X122182000Y-232160667D01*
X122782000Y-232841619D02*
X122682000Y-232789238D01*
X122632000Y-232736857D01*
X122582000Y-232632095D01*
X122582000Y-232317810D01*
X122632000Y-232213048D01*
X122682000Y-232160667D01*
X122782000Y-232108286D01*
X122932000Y-232108286D01*
X123032000Y-232160667D01*
X123082000Y-232213048D01*
X123132000Y-232317810D01*
X123132000Y-232632095D01*
X123082000Y-232736857D01*
X123032000Y-232789238D01*
X122932000Y-232841619D01*
X122782000Y-232841619D01*
X123582000Y-232841619D02*
X123582000Y-231741619D01*
X123582000Y-232160667D02*
X123682000Y-232108286D01*
X123882000Y-232108286D01*
X123982000Y-232160667D01*
X124032000Y-232213048D01*
X124082000Y-232317810D01*
X124082000Y-232632095D01*
X124032000Y-232736857D01*
X123982000Y-232789238D01*
X123882000Y-232841619D01*
X123682000Y-232841619D01*
X123582000Y-232789238D01*
X125832000Y-232841619D02*
X125332000Y-232841619D01*
X125332000Y-231741619D01*
X126182000Y-232841619D02*
X126182000Y-232108286D01*
X126182000Y-231741619D02*
X126132000Y-231794000D01*
X126182000Y-231846381D01*
X126232000Y-231794000D01*
X126182000Y-231741619D01*
X126182000Y-231846381D01*
X126682000Y-232108286D02*
X126682000Y-233208286D01*
X126682000Y-232160667D02*
X126782000Y-232108286D01*
X126982000Y-232108286D01*
X127082000Y-232160667D01*
X127132000Y-232213048D01*
X127182000Y-232317810D01*
X127182000Y-232632095D01*
X127132000Y-232736857D01*
X127082000Y-232789238D01*
X126982000Y-232841619D01*
X126782000Y-232841619D01*
X126682000Y-232789238D01*
X127632000Y-232841619D02*
X127632000Y-232108286D01*
X127632000Y-231741619D02*
X127582000Y-231794000D01*
X127632000Y-231846381D01*
X127682000Y-231794000D01*
X127632000Y-231741619D01*
X127632000Y-231846381D01*
X128132000Y-232108286D02*
X128132000Y-232841619D01*
X128132000Y-232213048D02*
X128182000Y-232160667D01*
X128282000Y-232108286D01*
X128432000Y-232108286D01*
X128532000Y-232160667D01*
X128582000Y-232265429D01*
X128582000Y-232841619D01*
X129532000Y-232841619D02*
X129532000Y-232265429D01*
X129482000Y-232160667D01*
X129382000Y-232108286D01*
X129182000Y-232108286D01*
X129082000Y-232160667D01*
X129532000Y-232789238D02*
X129432000Y-232841619D01*
X129182000Y-232841619D01*
X129082000Y-232789238D01*
X129032000Y-232684476D01*
X129032000Y-232579714D01*
X129082000Y-232474952D01*
X129182000Y-232422571D01*
X129432000Y-232422571D01*
X129532000Y-232370190D01*
X131132000Y-233260667D02*
X131082000Y-233208286D01*
X130982000Y-233051143D01*
X130932000Y-232946381D01*
X130882000Y-232789238D01*
X130832000Y-232527333D01*
X130832000Y-232317810D01*
X130882000Y-232055905D01*
X130932000Y-231898762D01*
X130982000Y-231794000D01*
X131082000Y-231636857D01*
X131132000Y-231584476D01*
X131532000Y-232108286D02*
X131532000Y-233051143D01*
X131482000Y-233155905D01*
X131382000Y-233208286D01*
X131332000Y-233208286D01*
X131532000Y-231741619D02*
X131482000Y-231794000D01*
X131532000Y-231846381D01*
X131582000Y-231794000D01*
X131532000Y-231741619D01*
X131532000Y-231846381D01*
X132032000Y-232841619D02*
X132032000Y-232108286D01*
X132032000Y-232317810D02*
X132082000Y-232213048D01*
X132132000Y-232160667D01*
X132232000Y-232108286D01*
X132332000Y-232108286D01*
X132832000Y-232841619D02*
X132732000Y-232789238D01*
X132682000Y-232684476D01*
X132682000Y-231741619D01*
X133132000Y-232108286D02*
X133332000Y-232841619D01*
X133532000Y-232317810D01*
X133732000Y-232841619D01*
X133932000Y-232108286D01*
X134782000Y-232841619D02*
X134782000Y-231741619D01*
X134782000Y-232789238D02*
X134682000Y-232841619D01*
X134482000Y-232841619D01*
X134382000Y-232789238D01*
X134332000Y-232736857D01*
X134282000Y-232632095D01*
X134282000Y-232317810D01*
X134332000Y-232213048D01*
X134382000Y-232160667D01*
X134482000Y-232108286D01*
X134682000Y-232108286D01*
X134782000Y-232160667D01*
X135782000Y-231741619D02*
X135282000Y-231741619D01*
X135232000Y-232265429D01*
X135282000Y-232213048D01*
X135382000Y-232160667D01*
X135632000Y-232160667D01*
X135732000Y-232213048D01*
X135782000Y-232265429D01*
X135832000Y-232370190D01*
X135832000Y-232632095D01*
X135782000Y-232736857D01*
X135732000Y-232789238D01*
X135632000Y-232841619D01*
X135382000Y-232841619D01*
X135282000Y-232789238D01*
X135232000Y-232736857D01*
X136932000Y-232317810D02*
X136882000Y-232265429D01*
X136782000Y-232213048D01*
X136682000Y-232213048D01*
X136582000Y-232265429D01*
X136532000Y-232317810D01*
X136482000Y-232422571D01*
X136482000Y-232527333D01*
X136532000Y-232632095D01*
X136582000Y-232684476D01*
X136682000Y-232736857D01*
X136782000Y-232736857D01*
X136882000Y-232684476D01*
X136932000Y-232632095D01*
X136932000Y-232213048D02*
X136932000Y-232632095D01*
X136982000Y-232684476D01*
X137032000Y-232684476D01*
X137132000Y-232632095D01*
X137182000Y-232527333D01*
X137182000Y-232265429D01*
X137082000Y-232108286D01*
X136932000Y-232003524D01*
X136732000Y-231951143D01*
X136532000Y-232003524D01*
X136382000Y-232108286D01*
X136282000Y-232265429D01*
X136232000Y-232474952D01*
X136282000Y-232684476D01*
X136382000Y-232841619D01*
X136532000Y-232946381D01*
X136732000Y-232998762D01*
X136932000Y-232946381D01*
X137082000Y-232841619D01*
X137632000Y-232841619D02*
X137632000Y-232108286D01*
X137632000Y-232213048D02*
X137682000Y-232160667D01*
X137782000Y-232108286D01*
X137932000Y-232108286D01*
X138032000Y-232160667D01*
X138082000Y-232265429D01*
X138082000Y-232841619D01*
X138082000Y-232265429D02*
X138132000Y-232160667D01*
X138232000Y-232108286D01*
X138382000Y-232108286D01*
X138482000Y-232160667D01*
X138532000Y-232265429D01*
X138532000Y-232841619D01*
X138982000Y-232789238D02*
X139082000Y-232841619D01*
X139282000Y-232841619D01*
X139382000Y-232789238D01*
X139432000Y-232684476D01*
X139432000Y-232632095D01*
X139382000Y-232527333D01*
X139282000Y-232474952D01*
X139132000Y-232474952D01*
X139032000Y-232422571D01*
X138982000Y-232317810D01*
X138982000Y-232265429D01*
X139032000Y-232160667D01*
X139132000Y-232108286D01*
X139282000Y-232108286D01*
X139382000Y-232160667D01*
X139732000Y-232108286D02*
X140132000Y-232108286D01*
X139882000Y-231741619D02*
X139882000Y-232684476D01*
X139932000Y-232789238D01*
X140032000Y-232841619D01*
X140132000Y-232841619D01*
X140482000Y-232736857D02*
X140532000Y-232789238D01*
X140482000Y-232841619D01*
X140432000Y-232789238D01*
X140482000Y-232736857D01*
X140482000Y-232841619D01*
X141382000Y-232789238D02*
X141282000Y-232841619D01*
X141082000Y-232841619D01*
X140982000Y-232789238D01*
X140932000Y-232684476D01*
X140932000Y-232265429D01*
X140982000Y-232160667D01*
X141082000Y-232108286D01*
X141282000Y-232108286D01*
X141382000Y-232160667D01*
X141432000Y-232265429D01*
X141432000Y-232370190D01*
X140932000Y-232474952D01*
X142332000Y-232841619D02*
X142332000Y-231741619D01*
X142332000Y-232789238D02*
X142232000Y-232841619D01*
X142032000Y-232841619D01*
X141932000Y-232789238D01*
X141882000Y-232736857D01*
X141832000Y-232632095D01*
X141832000Y-232317810D01*
X141882000Y-232213048D01*
X141932000Y-232160667D01*
X142032000Y-232108286D01*
X142232000Y-232108286D01*
X142332000Y-232160667D01*
X143282000Y-232108286D02*
X143282000Y-232841619D01*
X142832000Y-232108286D02*
X142832000Y-232684476D01*
X142882000Y-232789238D01*
X142982000Y-232841619D01*
X143132000Y-232841619D01*
X143232000Y-232789238D01*
X143282000Y-232736857D01*
X143682000Y-233260667D02*
X143732000Y-233208286D01*
X143832000Y-233051143D01*
X143882000Y-232946381D01*
X143932000Y-232789238D01*
X143982000Y-232527333D01*
X143982000Y-232317810D01*
X143932000Y-232055905D01*
X143882000Y-231898762D01*
X143832000Y-231794000D01*
X143732000Y-231636857D01*
X143682000Y-231584476D01*
X144532000Y-232789238D02*
X144532000Y-232841619D01*
X144482000Y-232946381D01*
X144432000Y-232998762D01*
X145932000Y-232841619D02*
X145832000Y-232789238D01*
X145782000Y-232736857D01*
X145732000Y-232632095D01*
X145732000Y-232317810D01*
X145782000Y-232213048D01*
X145832000Y-232160667D01*
X145932000Y-232108286D01*
X146082000Y-232108286D01*
X146182000Y-232160667D01*
X146232000Y-232213048D01*
X146282000Y-232317810D01*
X146282000Y-232632095D01*
X146232000Y-232736857D01*
X146182000Y-232789238D01*
X146082000Y-232841619D01*
X145932000Y-232841619D01*
X146732000Y-232841619D02*
X146732000Y-232108286D01*
X146732000Y-232317810D02*
X146782000Y-232213048D01*
X146832000Y-232160667D01*
X146932000Y-232108286D01*
X147032000Y-232108286D01*
X148132000Y-232527333D02*
X148632000Y-232527333D01*
X148032000Y-232841619D02*
X148382000Y-231741619D01*
X148732000Y-232841619D01*
X149082000Y-232108286D02*
X149082000Y-232841619D01*
X149082000Y-232213048D02*
X149132000Y-232160667D01*
X149232000Y-232108286D01*
X149382000Y-232108286D01*
X149482000Y-232160667D01*
X149532000Y-232265429D01*
X149532000Y-232841619D01*
X150482000Y-232841619D02*
X150482000Y-231741619D01*
X150482000Y-232789238D02*
X150382000Y-232841619D01*
X150182000Y-232841619D01*
X150082000Y-232789238D01*
X150032000Y-232736857D01*
X149982000Y-232632095D01*
X149982000Y-232317810D01*
X150032000Y-232213048D01*
X150082000Y-232160667D01*
X150182000Y-232108286D01*
X150382000Y-232108286D01*
X150482000Y-232160667D01*
X150982000Y-232841619D02*
X150982000Y-232108286D01*
X150982000Y-232317810D02*
X151032000Y-232213048D01*
X151082000Y-232160667D01*
X151182000Y-232108286D01*
X151282000Y-232108286D01*
X152032000Y-232789238D02*
X151932000Y-232841619D01*
X151732000Y-232841619D01*
X151632000Y-232789238D01*
X151582000Y-232684476D01*
X151582000Y-232265429D01*
X151632000Y-232160667D01*
X151732000Y-232108286D01*
X151932000Y-232108286D01*
X152032000Y-232160667D01*
X152082000Y-232265429D01*
X152082000Y-232370190D01*
X151582000Y-232474952D01*
X152432000Y-232108286D02*
X152632000Y-232841619D01*
X152832000Y-232317810D01*
X153032000Y-232841619D01*
X153232000Y-232108286D01*
X154282000Y-231741619D02*
X154632000Y-232841619D01*
X154982000Y-231741619D01*
X155782000Y-232841619D02*
X155782000Y-232265429D01*
X155732000Y-232160667D01*
X155632000Y-232108286D01*
X155432000Y-232108286D01*
X155332000Y-232160667D01*
X155782000Y-232789238D02*
X155682000Y-232841619D01*
X155432000Y-232841619D01*
X155332000Y-232789238D01*
X155282000Y-232684476D01*
X155282000Y-232579714D01*
X155332000Y-232474952D01*
X155432000Y-232422571D01*
X155682000Y-232422571D01*
X155782000Y-232370190D01*
X156282000Y-232108286D02*
X156282000Y-232841619D01*
X156282000Y-232213048D02*
X156332000Y-232160667D01*
X156432000Y-232108286D01*
X156582000Y-232108286D01*
X156682000Y-232160667D01*
X156732000Y-232265429D01*
X156732000Y-232841619D01*
X158032000Y-232841619D02*
X158032000Y-231741619D01*
X158032000Y-232265429D02*
X158632000Y-232265429D01*
X158632000Y-232841619D02*
X158632000Y-231741619D01*
X159282000Y-232841619D02*
X159182000Y-232789238D01*
X159132000Y-232736857D01*
X159082000Y-232632095D01*
X159082000Y-232317810D01*
X159132000Y-232213048D01*
X159182000Y-232160667D01*
X159282000Y-232108286D01*
X159432000Y-232108286D01*
X159532000Y-232160667D01*
X159582000Y-232213048D01*
X159632000Y-232317810D01*
X159632000Y-232632095D01*
X159582000Y-232736857D01*
X159532000Y-232789238D01*
X159432000Y-232841619D01*
X159282000Y-232841619D01*
X160082000Y-232841619D02*
X160082000Y-232108286D01*
X160082000Y-232317810D02*
X160132000Y-232213048D01*
X160182000Y-232160667D01*
X160282000Y-232108286D01*
X160382000Y-232108286D01*
X160732000Y-232108286D02*
X160732000Y-232841619D01*
X160732000Y-232213048D02*
X160782000Y-232160667D01*
X160882000Y-232108286D01*
X161032000Y-232108286D01*
X161132000Y-232160667D01*
X161182000Y-232265429D01*
X161182000Y-232841619D01*
X162782000Y-233260667D02*
X162732000Y-233208286D01*
X162632000Y-233051143D01*
X162582000Y-232946381D01*
X162532000Y-232789238D01*
X162482000Y-232527333D01*
X162482000Y-232317810D01*
X162532000Y-232055905D01*
X162582000Y-231898762D01*
X162632000Y-231794000D01*
X162732000Y-231636857D01*
X162782000Y-231584476D01*
X163632000Y-232841619D02*
X163632000Y-232265429D01*
X163582000Y-232160667D01*
X163482000Y-232108286D01*
X163282000Y-232108286D01*
X163182000Y-232160667D01*
X163632000Y-232789238D02*
X163532000Y-232841619D01*
X163282000Y-232841619D01*
X163182000Y-232789238D01*
X163132000Y-232684476D01*
X163132000Y-232579714D01*
X163182000Y-232474952D01*
X163282000Y-232422571D01*
X163532000Y-232422571D01*
X163632000Y-232370190D01*
X164082000Y-232789238D02*
X164182000Y-232841619D01*
X164382000Y-232841619D01*
X164482000Y-232789238D01*
X164532000Y-232684476D01*
X164532000Y-232632095D01*
X164482000Y-232527333D01*
X164382000Y-232474952D01*
X164232000Y-232474952D01*
X164132000Y-232422571D01*
X164082000Y-232317810D01*
X164082000Y-232265429D01*
X164132000Y-232160667D01*
X164232000Y-232108286D01*
X164382000Y-232108286D01*
X164482000Y-232160667D01*
X164882000Y-232108286D02*
X165132000Y-232841619D01*
X165382000Y-232108286D01*
X166232000Y-232108286D02*
X166232000Y-232998762D01*
X166182000Y-233103524D01*
X166132000Y-233155905D01*
X166032000Y-233208286D01*
X165882000Y-233208286D01*
X165782000Y-233155905D01*
X166232000Y-232789238D02*
X166132000Y-232841619D01*
X165932000Y-232841619D01*
X165832000Y-232789238D01*
X165782000Y-232736857D01*
X165732000Y-232632095D01*
X165732000Y-232317810D01*
X165782000Y-232213048D01*
X165832000Y-232160667D01*
X165932000Y-232108286D01*
X166132000Y-232108286D01*
X166232000Y-232160667D01*
X167182000Y-232841619D02*
X167182000Y-231741619D01*
X167182000Y-232789238D02*
X167082000Y-232841619D01*
X166882000Y-232841619D01*
X166782000Y-232789238D01*
X166732000Y-232736857D01*
X166682000Y-232632095D01*
X166682000Y-232317810D01*
X166732000Y-232213048D01*
X166782000Y-232160667D01*
X166882000Y-232108286D01*
X167082000Y-232108286D01*
X167182000Y-232160667D01*
X167582000Y-232108286D02*
X167832000Y-232841619D01*
X168082000Y-232108286D01*
X169132000Y-232317810D02*
X169082000Y-232265429D01*
X168982000Y-232213048D01*
X168882000Y-232213048D01*
X168782000Y-232265429D01*
X168732000Y-232317810D01*
X168682000Y-232422571D01*
X168682000Y-232527333D01*
X168732000Y-232632095D01*
X168782000Y-232684476D01*
X168882000Y-232736857D01*
X168982000Y-232736857D01*
X169082000Y-232684476D01*
X169132000Y-232632095D01*
X169132000Y-232213048D02*
X169132000Y-232632095D01*
X169182000Y-232684476D01*
X169232000Y-232684476D01*
X169332000Y-232632095D01*
X169382000Y-232527333D01*
X169382000Y-232265429D01*
X169282000Y-232108286D01*
X169132000Y-232003524D01*
X168932000Y-231951143D01*
X168732000Y-232003524D01*
X168582000Y-232108286D01*
X168482000Y-232265429D01*
X168432000Y-232474952D01*
X168482000Y-232684476D01*
X168582000Y-232841619D01*
X168732000Y-232946381D01*
X168932000Y-232998762D01*
X169132000Y-232946381D01*
X169282000Y-232841619D01*
X169832000Y-232841619D02*
X169832000Y-232108286D01*
X169832000Y-232213048D02*
X169882000Y-232160667D01*
X169982000Y-232108286D01*
X170132000Y-232108286D01*
X170232000Y-232160667D01*
X170282000Y-232265429D01*
X170282000Y-232841619D01*
X170282000Y-232265429D02*
X170332000Y-232160667D01*
X170432000Y-232108286D01*
X170582000Y-232108286D01*
X170682000Y-232160667D01*
X170732000Y-232265429D01*
X170732000Y-232841619D01*
X171182000Y-232789238D02*
X171282000Y-232841619D01*
X171482000Y-232841619D01*
X171582000Y-232789238D01*
X171632000Y-232684476D01*
X171632000Y-232632095D01*
X171582000Y-232527333D01*
X171482000Y-232474952D01*
X171332000Y-232474952D01*
X171232000Y-232422571D01*
X171182000Y-232317810D01*
X171182000Y-232265429D01*
X171232000Y-232160667D01*
X171332000Y-232108286D01*
X171482000Y-232108286D01*
X171582000Y-232160667D01*
X171932000Y-232108286D02*
X172332000Y-232108286D01*
X172082000Y-231741619D02*
X172082000Y-232684476D01*
X172132000Y-232789238D01*
X172232000Y-232841619D01*
X172332000Y-232841619D01*
X172682000Y-232736857D02*
X172732000Y-232789238D01*
X172682000Y-232841619D01*
X172632000Y-232789238D01*
X172682000Y-232736857D01*
X172682000Y-232841619D01*
X173582000Y-232789238D02*
X173482000Y-232841619D01*
X173282000Y-232841619D01*
X173182000Y-232789238D01*
X173132000Y-232684476D01*
X173132000Y-232265429D01*
X173182000Y-232160667D01*
X173282000Y-232108286D01*
X173482000Y-232108286D01*
X173582000Y-232160667D01*
X173632000Y-232265429D01*
X173632000Y-232370190D01*
X173132000Y-232474952D01*
X174532000Y-232841619D02*
X174532000Y-231741619D01*
X174532000Y-232789238D02*
X174432000Y-232841619D01*
X174232000Y-232841619D01*
X174132000Y-232789238D01*
X174082000Y-232736857D01*
X174032000Y-232632095D01*
X174032000Y-232317810D01*
X174082000Y-232213048D01*
X174132000Y-232160667D01*
X174232000Y-232108286D01*
X174432000Y-232108286D01*
X174532000Y-232160667D01*
X175482000Y-232108286D02*
X175482000Y-232841619D01*
X175032000Y-232108286D02*
X175032000Y-232684476D01*
X175082000Y-232789238D01*
X175182000Y-232841619D01*
X175332000Y-232841619D01*
X175432000Y-232789238D01*
X175482000Y-232736857D01*
X175882000Y-233260667D02*
X175932000Y-233208286D01*
X176032000Y-233051143D01*
X176082000Y-232946381D01*
X176132000Y-232789238D01*
X176182000Y-232527333D01*
X176182000Y-232317810D01*
X176132000Y-232055905D01*
X176082000Y-231898762D01*
X176032000Y-231794000D01*
X175932000Y-231636857D01*
X175882000Y-231584476D01*
D13*
X144272000Y-172974000D02*
X144907000Y-172339000D01*
X143637000Y-172339000D02*
X144272000Y-172974000D01*
X144272000Y-172974000D02*
X143637000Y-172339000D01*
X144272000Y-167894000D02*
X144272000Y-172974000D01*
X144907000Y-168529000D02*
X144272000Y-167894000D01*
X144272000Y-167894000D02*
X144907000Y-168529000D01*
X143637000Y-168529000D02*
X144272000Y-167894000D01*
X144272000Y-167894000D02*
X143637000Y-168529000D01*
X144272000Y-170815000D02*
X144272000Y-167894000D01*
D14*
X135064501Y-169742757D02*
X135206015Y-169789929D01*
X135441872Y-169789929D01*
X135536215Y-169742757D01*
X135583386Y-169695586D01*
X135630558Y-169601243D01*
X135630558Y-169506900D01*
X135583386Y-169412557D01*
X135536215Y-169365386D01*
X135441872Y-169318214D01*
X135253186Y-169271043D01*
X135158844Y-169223871D01*
X135111672Y-169176700D01*
X135064501Y-169082357D01*
X135064501Y-168988014D01*
X135111672Y-168893671D01*
X135158844Y-168846500D01*
X135253186Y-168799329D01*
X135489044Y-168799329D01*
X135630558Y-168846500D01*
X135960758Y-168799329D02*
X136196615Y-169789929D01*
X136385301Y-169082357D01*
X136573987Y-169789929D01*
X136809844Y-168799329D01*
X137187215Y-169789929D02*
X137187215Y-168799329D01*
X137517415Y-168799329D02*
X138083472Y-168799329D01*
X137800443Y-169789929D02*
X137800443Y-168799329D01*
X138979729Y-169695586D02*
X138932558Y-169742757D01*
X138791044Y-169789929D01*
X138696701Y-169789929D01*
X138555186Y-169742757D01*
X138460844Y-169648414D01*
X138413672Y-169554071D01*
X138366501Y-169365386D01*
X138366501Y-169223871D01*
X138413672Y-169035186D01*
X138460844Y-168940843D01*
X138555186Y-168846500D01*
X138696701Y-168799329D01*
X138791044Y-168799329D01*
X138932558Y-168846500D01*
X138979729Y-168893671D01*
X139404272Y-169789929D02*
X139404272Y-168799329D01*
X139404272Y-169271043D02*
X139970329Y-169271043D01*
X139970329Y-169789929D02*
X139970329Y-168799329D01*
X135866414Y-170475729D02*
X136479643Y-170475729D01*
X136149443Y-170853100D01*
X136290957Y-170853100D01*
X136385300Y-170900271D01*
X136432471Y-170947443D01*
X136479643Y-171041786D01*
X136479643Y-171277643D01*
X136432471Y-171371986D01*
X136385300Y-171419157D01*
X136290957Y-171466329D01*
X136007929Y-171466329D01*
X135913586Y-171419157D01*
X135866414Y-171371986D01*
X136904186Y-171466329D02*
X136904186Y-170475729D01*
X137281558Y-170475729D01*
X137375900Y-170522900D01*
X137423072Y-170570071D01*
X137470243Y-170664414D01*
X137470243Y-170805929D01*
X137423072Y-170900271D01*
X137375900Y-170947443D01*
X137281558Y-170994614D01*
X136904186Y-170994614D01*
X138413672Y-171466329D02*
X137847615Y-171466329D01*
X138130643Y-171466329D02*
X138130643Y-170475729D01*
X138036300Y-170617243D01*
X137941958Y-170711586D01*
X137847615Y-170758757D01*
X138696701Y-170475729D02*
X139262758Y-170475729D01*
X138979729Y-171466329D02*
X138979729Y-170475729D01*
D11*
X127591715Y-179113571D02*
X127591715Y-177613571D01*
X128163143Y-177613571D01*
X128306001Y-177685000D01*
X128377429Y-177756429D01*
X128448858Y-177899286D01*
X128448858Y-178113571D01*
X128377429Y-178256429D01*
X128306001Y-178327857D01*
X128163143Y-178399286D01*
X127591715Y-178399286D01*
X129306001Y-179113571D02*
X129163143Y-179042143D01*
X129091715Y-178970714D01*
X129020286Y-178827857D01*
X129020286Y-178399286D01*
X129091715Y-178256429D01*
X129163143Y-178185000D01*
X129306001Y-178113571D01*
X129520286Y-178113571D01*
X129663143Y-178185000D01*
X129734572Y-178256429D01*
X129806001Y-178399286D01*
X129806001Y-178827857D01*
X129734572Y-178970714D01*
X129663143Y-179042143D01*
X129520286Y-179113571D01*
X129306001Y-179113571D01*
X130306001Y-178113571D02*
X130591715Y-179113571D01*
X130877429Y-178399286D01*
X131163144Y-179113571D01*
X131448858Y-178113571D01*
X132591715Y-179042143D02*
X132448858Y-179113571D01*
X132163144Y-179113571D01*
X132020287Y-179042143D01*
X131948858Y-178899286D01*
X131948858Y-178327857D01*
X132020287Y-178185000D01*
X132163144Y-178113571D01*
X132448858Y-178113571D01*
X132591715Y-178185000D01*
X132663144Y-178327857D01*
X132663144Y-178470714D01*
X131948858Y-178613571D01*
X133306001Y-179113571D02*
X133306001Y-178113571D01*
X133306001Y-178399286D02*
X133377429Y-178256429D01*
X133448858Y-178185000D01*
X133591715Y-178113571D01*
X133734572Y-178113571D01*
X126535571Y-198488856D02*
X126535571Y-199203142D01*
X125035571Y-199203142D01*
X126464143Y-198060285D02*
X126535571Y-197845999D01*
X126535571Y-197488856D01*
X126464143Y-197345999D01*
X126392714Y-197274570D01*
X126249857Y-197203142D01*
X126107000Y-197203142D01*
X125964143Y-197274570D01*
X125892714Y-197345999D01*
X125821286Y-197488856D01*
X125749857Y-197774570D01*
X125678429Y-197917428D01*
X125607000Y-197988856D01*
X125464143Y-198060285D01*
X125321286Y-198060285D01*
X125178429Y-197988856D01*
X125107000Y-197917428D01*
X125035571Y-197774570D01*
X125035571Y-197417428D01*
X125107000Y-197203142D01*
X125964143Y-196560285D02*
X125964143Y-195417428D01*
X125535571Y-194060285D02*
X126535571Y-194060285D01*
X124964143Y-194417428D02*
X126035571Y-194774571D01*
X126035571Y-193845999D01*
X126535571Y-190741856D02*
X126535571Y-191456142D01*
X125035571Y-191456142D01*
X126464143Y-190313285D02*
X126535571Y-190098999D01*
X126535571Y-189741856D01*
X126464143Y-189598999D01*
X126392714Y-189527570D01*
X126249857Y-189456142D01*
X126107000Y-189456142D01*
X125964143Y-189527570D01*
X125892714Y-189598999D01*
X125821286Y-189741856D01*
X125749857Y-190027570D01*
X125678429Y-190170428D01*
X125607000Y-190241856D01*
X125464143Y-190313285D01*
X125321286Y-190313285D01*
X125178429Y-190241856D01*
X125107000Y-190170428D01*
X125035571Y-190027570D01*
X125035571Y-189670428D01*
X125107000Y-189456142D01*
X125964143Y-188813285D02*
X125964143Y-187670428D01*
X125035571Y-187098999D02*
X125035571Y-186170428D01*
X125607000Y-186670428D01*
X125607000Y-186456142D01*
X125678429Y-186313285D01*
X125749857Y-186241856D01*
X125892714Y-186170428D01*
X126249857Y-186170428D01*
X126392714Y-186241856D01*
X126464143Y-186313285D01*
X126535571Y-186456142D01*
X126535571Y-186884714D01*
X126464143Y-187027571D01*
X126392714Y-187098999D01*
X126535571Y-182994856D02*
X126535571Y-183709142D01*
X125035571Y-183709142D01*
X126464143Y-182566285D02*
X126535571Y-182351999D01*
X126535571Y-181994856D01*
X126464143Y-181851999D01*
X126392714Y-181780570D01*
X126249857Y-181709142D01*
X126107000Y-181709142D01*
X125964143Y-181780570D01*
X125892714Y-181851999D01*
X125821286Y-181994856D01*
X125749857Y-182280570D01*
X125678429Y-182423428D01*
X125607000Y-182494856D01*
X125464143Y-182566285D01*
X125321286Y-182566285D01*
X125178429Y-182494856D01*
X125107000Y-182423428D01*
X125035571Y-182280570D01*
X125035571Y-181923428D01*
X125107000Y-181709142D01*
X125964143Y-181066285D02*
X125964143Y-179923428D01*
X125178429Y-179280571D02*
X125107000Y-179209142D01*
X125035571Y-179066285D01*
X125035571Y-178709142D01*
X125107000Y-178566285D01*
X125178429Y-178494856D01*
X125321286Y-178423428D01*
X125464143Y-178423428D01*
X125678429Y-178494856D01*
X126535571Y-179351999D01*
X126535571Y-178423428D01*
X126535571Y-175247856D02*
X126535571Y-175962142D01*
X125035571Y-175962142D01*
X126464143Y-174819285D02*
X126535571Y-174604999D01*
X126535571Y-174247856D01*
X126464143Y-174104999D01*
X126392714Y-174033570D01*
X126249857Y-173962142D01*
X126107000Y-173962142D01*
X125964143Y-174033570D01*
X125892714Y-174104999D01*
X125821286Y-174247856D01*
X125749857Y-174533570D01*
X125678429Y-174676428D01*
X125607000Y-174747856D01*
X125464143Y-174819285D01*
X125321286Y-174819285D01*
X125178429Y-174747856D01*
X125107000Y-174676428D01*
X125035571Y-174533570D01*
X125035571Y-174176428D01*
X125107000Y-173962142D01*
X125964143Y-173319285D02*
X125964143Y-172176428D01*
X126535571Y-170676428D02*
X126535571Y-171533571D01*
X126535571Y-171104999D02*
X125035571Y-171104999D01*
X125249857Y-171247856D01*
X125392714Y-171390714D01*
X125464143Y-171533571D01*
X166644429Y-146982571D02*
X166644429Y-145482571D01*
X167144429Y-146554000D01*
X167644429Y-145482571D01*
X167644429Y-146982571D01*
X168644429Y-145482571D02*
X168930143Y-145482571D01*
X169073001Y-145554000D01*
X169215858Y-145696857D01*
X169287286Y-145982571D01*
X169287286Y-146482571D01*
X169215858Y-146768286D01*
X169073001Y-146911143D01*
X168930143Y-146982571D01*
X168644429Y-146982571D01*
X168501572Y-146911143D01*
X168358715Y-146768286D01*
X168287286Y-146482571D01*
X168287286Y-145982571D01*
X168358715Y-145696857D01*
X168501572Y-145554000D01*
X168644429Y-145482571D01*
X169715858Y-145482571D02*
X170573001Y-145482571D01*
X170144430Y-146982571D02*
X170144430Y-145482571D01*
X171358715Y-145482571D02*
X171644429Y-145482571D01*
X171787287Y-145554000D01*
X171930144Y-145696857D01*
X172001572Y-145982571D01*
X172001572Y-146482571D01*
X171930144Y-146768286D01*
X171787287Y-146911143D01*
X171644429Y-146982571D01*
X171358715Y-146982571D01*
X171215858Y-146911143D01*
X171073001Y-146768286D01*
X171001572Y-146482571D01*
X171001572Y-145982571D01*
X171073001Y-145696857D01*
X171215858Y-145554000D01*
X171358715Y-145482571D01*
X173501573Y-146982571D02*
X173001573Y-146268286D01*
X172644430Y-146982571D02*
X172644430Y-145482571D01*
X173215858Y-145482571D01*
X173358716Y-145554000D01*
X173430144Y-145625429D01*
X173501573Y-145768286D01*
X173501573Y-145982571D01*
X173430144Y-146125429D01*
X173358716Y-146196857D01*
X173215858Y-146268286D01*
X172644430Y-146268286D01*
X175215858Y-145625429D02*
X175287287Y-145554000D01*
X175430144Y-145482571D01*
X175787287Y-145482571D01*
X175930144Y-145554000D01*
X176001573Y-145625429D01*
X176073001Y-145768286D01*
X176073001Y-145911143D01*
X176001573Y-146125429D01*
X175144430Y-146982571D01*
X176073001Y-146982571D01*
X121305429Y-146982571D02*
X121305429Y-145482571D01*
X121805429Y-146554000D01*
X122305429Y-145482571D01*
X122305429Y-146982571D01*
X123305429Y-145482571D02*
X123591143Y-145482571D01*
X123734001Y-145554000D01*
X123876858Y-145696857D01*
X123948286Y-145982571D01*
X123948286Y-146482571D01*
X123876858Y-146768286D01*
X123734001Y-146911143D01*
X123591143Y-146982571D01*
X123305429Y-146982571D01*
X123162572Y-146911143D01*
X123019715Y-146768286D01*
X122948286Y-146482571D01*
X122948286Y-145982571D01*
X123019715Y-145696857D01*
X123162572Y-145554000D01*
X123305429Y-145482571D01*
X124376858Y-145482571D02*
X125234001Y-145482571D01*
X124805430Y-146982571D02*
X124805430Y-145482571D01*
X126019715Y-145482571D02*
X126305429Y-145482571D01*
X126448287Y-145554000D01*
X126591144Y-145696857D01*
X126662572Y-145982571D01*
X126662572Y-146482571D01*
X126591144Y-146768286D01*
X126448287Y-146911143D01*
X126305429Y-146982571D01*
X126019715Y-146982571D01*
X125876858Y-146911143D01*
X125734001Y-146768286D01*
X125662572Y-146482571D01*
X125662572Y-145982571D01*
X125734001Y-145696857D01*
X125876858Y-145554000D01*
X126019715Y-145482571D01*
X128162573Y-146982571D02*
X127662573Y-146268286D01*
X127305430Y-146982571D02*
X127305430Y-145482571D01*
X127876858Y-145482571D01*
X128019716Y-145554000D01*
X128091144Y-145625429D01*
X128162573Y-145768286D01*
X128162573Y-145982571D01*
X128091144Y-146125429D01*
X128019716Y-146196857D01*
X127876858Y-146268286D01*
X127305430Y-146268286D01*
X130734001Y-146982571D02*
X129876858Y-146982571D01*
X130305430Y-146982571D02*
X130305430Y-145482571D01*
X130162573Y-145696857D01*
X130019715Y-145839714D01*
X129876858Y-145911143D01*
X142724143Y-174795571D02*
X142724143Y-173295571D01*
X143438429Y-173795571D02*
X143438429Y-174795571D01*
X143438429Y-173938429D02*
X143509857Y-173867000D01*
X143652715Y-173795571D01*
X143867000Y-173795571D01*
X144009857Y-173867000D01*
X144081286Y-174009857D01*
X144081286Y-174795571D01*
X145438429Y-174795571D02*
X145438429Y-173295571D01*
X145438429Y-174724143D02*
X145295572Y-174795571D01*
X145009858Y-174795571D01*
X144867000Y-174724143D01*
X144795572Y-174652714D01*
X144724143Y-174509857D01*
X144724143Y-174081286D01*
X144795572Y-173938429D01*
X144867000Y-173867000D01*
X145009858Y-173795571D01*
X145295572Y-173795571D01*
X145438429Y-173867000D01*
X146152715Y-174652714D02*
X146224143Y-174724143D01*
X146152715Y-174795571D01*
X146081286Y-174724143D01*
X146152715Y-174652714D01*
X146152715Y-174795571D01*
X142903287Y-167302571D02*
X142903287Y-165802571D01*
X143474715Y-165802571D01*
X143617573Y-165874000D01*
X143689001Y-165945429D01*
X143760430Y-166088286D01*
X143760430Y-166302571D01*
X143689001Y-166445429D01*
X143617573Y-166516857D01*
X143474715Y-166588286D01*
X142903287Y-166588286D01*
X145046144Y-167302571D02*
X145046144Y-166516857D01*
X144974715Y-166374000D01*
X144831858Y-166302571D01*
X144546144Y-166302571D01*
X144403287Y-166374000D01*
X145046144Y-167231143D02*
X144903287Y-167302571D01*
X144546144Y-167302571D01*
X144403287Y-167231143D01*
X144331858Y-167088286D01*
X144331858Y-166945429D01*
X144403287Y-166802571D01*
X144546144Y-166731143D01*
X144903287Y-166731143D01*
X145046144Y-166659714D01*
X145760430Y-167302571D02*
X145760430Y-166302571D01*
X145760430Y-166588286D02*
X145831858Y-166445429D01*
X145903287Y-166374000D01*
X146046144Y-166302571D01*
X146189001Y-166302571D01*
X147331858Y-167302571D02*
X147331858Y-166516857D01*
X147260429Y-166374000D01*
X147117572Y-166302571D01*
X146831858Y-166302571D01*
X146689001Y-166374000D01*
X147331858Y-167231143D02*
X147189001Y-167302571D01*
X146831858Y-167302571D01*
X146689001Y-167231143D01*
X146617572Y-167088286D01*
X146617572Y-166945429D01*
X146689001Y-166802571D01*
X146831858Y-166731143D01*
X147189001Y-166731143D01*
X147331858Y-166659714D01*
X148260430Y-167302571D02*
X148117572Y-167231143D01*
X148046144Y-167088286D01*
X148046144Y-165802571D01*
X149046144Y-167302571D02*
X148903286Y-167231143D01*
X148831858Y-167088286D01*
X148831858Y-165802571D01*
X150189000Y-167231143D02*
X150046143Y-167302571D01*
X149760429Y-167302571D01*
X149617572Y-167231143D01*
X149546143Y-167088286D01*
X149546143Y-166516857D01*
X149617572Y-166374000D01*
X149760429Y-166302571D01*
X150046143Y-166302571D01*
X150189000Y-166374000D01*
X150260429Y-166516857D01*
X150260429Y-166659714D01*
X149546143Y-166802571D01*
X151117572Y-167302571D02*
X150974714Y-167231143D01*
X150903286Y-167088286D01*
X150903286Y-165802571D01*
X135922143Y-192297857D02*
X136422143Y-192297857D01*
X136636429Y-193083571D02*
X135922143Y-193083571D01*
X135922143Y-191583571D01*
X136636429Y-191583571D01*
X137279286Y-193083571D02*
X137279286Y-191583571D01*
X138136429Y-193083571D01*
X138136429Y-191583571D01*
X139707858Y-192940714D02*
X139636429Y-193012143D01*
X139422143Y-193083571D01*
X139279286Y-193083571D01*
X139065001Y-193012143D01*
X138922143Y-192869286D01*
X138850715Y-192726429D01*
X138779286Y-192440714D01*
X138779286Y-192226429D01*
X138850715Y-191940714D01*
X138922143Y-191797857D01*
X139065001Y-191655000D01*
X139279286Y-191583571D01*
X139422143Y-191583571D01*
X139636429Y-191655000D01*
X139707858Y-191726429D01*
X142279286Y-193083571D02*
X141422143Y-193083571D01*
X141850715Y-193083571D02*
X141850715Y-191583571D01*
X141707858Y-191797857D01*
X141565000Y-191940714D01*
X141422143Y-192012143D01*
X147352143Y-192297857D02*
X147852143Y-192297857D01*
X148066429Y-193083571D02*
X147352143Y-193083571D01*
X147352143Y-191583571D01*
X148066429Y-191583571D01*
X148709286Y-193083571D02*
X148709286Y-191583571D01*
X149566429Y-193083571D01*
X149566429Y-191583571D01*
X151137858Y-192940714D02*
X151066429Y-193012143D01*
X150852143Y-193083571D01*
X150709286Y-193083571D01*
X150495001Y-193012143D01*
X150352143Y-192869286D01*
X150280715Y-192726429D01*
X150209286Y-192440714D01*
X150209286Y-192226429D01*
X150280715Y-191940714D01*
X150352143Y-191797857D01*
X150495001Y-191655000D01*
X150709286Y-191583571D01*
X150852143Y-191583571D01*
X151066429Y-191655000D01*
X151137858Y-191726429D01*
X152852143Y-191726429D02*
X152923572Y-191655000D01*
X153066429Y-191583571D01*
X153423572Y-191583571D01*
X153566429Y-191655000D01*
X153637858Y-191726429D01*
X153709286Y-191869286D01*
X153709286Y-192012143D01*
X153637858Y-192226429D01*
X152780715Y-193083571D01*
X153709286Y-193083571D01*
D15*
X143408400Y-208584800D02*
X143408400Y-203504800D01*
X143408400Y-203504800D02*
X118008400Y-203504800D01*
X118008400Y-203504800D02*
X118008400Y-208584800D01*
X118008400Y-208584800D02*
X143408400Y-208584800D01*
X143408400Y-165404800D02*
X143408400Y-160324800D01*
X143408400Y-160324800D02*
X118008400Y-160324800D01*
X118008400Y-160324800D02*
X118008400Y-165404800D01*
X118008400Y-165404800D02*
X143408400Y-165404800D01*
X157480000Y-193421000D02*
X147320000Y-193421000D01*
X157480000Y-194945000D02*
X157480000Y-193421000D01*
X147320000Y-193421000D02*
X147320000Y-194945000D01*
X147320000Y-200025000D02*
X157480000Y-200025000D01*
X157480000Y-194945000D02*
X147320000Y-194945000D01*
X147320000Y-200025000D02*
X147320000Y-194945000D01*
X157480000Y-200025000D02*
X157480000Y-194945000D01*
X140081000Y-180721000D02*
X142621000Y-178181000D01*
X142621000Y-178181000D02*
X147701000Y-178181000D01*
X147701000Y-178181000D02*
X150241000Y-180721000D01*
X150241000Y-180721000D02*
X150241000Y-185801000D01*
X150241000Y-185801000D02*
X147701000Y-188341000D01*
X147701000Y-188341000D02*
X142621000Y-188341000D01*
X142621000Y-188341000D02*
X140081000Y-185801000D01*
X140081000Y-185801000D02*
X140081000Y-180721000D01*
X152781000Y-188341000D02*
X152781000Y-178181000D01*
X136271000Y-188341000D02*
X136271000Y-178181000D01*
X136271000Y-178181000D02*
X152781000Y-178181000D01*
X152781000Y-188341000D02*
X136271000Y-188341000D01*
X118364000Y-184912000D02*
X118364000Y-177419000D01*
X118364000Y-177419000D02*
X119634000Y-177419000D01*
X119634000Y-184912000D02*
X118364000Y-184912000D01*
X124714000Y-177419000D02*
X124714000Y-184912000D01*
X119634000Y-184912000D02*
X119634000Y-177419000D01*
X119634000Y-177419000D02*
X124714000Y-177419000D01*
X119634000Y-184912000D02*
X124714000Y-184912000D01*
D16*
X162550400Y-184612800D02*
X162550400Y-185312800D01*
X161350400Y-185312800D02*
X161350400Y-184612800D01*
D15*
X158292800Y-163931600D02*
G75*
G03X157632400Y-163271200I-660400J0D01*
G01*
X157632400Y-163271200D02*
G75*
G03X156972000Y-163931600I0J-660400D01*
G01*
D17*
X165684200Y-146646900D02*
X149580600Y-146646900D01*
X149580600Y-146646900D02*
X149580600Y-147646332D01*
X149580600Y-163944300D02*
X165684200Y-163944300D01*
X165684200Y-163944300D02*
X165684200Y-162944868D01*
X165684200Y-147646330D02*
X165684200Y-146646900D01*
X149580600Y-162944870D02*
X149580600Y-163944300D01*
D15*
X142748000Y-124206000D02*
X137363200Y-124206000D01*
X136296400Y-125272800D02*
G75*
G03X137363200Y-124206000I0J1066800D01*
G01*
X137363200Y-124206000D02*
G75*
G03X136296400Y-123139200I-1066800J0D01*
G01*
X136296400Y-125323600D02*
X136296400Y-126542800D01*
X136296400Y-123088400D02*
X136296400Y-121920000D01*
X145034000Y-124206000D02*
G75*
G03X145034000Y-124206000I-1117600J0D01*
G01*
X136296400Y-121920000D02*
X136296400Y-114173000D01*
X136296400Y-126492000D02*
X136296400Y-138785600D01*
X159664400Y-123063000D02*
X159664400Y-121843800D01*
X158521400Y-124206000D02*
G75*
G03X159664400Y-125349000I1143000J0D01*
G01*
X159664400Y-123063000D02*
G75*
G03X158521400Y-124206000I0J-1143000D01*
G01*
X143916400Y-126517400D02*
X143916400Y-125323600D01*
X146227800Y-124206000D02*
X145059400Y-124206000D01*
X143916400Y-121894600D02*
X143916400Y-123063000D01*
X159664400Y-126466600D02*
X159664400Y-125374400D01*
X158521400Y-124206000D02*
X157353000Y-124206000D01*
X149504400Y-124206000D02*
X150647400Y-124206000D01*
X151815800Y-114173000D02*
X151815800Y-123063000D01*
X154076400Y-124206000D02*
X152933400Y-124206000D01*
X151790400Y-126492000D02*
X151790400Y-125349000D01*
X149504400Y-124206000D02*
X146202400Y-124206000D01*
X151790400Y-126492000D02*
X151790400Y-138811000D01*
X154076400Y-124206000D02*
X157353000Y-124206000D01*
X152933400Y-124206000D02*
G75*
G03X152933400Y-124206000I-1143000J0D01*
G01*
X143916400Y-126492000D02*
X143916400Y-138811000D01*
X143916400Y-121920000D02*
X143916400Y-114173000D01*
X159664400Y-114173000D02*
X159664400Y-121920000D01*
X159664400Y-126492000D02*
X159664400Y-138811000D01*
X136294400Y-114169000D02*
X159666400Y-114169000D01*
X136294400Y-138807000D02*
X159666400Y-138807000D01*
X118008400Y-125323600D02*
G75*
G03X119126000Y-124206000I0J1117600D01*
G01*
X119126000Y-124206000D02*
G75*
G03X118008400Y-123088400I-1117600J0D01*
G01*
X133756400Y-114147600D02*
X118008400Y-114147600D01*
X133756400Y-138785600D02*
X118008400Y-138785600D01*
X133756400Y-123063000D02*
X133756400Y-121843800D01*
X132613400Y-124206000D02*
G75*
G03X133756400Y-125349000I1143000J0D01*
G01*
X133756400Y-123063000D02*
G75*
G03X132613400Y-124206000I0J-1143000D01*
G01*
X118008400Y-126517400D02*
X118008400Y-125323600D01*
X120319800Y-124206000D02*
X119151400Y-124206000D01*
X118008400Y-121894600D02*
X118008400Y-123063000D01*
X133756400Y-126466600D02*
X133756400Y-125374400D01*
X132613400Y-124206000D02*
X131445000Y-124206000D01*
X123596400Y-124206000D02*
X124739400Y-124206000D01*
X125907800Y-114173000D02*
X125907800Y-123063000D01*
X128168400Y-124206000D02*
X127025400Y-124206000D01*
X125882400Y-126492000D02*
X125882400Y-125349000D01*
X123596400Y-124206000D02*
X120294400Y-124206000D01*
X125882400Y-126492000D02*
X125882400Y-138785600D01*
X128168400Y-124206000D02*
X131445000Y-124206000D01*
X127025400Y-124206000D02*
G75*
G03X127025400Y-124206000I-1143000J0D01*
G01*
X118008400Y-126492000D02*
X118008400Y-138785600D01*
X118008400Y-121920000D02*
X118008400Y-114173000D01*
X133756400Y-114173000D02*
X133756400Y-121920000D01*
X133756400Y-126492000D02*
X133756400Y-138785600D01*
X161950400Y-125323600D02*
G75*
G03X163068000Y-124206000I0J1117600D01*
G01*
X163068000Y-124206000D02*
G75*
G03X161950400Y-123088400I-1117600J0D01*
G01*
X177698400Y-114147600D02*
X161950400Y-114147600D01*
X177698400Y-138785600D02*
X161950400Y-138785600D01*
X177698400Y-123063000D02*
X177698400Y-121843800D01*
X176555400Y-124206000D02*
G75*
G03X177698400Y-125349000I1143000J0D01*
G01*
X177698400Y-123063000D02*
G75*
G03X176555400Y-124206000I0J-1143000D01*
G01*
X161950400Y-126517400D02*
X161950400Y-125323600D01*
X164261800Y-124206000D02*
X163093400Y-124206000D01*
X161950400Y-121894600D02*
X161950400Y-123063000D01*
X177698400Y-126466600D02*
X177698400Y-125374400D01*
X176555400Y-124206000D02*
X175387000Y-124206000D01*
X167538400Y-124206000D02*
X168681400Y-124206000D01*
X169849800Y-114173000D02*
X169849800Y-123063000D01*
X172110400Y-124206000D02*
X170967400Y-124206000D01*
X169824400Y-126492000D02*
X169824400Y-125349000D01*
X167538400Y-124206000D02*
X164236400Y-124206000D01*
X169824400Y-126492000D02*
X169824400Y-138785600D01*
X172110400Y-124206000D02*
X175387000Y-124206000D01*
X170967400Y-124206000D02*
G75*
G03X170967400Y-124206000I-1143000J0D01*
G01*
X161950400Y-126492000D02*
X161950400Y-138785600D01*
X161950400Y-121920000D02*
X161950400Y-114173000D01*
X177698400Y-114173000D02*
X177698400Y-121920000D01*
X177698400Y-126492000D02*
X177698400Y-138785600D01*
D16*
X171399000Y-160001500D02*
X170399000Y-160001500D01*
X170399000Y-158641500D02*
X171399000Y-158641500D01*
X171358000Y-156953500D02*
X170358000Y-156953500D01*
X170358000Y-155593500D02*
X171358000Y-155593500D01*
X171358000Y-153969000D02*
X170358000Y-153969000D01*
X170358000Y-152609000D02*
X171358000Y-152609000D01*
X149918800Y-169195200D02*
X150918800Y-169195200D01*
X150918800Y-170555200D02*
X149918800Y-170555200D01*
X149918800Y-172192400D02*
X150918800Y-172192400D01*
X150918800Y-173552400D02*
X149918800Y-173552400D01*
X149918800Y-175138800D02*
X150918800Y-175138800D01*
X150918800Y-176498800D02*
X149918800Y-176498800D01*
D15*
X132715000Y-165481000D02*
X142367000Y-165481000D01*
X142367000Y-175133000D02*
X132715000Y-175133000D01*
X142367000Y-165481000D02*
X142367000Y-175133000D01*
X132715000Y-165481000D02*
X132715000Y-175133000D01*
X163118800Y-165201600D02*
G75*
G03X163779200Y-165862000I660400J0D01*
G01*
X163779200Y-165862000D02*
G75*
G03X164439600Y-165201600I0J660400D01*
G01*
D17*
X155727400Y-182486300D02*
X171831000Y-182486300D01*
X171831000Y-182486300D02*
X171831000Y-181486868D01*
X171831000Y-165188900D02*
X155727400Y-165188900D01*
X155727400Y-165188900D02*
X155727400Y-166188332D01*
X155727400Y-181486870D02*
X155727400Y-182486300D01*
X171831000Y-166188330D02*
X171831000Y-165188900D01*
D16*
X133766000Y-185704000D02*
X133766000Y-185004000D01*
X134966000Y-185004000D02*
X134966000Y-185704000D01*
X134966000Y-180818000D02*
X134966000Y-181518000D01*
X133766000Y-181518000D02*
X133766000Y-180818000D01*
X132670000Y-198620000D02*
X132670000Y-197620000D01*
X134030000Y-197620000D02*
X134030000Y-198620000D01*
X130892000Y-198620000D02*
X130892000Y-197620000D01*
X132252000Y-197620000D02*
X132252000Y-198620000D01*
X129114000Y-198620000D02*
X129114000Y-197620000D01*
X130474000Y-197620000D02*
X130474000Y-198620000D01*
X127336000Y-198620000D02*
X127336000Y-197620000D01*
X128696000Y-197620000D02*
X128696000Y-198620000D01*
D15*
X118364000Y-177165000D02*
X118364000Y-169672000D01*
X118364000Y-169672000D02*
X119634000Y-169672000D01*
X119634000Y-177165000D02*
X118364000Y-177165000D01*
X124714000Y-169672000D02*
X124714000Y-177165000D01*
X119634000Y-177165000D02*
X119634000Y-169672000D01*
X119634000Y-169672000D02*
X124714000Y-169672000D01*
X119634000Y-177165000D02*
X124714000Y-177165000D01*
X118364000Y-192659000D02*
X118364000Y-185166000D01*
X118364000Y-185166000D02*
X119634000Y-185166000D01*
X119634000Y-192659000D02*
X118364000Y-192659000D01*
X124714000Y-185166000D02*
X124714000Y-192659000D01*
X119634000Y-192659000D02*
X119634000Y-185166000D01*
X119634000Y-185166000D02*
X124714000Y-185166000D01*
X119634000Y-192659000D02*
X124714000Y-192659000D01*
X118364000Y-200406000D02*
X118364000Y-192913000D01*
X118364000Y-192913000D02*
X119634000Y-192913000D01*
X119634000Y-200406000D02*
X118364000Y-200406000D01*
X124714000Y-192913000D02*
X124714000Y-200406000D01*
X119634000Y-200406000D02*
X119634000Y-192913000D01*
X119634000Y-192913000D02*
X124714000Y-192913000D01*
X119634000Y-200406000D02*
X124714000Y-200406000D01*
D16*
X165446000Y-184562000D02*
X165446000Y-185262000D01*
X164246000Y-185262000D02*
X164246000Y-184562000D01*
X160264400Y-184663600D02*
X160264400Y-185363600D01*
X159064400Y-185363600D02*
X159064400Y-184663600D01*
X157318000Y-184689000D02*
X157318000Y-185389000D01*
X156118000Y-185389000D02*
X156118000Y-184689000D01*
X168367000Y-184562000D02*
X168367000Y-185262000D01*
X167167000Y-185262000D02*
X167167000Y-184562000D01*
D15*
X146050000Y-193421000D02*
X135890000Y-193421000D01*
X146050000Y-194945000D02*
X146050000Y-193421000D01*
X135890000Y-193421000D02*
X135890000Y-194945000D01*
X135890000Y-200025000D02*
X146050000Y-200025000D01*
X146050000Y-194945000D02*
X135890000Y-194945000D01*
X135890000Y-200025000D02*
X135890000Y-194945000D01*
X146050000Y-200025000D02*
X146050000Y-194945000D01*
D16*
X127975000Y-175089000D02*
X127975000Y-177209000D01*
X131175000Y-175089000D02*
X127975000Y-175089000D01*
X127975000Y-177209000D02*
X131175000Y-177209000D01*
X136347000Y-178226000D02*
X135347000Y-178226000D01*
X135347000Y-176866000D02*
X136347000Y-176866000D01*
D18*
G36*
X133679770Y-213406811D02*
X133669272Y-213430974D01*
X133635131Y-213482375D01*
X133615543Y-213510109D01*
X133578901Y-213564196D01*
X133543000Y-213623563D01*
X133505587Y-213692959D01*
X133464408Y-213777130D01*
X133417212Y-213880823D01*
X133361745Y-214008788D01*
X133295755Y-214165770D01*
X133237006Y-214307824D01*
X133187041Y-214430483D01*
X133125417Y-214583788D01*
X133054806Y-214760941D01*
X132977880Y-214955142D01*
X132897310Y-215159592D01*
X132815768Y-215367491D01*
X132735926Y-215572041D01*
X132660455Y-215766441D01*
X132592027Y-215943893D01*
X132533313Y-216097596D01*
X132521631Y-216128434D01*
X132499990Y-216185663D01*
X132387544Y-216031688D01*
X132337827Y-215967314D01*
X132295845Y-215919788D01*
X132267408Y-215895335D01*
X132259319Y-215894269D01*
X132248100Y-215914736D01*
X132220984Y-215968287D01*
X132179460Y-216051877D01*
X132125017Y-216162461D01*
X132059146Y-216296994D01*
X131983335Y-216452431D01*
X131899075Y-216625729D01*
X131807855Y-216813841D01*
X131711164Y-217013723D01*
X131672578Y-217093620D01*
X131450428Y-217553554D01*
X131244286Y-217979769D01*
X131052935Y-218374756D01*
X130875157Y-218741002D01*
X130709736Y-219080995D01*
X130555455Y-219397225D01*
X130411096Y-219692179D01*
X130275443Y-219968347D01*
X130147278Y-220228216D01*
X130025385Y-220474275D01*
X129908545Y-220709013D01*
X129795543Y-220934917D01*
X129731219Y-221062997D01*
X129644040Y-221237365D01*
X129569596Y-221387261D01*
X129505241Y-221516126D01*
X129448326Y-221627404D01*
X129396204Y-221724534D01*
X129346228Y-221810960D01*
X129295750Y-221890124D01*
X129242122Y-221965466D01*
X129182696Y-222040429D01*
X129114826Y-222118454D01*
X129035863Y-222202984D01*
X128943160Y-222297461D01*
X128834070Y-222405325D01*
X128705944Y-222530020D01*
X128556136Y-222674987D01*
X128381997Y-222843667D01*
X128300673Y-222922697D01*
X128153988Y-223066227D01*
X128010479Y-223208150D01*
X127873892Y-223344661D01*
X127747971Y-223471953D01*
X127636461Y-223586220D01*
X127543105Y-223683656D01*
X127471649Y-223760453D01*
X127430055Y-223807703D01*
X127316934Y-223940710D01*
X127179761Y-224097984D01*
X127022550Y-224275156D01*
X126849311Y-224467856D01*
X126664057Y-224671716D01*
X126470800Y-224882364D01*
X126273551Y-225095433D01*
X126076322Y-225306552D01*
X125883125Y-225511353D01*
X125697973Y-225705465D01*
X125524876Y-225884519D01*
X125496552Y-225913540D01*
X125400757Y-226011821D01*
X125315222Y-226100109D01*
X125243647Y-226174543D01*
X125189726Y-226231264D01*
X125157157Y-226266413D01*
X125148980Y-226276433D01*
X125173621Y-226285212D01*
X125229450Y-226301274D01*
X125308650Y-226322626D01*
X125403401Y-226347276D01*
X125505886Y-226373229D01*
X125608287Y-226398494D01*
X125702785Y-226421077D01*
X125781561Y-226438986D01*
X125811996Y-226445439D01*
X125940747Y-226469716D01*
X126034316Y-226482502D01*
X126095862Y-226484031D01*
X126128546Y-226474538D01*
X126133386Y-226469274D01*
X126152539Y-226450377D01*
X126195878Y-226412821D01*
X126256128Y-226362805D01*
X126299960Y-226327314D01*
X126456316Y-226201885D01*
X126139896Y-226500325D01*
X126207893Y-226512494D01*
X126328416Y-226529926D01*
X126472871Y-226544047D01*
X126635785Y-226554897D01*
X126811684Y-226562515D01*
X126995096Y-226566942D01*
X127180545Y-226568218D01*
X127362560Y-226566383D01*
X127535667Y-226561477D01*
X127694392Y-226553540D01*
X127833262Y-226542611D01*
X127946803Y-226528733D01*
X128029542Y-226511943D01*
X128065392Y-226498897D01*
X128088315Y-226475244D01*
X128128888Y-226420275D01*
X128184948Y-226337531D01*
X128254333Y-226230553D01*
X128334882Y-226102885D01*
X128424433Y-225958066D01*
X128520822Y-225799640D01*
X128621890Y-225631147D01*
X128725473Y-225456130D01*
X128829411Y-225278130D01*
X128931540Y-225100689D01*
X129029699Y-224927349D01*
X129082954Y-224831899D01*
X129167462Y-224682109D01*
X129258224Y-224525722D01*
X129349949Y-224371549D01*
X129437345Y-224228399D01*
X129515122Y-224105083D01*
X129564572Y-224030005D01*
X129638557Y-223917036D01*
X129724479Y-223779784D01*
X129815574Y-223629431D01*
X129905078Y-223477162D01*
X129986227Y-223334158D01*
X129994346Y-223319485D01*
X130093975Y-223143471D01*
X130191947Y-222980793D01*
X130295307Y-222820514D01*
X130411105Y-222651700D01*
X130543422Y-222467473D01*
X130826767Y-222071587D01*
X131094519Y-221680454D01*
X131352903Y-221284427D01*
X131608144Y-220873860D01*
X131866466Y-220439105D01*
X131986503Y-220231031D01*
X132058532Y-220107258D01*
X132124078Y-220000420D01*
X132189047Y-219902144D01*
X132259349Y-219804058D01*
X132340891Y-219697791D01*
X132439581Y-219574972D01*
X132509957Y-219489279D01*
X132607085Y-219371462D01*
X132703697Y-219253944D01*
X132794315Y-219143412D01*
X132873460Y-219046553D01*
X132935655Y-218970057D01*
X132961544Y-218937977D01*
X133023849Y-218861224D01*
X133102735Y-218765251D01*
X133188829Y-218661400D01*
X133272760Y-218561013D01*
X133286636Y-218544517D01*
X133354974Y-218461771D01*
X133412960Y-218388515D01*
X133456066Y-218330716D01*
X133479761Y-218294336D01*
X133482914Y-218286063D01*
X133477566Y-218255958D01*
X133463804Y-218201247D01*
X133445052Y-218133712D01*
X133424735Y-218065138D01*
X133406277Y-218007308D01*
X133393102Y-217972006D01*
X133390176Y-217966930D01*
X133372672Y-217975048D01*
X133335056Y-218004839D01*
X133288407Y-218047120D01*
X133242142Y-218088811D01*
X133220484Y-218102625D01*
X133224683Y-218087787D01*
X133225788Y-218085964D01*
X133253816Y-218037229D01*
X133288297Y-217973222D01*
X133301901Y-217946915D01*
X133329259Y-217895491D01*
X133346037Y-217875523D01*
X133359248Y-217882436D01*
X133370757Y-217901994D01*
X133381547Y-217918396D01*
X133395173Y-217924017D01*
X133416790Y-217915635D01*
X133451551Y-217890025D01*
X133504609Y-217843968D01*
X133581117Y-217774240D01*
X133593980Y-217762417D01*
X133820882Y-217555548D01*
X134023024Y-217375130D01*
X134203391Y-217218674D01*
X134364970Y-217083687D01*
X134510748Y-216967680D01*
X134643710Y-216868162D01*
X134766844Y-216782641D01*
X134775969Y-216776588D01*
X134939173Y-216675532D01*
X135078826Y-216603596D01*
X135194235Y-216561026D01*
X135284704Y-216548069D01*
X135349538Y-216564970D01*
X135357342Y-216570350D01*
X135378743Y-216589095D01*
X135374759Y-216598250D01*
X135339583Y-216601382D01*
X135306137Y-216601822D01*
X135216762Y-216615078D01*
X135128084Y-216657497D01*
X135124136Y-216659981D01*
X135053919Y-216709593D01*
X134962976Y-216781331D01*
X134858696Y-216868736D01*
X134748467Y-216965348D01*
X134639678Y-217064707D01*
X134539719Y-217160355D01*
X134465235Y-217235999D01*
X134403375Y-217301938D01*
X134325012Y-217386476D01*
X134234258Y-217485082D01*
X134135228Y-217593224D01*
X134032035Y-217706369D01*
X133928792Y-217819985D01*
X133829612Y-217929542D01*
X133738610Y-218030507D01*
X133659898Y-218118347D01*
X133597591Y-218188532D01*
X133555801Y-218236530D01*
X133542092Y-218253039D01*
X133497907Y-218309212D01*
X133552129Y-218553429D01*
X133596670Y-218765550D01*
X133631303Y-218959681D01*
X133657339Y-219147155D01*
X133676088Y-219339305D01*
X133688860Y-219547466D01*
X133696967Y-219782971D01*
X133697652Y-219811984D01*
X133700164Y-220137895D01*
X133691428Y-220435401D01*
X133670404Y-220714867D01*
X133636053Y-220986661D01*
X133587336Y-221261150D01*
X133523875Y-221545974D01*
X133385104Y-222034644D01*
X133209670Y-222508823D01*
X132998984Y-222966586D01*
X132754459Y-223406005D01*
X132477507Y-223825154D01*
X132169539Y-224222108D01*
X131831967Y-224594941D01*
X131466203Y-224941726D01*
X131073659Y-225260537D01*
X130655747Y-225549448D01*
X130533845Y-225625046D01*
X130117805Y-225856005D01*
X129682599Y-226058039D01*
X129234896Y-226228636D01*
X128781364Y-226365282D01*
X128328672Y-226465467D01*
X128280626Y-226473912D01*
X128175241Y-226495362D01*
X128107244Y-226517486D01*
X128074447Y-226540416D01*
X128056261Y-226566349D01*
X128018797Y-226620366D01*
X127965481Y-226697504D01*
X127899742Y-226792800D01*
X127825005Y-226901293D01*
X127766037Y-226986990D01*
X127546034Y-227299328D01*
X127339073Y-227577115D01*
X127142898Y-227822862D01*
X126955250Y-228039079D01*
X126773873Y-228228275D01*
X126596510Y-228392962D01*
X126420902Y-228535649D01*
X126288372Y-228630152D01*
X126171567Y-228701470D01*
X126037100Y-228772152D01*
X125897727Y-228836296D01*
X125766202Y-228887996D01*
X125663422Y-228919416D01*
X125499019Y-228948605D01*
X125321119Y-228961585D01*
X125147198Y-228957757D01*
X125019057Y-228941514D01*
X124781488Y-228876122D01*
X124553800Y-228771947D01*
X124336301Y-228629139D01*
X124261012Y-228568686D01*
X124202899Y-228523432D01*
X124155595Y-228499942D01*
X124101813Y-228491373D01*
X124063589Y-228490542D01*
X123794930Y-228474796D01*
X123522328Y-228429325D01*
X123457496Y-228411729D01*
X124939048Y-228411729D01*
X124966802Y-228429137D01*
X124992859Y-228437275D01*
X125030883Y-228441649D01*
X125096650Y-228443793D01*
X125177857Y-228443388D01*
X125203356Y-228442723D01*
X125320299Y-228434279D01*
X125416794Y-228414855D01*
X125499632Y-228385881D01*
X125635144Y-228324008D01*
X125756417Y-228253152D01*
X125874264Y-228165888D01*
X125999496Y-228054788D01*
X126043893Y-228012013D01*
X126109412Y-227946744D01*
X126158110Y-227895955D01*
X126186380Y-227863608D01*
X126190614Y-227853667D01*
X126185677Y-227856261D01*
X125978469Y-227984954D01*
X125799431Y-228087580D01*
X125647035Y-228165013D01*
X125639741Y-228168399D01*
X125532157Y-228214511D01*
X125408942Y-228261635D01*
X125281241Y-228306021D01*
X125160201Y-228343923D01*
X125056966Y-228371591D01*
X125002633Y-228382647D01*
X124951065Y-228395821D01*
X124939048Y-228411729D01*
X123457496Y-228411729D01*
X123255016Y-228356775D01*
X123002231Y-228259794D01*
X122773210Y-228141030D01*
X122713524Y-228103527D01*
X122644491Y-228063361D01*
X122576635Y-228032141D01*
X122537058Y-228019648D01*
X122484859Y-228004140D01*
X122411493Y-227976128D01*
X122331551Y-227941247D01*
X122319891Y-227935769D01*
X122159521Y-227837773D01*
X122159261Y-227837529D01*
X124111527Y-227837529D01*
X124118177Y-227853423D01*
X124136916Y-227874913D01*
X124141338Y-227879621D01*
X124166418Y-227904352D01*
X124191343Y-227919643D01*
X124223865Y-227925725D01*
X124271736Y-227922835D01*
X124342710Y-227911204D01*
X124444538Y-227891069D01*
X124454386Y-227889070D01*
X124536309Y-227870803D01*
X124630165Y-227847304D01*
X124728696Y-227820720D01*
X124824647Y-227793195D01*
X124910762Y-227766877D01*
X124979786Y-227743911D01*
X125024463Y-227726443D01*
X125037537Y-227716619D01*
X125037521Y-227716604D01*
X125015838Y-227716521D01*
X124964302Y-227722607D01*
X124892468Y-227733648D01*
X124861871Y-227738886D01*
X124774412Y-227752192D01*
X124661664Y-227766382D01*
X124538348Y-227779733D01*
X124422203Y-227790285D01*
X124298727Y-227800362D01*
X124210566Y-227808648D01*
X124153076Y-227816619D01*
X124121612Y-227825754D01*
X124111527Y-227837529D01*
X122159261Y-227837529D01*
X122020468Y-227707286D01*
X121904073Y-227546581D01*
X121811680Y-227357931D01*
X121744629Y-227143610D01*
X121704263Y-226905891D01*
X121702632Y-226890057D01*
X121688526Y-226803851D01*
X121663752Y-226701630D01*
X121633426Y-226604236D01*
X121630470Y-226596067D01*
X121552000Y-226354547D01*
X121541904Y-226315404D01*
X121932562Y-226315404D01*
X121941307Y-226458796D01*
X121950168Y-226546117D01*
X121968212Y-226617708D01*
X122001208Y-226692613D01*
X122026338Y-226739459D01*
X122196926Y-227015385D01*
X122382140Y-227255078D01*
X122583254Y-227460115D01*
X122667366Y-227531911D01*
X122787650Y-227629355D01*
X122917958Y-227616929D01*
X122985835Y-227609428D01*
X123035916Y-227601965D01*
X123056619Y-227596457D01*
X123060914Y-227591060D01*
X123057087Y-227583942D01*
X123038837Y-227570642D01*
X122999861Y-227546696D01*
X122933857Y-227507643D01*
X122917958Y-227498275D01*
X122698854Y-227350640D01*
X122502115Y-227178005D01*
X122324540Y-226976798D01*
X122162925Y-226743448D01*
X122032208Y-226510328D01*
X121932562Y-226315404D01*
X121541904Y-226315404D01*
X121480684Y-226078068D01*
X121417486Y-225771288D01*
X121363370Y-225438862D01*
X121321142Y-225102539D01*
X121311931Y-224997573D01*
X121304203Y-224869861D01*
X121298000Y-224725484D01*
X121293364Y-224570526D01*
X121290339Y-224411066D01*
X121288967Y-224253188D01*
X121289290Y-224102973D01*
X121291352Y-223966503D01*
X121295194Y-223849861D01*
X121300859Y-223759127D01*
X121308390Y-223700385D01*
X121311245Y-223689200D01*
X121322295Y-223658873D01*
X121328434Y-223657337D01*
X121331389Y-223688642D01*
X121332608Y-223739319D01*
X121339116Y-223898594D01*
X121353144Y-224087738D01*
X121373506Y-224297477D01*
X121399017Y-224518543D01*
X121428490Y-224741662D01*
X121460741Y-224957566D01*
X121494584Y-225156981D01*
X121528834Y-225330639D01*
X121545416Y-225403564D01*
X121576047Y-225525659D01*
X121608512Y-225646077D01*
X121640957Y-225758857D01*
X121671530Y-225858041D01*
X121698374Y-225937668D01*
X121719636Y-225991781D01*
X121733461Y-226014418D01*
X121735500Y-226014485D01*
X121753915Y-225982033D01*
X121763120Y-225918283D01*
X121763129Y-225830958D01*
X121753958Y-225727780D01*
X121735621Y-225616470D01*
X121734730Y-225612117D01*
X121705690Y-225462699D01*
X121682093Y-225319685D01*
X121663380Y-225176269D01*
X121648993Y-225025645D01*
X121638373Y-224861006D01*
X121630962Y-224675546D01*
X121626202Y-224462458D01*
X121623871Y-224260550D01*
X121620747Y-223870131D01*
X121736145Y-223870131D01*
X121738070Y-223948029D01*
X121742047Y-224045022D01*
X121747727Y-224154151D01*
X121754760Y-224268457D01*
X121762798Y-224380978D01*
X121771493Y-224484757D01*
X121777014Y-224541213D01*
X121788150Y-224635311D01*
X121802947Y-224743212D01*
X121820088Y-224857044D01*
X121838256Y-224968937D01*
X121856136Y-225071018D01*
X121872411Y-225155418D01*
X121885765Y-225214264D01*
X121893483Y-225237695D01*
X121904307Y-225229553D01*
X121924162Y-225189399D01*
X121950334Y-225123557D01*
X121980110Y-225038351D01*
X121983773Y-225027198D01*
X122028874Y-224892700D01*
X122069207Y-224779757D01*
X122103245Y-224692209D01*
X122129463Y-224633897D01*
X122146335Y-224608661D01*
X122150061Y-224608622D01*
X122149387Y-224630329D01*
X122141402Y-224683427D01*
X122127428Y-224760154D01*
X122108790Y-224852747D01*
X122106911Y-224861678D01*
X122081314Y-224988071D01*
X122054052Y-225131090D01*
X122029088Y-225269576D01*
X122016246Y-225345468D01*
X121977218Y-225584690D01*
X122038137Y-225759597D01*
X122089112Y-225893721D01*
X122152146Y-226040799D01*
X122221929Y-226189783D01*
X122293154Y-226329626D01*
X122360511Y-226449284D01*
X122398115Y-226508655D01*
X122493713Y-226635266D01*
X122609724Y-226765695D01*
X122733993Y-226887321D01*
X122854364Y-226987523D01*
X122871042Y-226999717D01*
X122931717Y-227039615D01*
X123006434Y-227083573D01*
X123087188Y-227127542D01*
X123165972Y-227167474D01*
X123234780Y-227199320D01*
X123285605Y-227219032D01*
X123310442Y-227222559D01*
X123310929Y-227222170D01*
X123307238Y-227201328D01*
X123289903Y-227153744D01*
X123262450Y-227088908D01*
X123256351Y-227075355D01*
X123197164Y-226939149D01*
X123130583Y-226776110D01*
X123060968Y-226597739D01*
X122992677Y-226415537D01*
X122930068Y-226241005D01*
X122877500Y-226085645D01*
X122858179Y-226024717D01*
X122824770Y-225913045D01*
X122788724Y-225786832D01*
X122751663Y-225652378D01*
X122715208Y-225515986D01*
X122680983Y-225383956D01*
X122650609Y-225262589D01*
X122625709Y-225158186D01*
X122607904Y-225077049D01*
X122598817Y-225025479D01*
X122597992Y-225014052D01*
X122605301Y-225021733D01*
X122625690Y-225062710D01*
X122657436Y-225133018D01*
X122698814Y-225228692D01*
X122748102Y-225345766D01*
X122803575Y-225480274D01*
X122845566Y-225583675D01*
X122933604Y-225800039D01*
X123011009Y-225985799D01*
X123081050Y-226147959D01*
X123146999Y-226293521D01*
X123212124Y-226429490D01*
X123279695Y-226562868D01*
X123352983Y-226700660D01*
X123435256Y-226849868D01*
X123444145Y-226865761D01*
X123524104Y-227007527D01*
X123587883Y-227117685D01*
X123638131Y-227200020D01*
X123677500Y-227258322D01*
X123708642Y-227296377D01*
X123734206Y-227317974D01*
X123756844Y-227326900D01*
X123767527Y-227327795D01*
X123803861Y-227317117D01*
X123863729Y-227288295D01*
X123937801Y-227246151D01*
X123993477Y-227211062D01*
X124075195Y-227154836D01*
X124176398Y-227081341D01*
X124285782Y-226998988D01*
X124392041Y-226916188D01*
X124421677Y-226892472D01*
X124440894Y-226876730D01*
X125604304Y-226876730D01*
X125614327Y-226886753D01*
X125624351Y-226876730D01*
X125614327Y-226866706D01*
X125604304Y-226876730D01*
X124440894Y-226876730D01*
X124461585Y-226859781D01*
X125644398Y-226859781D01*
X125659723Y-226855984D01*
X125705530Y-226826612D01*
X125781571Y-226771841D01*
X125887594Y-226691849D01*
X125941362Y-226650497D01*
X126008875Y-226596869D01*
X126061401Y-226552310D01*
X126092772Y-226522239D01*
X126098634Y-226512365D01*
X126080977Y-226520860D01*
X126038990Y-226549193D01*
X125979589Y-226592078D01*
X125909688Y-226644224D01*
X125836202Y-226700344D01*
X125766045Y-226755149D01*
X125706132Y-226803350D01*
X125663379Y-226839659D01*
X125644699Y-226858787D01*
X125644398Y-226859781D01*
X124461585Y-226859781D01*
X124507964Y-226821790D01*
X124602702Y-226742280D01*
X124701300Y-226658008D01*
X124799167Y-226573038D01*
X124891714Y-226491435D01*
X124974350Y-226417265D01*
X125042485Y-226354591D01*
X125091528Y-226307480D01*
X125116889Y-226279996D01*
X125119182Y-226274799D01*
X125099128Y-226266011D01*
X125048871Y-226246371D01*
X124975883Y-226218742D01*
X124887636Y-226185988D01*
X124883126Y-226184330D01*
X124416200Y-225992180D01*
X123965464Y-225765678D01*
X123533627Y-225506823D01*
X123123395Y-225217616D01*
X122737476Y-224900059D01*
X122378578Y-224556152D01*
X122049407Y-224187895D01*
X121866359Y-223954828D01*
X121815736Y-223888388D01*
X121773985Y-223836130D01*
X121746798Y-223805043D01*
X121739843Y-223799461D01*
X121736619Y-223818288D01*
X121736145Y-223870131D01*
X121620747Y-223870131D01*
X121618656Y-223609011D01*
X121484617Y-223388490D01*
X121239957Y-222947715D01*
X121031070Y-222489201D01*
X120857882Y-222012725D01*
X120720317Y-221518065D01*
X120618301Y-221004996D01*
X120569936Y-220652026D01*
X120560590Y-220540382D01*
X120553659Y-220397877D01*
X120549145Y-220233673D01*
X120547047Y-220056932D01*
X120547364Y-219876815D01*
X120550098Y-219702483D01*
X120555248Y-219543098D01*
X120562814Y-219407821D01*
X120569936Y-219328900D01*
X120648602Y-218802419D01*
X120763343Y-218293422D01*
X120914197Y-217801817D01*
X121101200Y-217327514D01*
X121324390Y-216870421D01*
X121583805Y-216430448D01*
X121879482Y-216007503D01*
X121993759Y-215860708D01*
X122095818Y-215739120D01*
X122220137Y-215600438D01*
X122358284Y-215453369D01*
X122501829Y-215306621D01*
X122642341Y-215168901D01*
X122771388Y-215048916D01*
X122827745Y-214999355D01*
X123230938Y-214679304D01*
X123654869Y-214393264D01*
X124098016Y-214141899D01*
X124558860Y-213925872D01*
X125035878Y-213745844D01*
X125527550Y-213602478D01*
X126032356Y-213496438D01*
X126396174Y-213444372D01*
X126545365Y-213430873D01*
X126723200Y-213420902D01*
X126919272Y-213414540D01*
X127123175Y-213411868D01*
X127324503Y-213412965D01*
X127512849Y-213417912D01*
X127677807Y-213426790D01*
X127759394Y-213433846D01*
X128278562Y-213506541D01*
X128781592Y-213615891D01*
X129268912Y-213762072D01*
X129740949Y-213945261D01*
X130198129Y-214165634D01*
X130640881Y-214423368D01*
X131069632Y-214718639D01*
X131297753Y-214895585D01*
X131385259Y-214969693D01*
X131489633Y-215063609D01*
X131604793Y-215171332D01*
X131724654Y-215286860D01*
X131843133Y-215404192D01*
X131954148Y-215517326D01*
X132051614Y-215620261D01*
X132129448Y-215706996D01*
X132169813Y-215755909D01*
X132212226Y-215808745D01*
X132244840Y-215846157D01*
X132260026Y-215859681D01*
X132271114Y-215842592D01*
X132297941Y-215793833D01*
X132338322Y-215717596D01*
X132390069Y-215618075D01*
X132450997Y-215499465D01*
X132518919Y-215365958D01*
X132565318Y-215274100D01*
X132709183Y-214991442D01*
X132847542Y-214725393D01*
X132979196Y-214478027D01*
X133102946Y-214251419D01*
X133217594Y-214047643D01*
X133321941Y-213868774D01*
X133414787Y-213716887D01*
X133494935Y-213594055D01*
X133561186Y-213502354D01*
X133612340Y-213443859D01*
X133632472Y-213427320D01*
X133667284Y-213406666D01*
X133679770Y-213406811D01*
X133679770Y-213406811D01*
G37*
X133679770Y-213406811D02*
X133669272Y-213430974D01*
X133635131Y-213482375D01*
X133615543Y-213510109D01*
X133578901Y-213564196D01*
X133543000Y-213623563D01*
X133505587Y-213692959D01*
X133464408Y-213777130D01*
X133417212Y-213880823D01*
X133361745Y-214008788D01*
X133295755Y-214165770D01*
X133237006Y-214307824D01*
X133187041Y-214430483D01*
X133125417Y-214583788D01*
X133054806Y-214760941D01*
X132977880Y-214955142D01*
X132897310Y-215159592D01*
X132815768Y-215367491D01*
X132735926Y-215572041D01*
X132660455Y-215766441D01*
X132592027Y-215943893D01*
X132533313Y-216097596D01*
X132521631Y-216128434D01*
X132499990Y-216185663D01*
X132387544Y-216031688D01*
X132337827Y-215967314D01*
X132295845Y-215919788D01*
X132267408Y-215895335D01*
X132259319Y-215894269D01*
X132248100Y-215914736D01*
X132220984Y-215968287D01*
X132179460Y-216051877D01*
X132125017Y-216162461D01*
X132059146Y-216296994D01*
X131983335Y-216452431D01*
X131899075Y-216625729D01*
X131807855Y-216813841D01*
X131711164Y-217013723D01*
X131672578Y-217093620D01*
X131450428Y-217553554D01*
X131244286Y-217979769D01*
X131052935Y-218374756D01*
X130875157Y-218741002D01*
X130709736Y-219080995D01*
X130555455Y-219397225D01*
X130411096Y-219692179D01*
X130275443Y-219968347D01*
X130147278Y-220228216D01*
X130025385Y-220474275D01*
X129908545Y-220709013D01*
X129795543Y-220934917D01*
X129731219Y-221062997D01*
X129644040Y-221237365D01*
X129569596Y-221387261D01*
X129505241Y-221516126D01*
X129448326Y-221627404D01*
X129396204Y-221724534D01*
X129346228Y-221810960D01*
X129295750Y-221890124D01*
X129242122Y-221965466D01*
X129182696Y-222040429D01*
X129114826Y-222118454D01*
X129035863Y-222202984D01*
X128943160Y-222297461D01*
X128834070Y-222405325D01*
X128705944Y-222530020D01*
X128556136Y-222674987D01*
X128381997Y-222843667D01*
X128300673Y-222922697D01*
X128153988Y-223066227D01*
X128010479Y-223208150D01*
X127873892Y-223344661D01*
X127747971Y-223471953D01*
X127636461Y-223586220D01*
X127543105Y-223683656D01*
X127471649Y-223760453D01*
X127430055Y-223807703D01*
X127316934Y-223940710D01*
X127179761Y-224097984D01*
X127022550Y-224275156D01*
X126849311Y-224467856D01*
X126664057Y-224671716D01*
X126470800Y-224882364D01*
X126273551Y-225095433D01*
X126076322Y-225306552D01*
X125883125Y-225511353D01*
X125697973Y-225705465D01*
X125524876Y-225884519D01*
X125496552Y-225913540D01*
X125400757Y-226011821D01*
X125315222Y-226100109D01*
X125243647Y-226174543D01*
X125189726Y-226231264D01*
X125157157Y-226266413D01*
X125148980Y-226276433D01*
X125173621Y-226285212D01*
X125229450Y-226301274D01*
X125308650Y-226322626D01*
X125403401Y-226347276D01*
X125505886Y-226373229D01*
X125608287Y-226398494D01*
X125702785Y-226421077D01*
X125781561Y-226438986D01*
X125811996Y-226445439D01*
X125940747Y-226469716D01*
X126034316Y-226482502D01*
X126095862Y-226484031D01*
X126128546Y-226474538D01*
X126133386Y-226469274D01*
X126152539Y-226450377D01*
X126195878Y-226412821D01*
X126256128Y-226362805D01*
X126299960Y-226327314D01*
X126456316Y-226201885D01*
X126139896Y-226500325D01*
X126207893Y-226512494D01*
X126328416Y-226529926D01*
X126472871Y-226544047D01*
X126635785Y-226554897D01*
X126811684Y-226562515D01*
X126995096Y-226566942D01*
X127180545Y-226568218D01*
X127362560Y-226566383D01*
X127535667Y-226561477D01*
X127694392Y-226553540D01*
X127833262Y-226542611D01*
X127946803Y-226528733D01*
X128029542Y-226511943D01*
X128065392Y-226498897D01*
X128088315Y-226475244D01*
X128128888Y-226420275D01*
X128184948Y-226337531D01*
X128254333Y-226230553D01*
X128334882Y-226102885D01*
X128424433Y-225958066D01*
X128520822Y-225799640D01*
X128621890Y-225631147D01*
X128725473Y-225456130D01*
X128829411Y-225278130D01*
X128931540Y-225100689D01*
X129029699Y-224927349D01*
X129082954Y-224831899D01*
X129167462Y-224682109D01*
X129258224Y-224525722D01*
X129349949Y-224371549D01*
X129437345Y-224228399D01*
X129515122Y-224105083D01*
X129564572Y-224030005D01*
X129638557Y-223917036D01*
X129724479Y-223779784D01*
X129815574Y-223629431D01*
X129905078Y-223477162D01*
X129986227Y-223334158D01*
X129994346Y-223319485D01*
X130093975Y-223143471D01*
X130191947Y-222980793D01*
X130295307Y-222820514D01*
X130411105Y-222651700D01*
X130543422Y-222467473D01*
X130826767Y-222071587D01*
X131094519Y-221680454D01*
X131352903Y-221284427D01*
X131608144Y-220873860D01*
X131866466Y-220439105D01*
X131986503Y-220231031D01*
X132058532Y-220107258D01*
X132124078Y-220000420D01*
X132189047Y-219902144D01*
X132259349Y-219804058D01*
X132340891Y-219697791D01*
X132439581Y-219574972D01*
X132509957Y-219489279D01*
X132607085Y-219371462D01*
X132703697Y-219253944D01*
X132794315Y-219143412D01*
X132873460Y-219046553D01*
X132935655Y-218970057D01*
X132961544Y-218937977D01*
X133023849Y-218861224D01*
X133102735Y-218765251D01*
X133188829Y-218661400D01*
X133272760Y-218561013D01*
X133286636Y-218544517D01*
X133354974Y-218461771D01*
X133412960Y-218388515D01*
X133456066Y-218330716D01*
X133479761Y-218294336D01*
X133482914Y-218286063D01*
X133477566Y-218255958D01*
X133463804Y-218201247D01*
X133445052Y-218133712D01*
X133424735Y-218065138D01*
X133406277Y-218007308D01*
X133393102Y-217972006D01*
X133390176Y-217966930D01*
X133372672Y-217975048D01*
X133335056Y-218004839D01*
X133288407Y-218047120D01*
X133242142Y-218088811D01*
X133220484Y-218102625D01*
X133224683Y-218087787D01*
X133225788Y-218085964D01*
X133253816Y-218037229D01*
X133288297Y-217973222D01*
X133301901Y-217946915D01*
X133329259Y-217895491D01*
X133346037Y-217875523D01*
X133359248Y-217882436D01*
X133370757Y-217901994D01*
X133381547Y-217918396D01*
X133395173Y-217924017D01*
X133416790Y-217915635D01*
X133451551Y-217890025D01*
X133504609Y-217843968D01*
X133581117Y-217774240D01*
X133593980Y-217762417D01*
X133820882Y-217555548D01*
X134023024Y-217375130D01*
X134203391Y-217218674D01*
X134364970Y-217083687D01*
X134510748Y-216967680D01*
X134643710Y-216868162D01*
X134766844Y-216782641D01*
X134775969Y-216776588D01*
X134939173Y-216675532D01*
X135078826Y-216603596D01*
X135194235Y-216561026D01*
X135284704Y-216548069D01*
X135349538Y-216564970D01*
X135357342Y-216570350D01*
X135378743Y-216589095D01*
X135374759Y-216598250D01*
X135339583Y-216601382D01*
X135306137Y-216601822D01*
X135216762Y-216615078D01*
X135128084Y-216657497D01*
X135124136Y-216659981D01*
X135053919Y-216709593D01*
X134962976Y-216781331D01*
X134858696Y-216868736D01*
X134748467Y-216965348D01*
X134639678Y-217064707D01*
X134539719Y-217160355D01*
X134465235Y-217235999D01*
X134403375Y-217301938D01*
X134325012Y-217386476D01*
X134234258Y-217485082D01*
X134135228Y-217593224D01*
X134032035Y-217706369D01*
X133928792Y-217819985D01*
X133829612Y-217929542D01*
X133738610Y-218030507D01*
X133659898Y-218118347D01*
X133597591Y-218188532D01*
X133555801Y-218236530D01*
X133542092Y-218253039D01*
X133497907Y-218309212D01*
X133552129Y-218553429D01*
X133596670Y-218765550D01*
X133631303Y-218959681D01*
X133657339Y-219147155D01*
X133676088Y-219339305D01*
X133688860Y-219547466D01*
X133696967Y-219782971D01*
X133697652Y-219811984D01*
X133700164Y-220137895D01*
X133691428Y-220435401D01*
X133670404Y-220714867D01*
X133636053Y-220986661D01*
X133587336Y-221261150D01*
X133523875Y-221545974D01*
X133385104Y-222034644D01*
X133209670Y-222508823D01*
X132998984Y-222966586D01*
X132754459Y-223406005D01*
X132477507Y-223825154D01*
X132169539Y-224222108D01*
X131831967Y-224594941D01*
X131466203Y-224941726D01*
X131073659Y-225260537D01*
X130655747Y-225549448D01*
X130533845Y-225625046D01*
X130117805Y-225856005D01*
X129682599Y-226058039D01*
X129234896Y-226228636D01*
X128781364Y-226365282D01*
X128328672Y-226465467D01*
X128280626Y-226473912D01*
X128175241Y-226495362D01*
X128107244Y-226517486D01*
X128074447Y-226540416D01*
X128056261Y-226566349D01*
X128018797Y-226620366D01*
X127965481Y-226697504D01*
X127899742Y-226792800D01*
X127825005Y-226901293D01*
X127766037Y-226986990D01*
X127546034Y-227299328D01*
X127339073Y-227577115D01*
X127142898Y-227822862D01*
X126955250Y-228039079D01*
X126773873Y-228228275D01*
X126596510Y-228392962D01*
X126420902Y-228535649D01*
X126288372Y-228630152D01*
X126171567Y-228701470D01*
X126037100Y-228772152D01*
X125897727Y-228836296D01*
X125766202Y-228887996D01*
X125663422Y-228919416D01*
X125499019Y-228948605D01*
X125321119Y-228961585D01*
X125147198Y-228957757D01*
X125019057Y-228941514D01*
X124781488Y-228876122D01*
X124553800Y-228771947D01*
X124336301Y-228629139D01*
X124261012Y-228568686D01*
X124202899Y-228523432D01*
X124155595Y-228499942D01*
X124101813Y-228491373D01*
X124063589Y-228490542D01*
X123794930Y-228474796D01*
X123522328Y-228429325D01*
X123457496Y-228411729D01*
X124939048Y-228411729D01*
X124966802Y-228429137D01*
X124992859Y-228437275D01*
X125030883Y-228441649D01*
X125096650Y-228443793D01*
X125177857Y-228443388D01*
X125203356Y-228442723D01*
X125320299Y-228434279D01*
X125416794Y-228414855D01*
X125499632Y-228385881D01*
X125635144Y-228324008D01*
X125756417Y-228253152D01*
X125874264Y-228165888D01*
X125999496Y-228054788D01*
X126043893Y-228012013D01*
X126109412Y-227946744D01*
X126158110Y-227895955D01*
X126186380Y-227863608D01*
X126190614Y-227853667D01*
X126185677Y-227856261D01*
X125978469Y-227984954D01*
X125799431Y-228087580D01*
X125647035Y-228165013D01*
X125639741Y-228168399D01*
X125532157Y-228214511D01*
X125408942Y-228261635D01*
X125281241Y-228306021D01*
X125160201Y-228343923D01*
X125056966Y-228371591D01*
X125002633Y-228382647D01*
X124951065Y-228395821D01*
X124939048Y-228411729D01*
X123457496Y-228411729D01*
X123255016Y-228356775D01*
X123002231Y-228259794D01*
X122773210Y-228141030D01*
X122713524Y-228103527D01*
X122644491Y-228063361D01*
X122576635Y-228032141D01*
X122537058Y-228019648D01*
X122484859Y-228004140D01*
X122411493Y-227976128D01*
X122331551Y-227941247D01*
X122319891Y-227935769D01*
X122159521Y-227837773D01*
X122159261Y-227837529D01*
X124111527Y-227837529D01*
X124118177Y-227853423D01*
X124136916Y-227874913D01*
X124141338Y-227879621D01*
X124166418Y-227904352D01*
X124191343Y-227919643D01*
X124223865Y-227925725D01*
X124271736Y-227922835D01*
X124342710Y-227911204D01*
X124444538Y-227891069D01*
X124454386Y-227889070D01*
X124536309Y-227870803D01*
X124630165Y-227847304D01*
X124728696Y-227820720D01*
X124824647Y-227793195D01*
X124910762Y-227766877D01*
X124979786Y-227743911D01*
X125024463Y-227726443D01*
X125037537Y-227716619D01*
X125037521Y-227716604D01*
X125015838Y-227716521D01*
X124964302Y-227722607D01*
X124892468Y-227733648D01*
X124861871Y-227738886D01*
X124774412Y-227752192D01*
X124661664Y-227766382D01*
X124538348Y-227779733D01*
X124422203Y-227790285D01*
X124298727Y-227800362D01*
X124210566Y-227808648D01*
X124153076Y-227816619D01*
X124121612Y-227825754D01*
X124111527Y-227837529D01*
X122159261Y-227837529D01*
X122020468Y-227707286D01*
X121904073Y-227546581D01*
X121811680Y-227357931D01*
X121744629Y-227143610D01*
X121704263Y-226905891D01*
X121702632Y-226890057D01*
X121688526Y-226803851D01*
X121663752Y-226701630D01*
X121633426Y-226604236D01*
X121630470Y-226596067D01*
X121552000Y-226354547D01*
X121541904Y-226315404D01*
X121932562Y-226315404D01*
X121941307Y-226458796D01*
X121950168Y-226546117D01*
X121968212Y-226617708D01*
X122001208Y-226692613D01*
X122026338Y-226739459D01*
X122196926Y-227015385D01*
X122382140Y-227255078D01*
X122583254Y-227460115D01*
X122667366Y-227531911D01*
X122787650Y-227629355D01*
X122917958Y-227616929D01*
X122985835Y-227609428D01*
X123035916Y-227601965D01*
X123056619Y-227596457D01*
X123060914Y-227591060D01*
X123057087Y-227583942D01*
X123038837Y-227570642D01*
X122999861Y-227546696D01*
X122933857Y-227507643D01*
X122917958Y-227498275D01*
X122698854Y-227350640D01*
X122502115Y-227178005D01*
X122324540Y-226976798D01*
X122162925Y-226743448D01*
X122032208Y-226510328D01*
X121932562Y-226315404D01*
X121541904Y-226315404D01*
X121480684Y-226078068D01*
X121417486Y-225771288D01*
X121363370Y-225438862D01*
X121321142Y-225102539D01*
X121311931Y-224997573D01*
X121304203Y-224869861D01*
X121298000Y-224725484D01*
X121293364Y-224570526D01*
X121290339Y-224411066D01*
X121288967Y-224253188D01*
X121289290Y-224102973D01*
X121291352Y-223966503D01*
X121295194Y-223849861D01*
X121300859Y-223759127D01*
X121308390Y-223700385D01*
X121311245Y-223689200D01*
X121322295Y-223658873D01*
X121328434Y-223657337D01*
X121331389Y-223688642D01*
X121332608Y-223739319D01*
X121339116Y-223898594D01*
X121353144Y-224087738D01*
X121373506Y-224297477D01*
X121399017Y-224518543D01*
X121428490Y-224741662D01*
X121460741Y-224957566D01*
X121494584Y-225156981D01*
X121528834Y-225330639D01*
X121545416Y-225403564D01*
X121576047Y-225525659D01*
X121608512Y-225646077D01*
X121640957Y-225758857D01*
X121671530Y-225858041D01*
X121698374Y-225937668D01*
X121719636Y-225991781D01*
X121733461Y-226014418D01*
X121735500Y-226014485D01*
X121753915Y-225982033D01*
X121763120Y-225918283D01*
X121763129Y-225830958D01*
X121753958Y-225727780D01*
X121735621Y-225616470D01*
X121734730Y-225612117D01*
X121705690Y-225462699D01*
X121682093Y-225319685D01*
X121663380Y-225176269D01*
X121648993Y-225025645D01*
X121638373Y-224861006D01*
X121630962Y-224675546D01*
X121626202Y-224462458D01*
X121623871Y-224260550D01*
X121620747Y-223870131D01*
X121736145Y-223870131D01*
X121738070Y-223948029D01*
X121742047Y-224045022D01*
X121747727Y-224154151D01*
X121754760Y-224268457D01*
X121762798Y-224380978D01*
X121771493Y-224484757D01*
X121777014Y-224541213D01*
X121788150Y-224635311D01*
X121802947Y-224743212D01*
X121820088Y-224857044D01*
X121838256Y-224968937D01*
X121856136Y-225071018D01*
X121872411Y-225155418D01*
X121885765Y-225214264D01*
X121893483Y-225237695D01*
X121904307Y-225229553D01*
X121924162Y-225189399D01*
X121950334Y-225123557D01*
X121980110Y-225038351D01*
X121983773Y-225027198D01*
X122028874Y-224892700D01*
X122069207Y-224779757D01*
X122103245Y-224692209D01*
X122129463Y-224633897D01*
X122146335Y-224608661D01*
X122150061Y-224608622D01*
X122149387Y-224630329D01*
X122141402Y-224683427D01*
X122127428Y-224760154D01*
X122108790Y-224852747D01*
X122106911Y-224861678D01*
X122081314Y-224988071D01*
X122054052Y-225131090D01*
X122029088Y-225269576D01*
X122016246Y-225345468D01*
X121977218Y-225584690D01*
X122038137Y-225759597D01*
X122089112Y-225893721D01*
X122152146Y-226040799D01*
X122221929Y-226189783D01*
X122293154Y-226329626D01*
X122360511Y-226449284D01*
X122398115Y-226508655D01*
X122493713Y-226635266D01*
X122609724Y-226765695D01*
X122733993Y-226887321D01*
X122854364Y-226987523D01*
X122871042Y-226999717D01*
X122931717Y-227039615D01*
X123006434Y-227083573D01*
X123087188Y-227127542D01*
X123165972Y-227167474D01*
X123234780Y-227199320D01*
X123285605Y-227219032D01*
X123310442Y-227222559D01*
X123310929Y-227222170D01*
X123307238Y-227201328D01*
X123289903Y-227153744D01*
X123262450Y-227088908D01*
X123256351Y-227075355D01*
X123197164Y-226939149D01*
X123130583Y-226776110D01*
X123060968Y-226597739D01*
X122992677Y-226415537D01*
X122930068Y-226241005D01*
X122877500Y-226085645D01*
X122858179Y-226024717D01*
X122824770Y-225913045D01*
X122788724Y-225786832D01*
X122751663Y-225652378D01*
X122715208Y-225515986D01*
X122680983Y-225383956D01*
X122650609Y-225262589D01*
X122625709Y-225158186D01*
X122607904Y-225077049D01*
X122598817Y-225025479D01*
X122597992Y-225014052D01*
X122605301Y-225021733D01*
X122625690Y-225062710D01*
X122657436Y-225133018D01*
X122698814Y-225228692D01*
X122748102Y-225345766D01*
X122803575Y-225480274D01*
X122845566Y-225583675D01*
X122933604Y-225800039D01*
X123011009Y-225985799D01*
X123081050Y-226147959D01*
X123146999Y-226293521D01*
X123212124Y-226429490D01*
X123279695Y-226562868D01*
X123352983Y-226700660D01*
X123435256Y-226849868D01*
X123444145Y-226865761D01*
X123524104Y-227007527D01*
X123587883Y-227117685D01*
X123638131Y-227200020D01*
X123677500Y-227258322D01*
X123708642Y-227296377D01*
X123734206Y-227317974D01*
X123756844Y-227326900D01*
X123767527Y-227327795D01*
X123803861Y-227317117D01*
X123863729Y-227288295D01*
X123937801Y-227246151D01*
X123993477Y-227211062D01*
X124075195Y-227154836D01*
X124176398Y-227081341D01*
X124285782Y-226998988D01*
X124392041Y-226916188D01*
X124421677Y-226892472D01*
X124440894Y-226876730D01*
X125604304Y-226876730D01*
X125614327Y-226886753D01*
X125624351Y-226876730D01*
X125614327Y-226866706D01*
X125604304Y-226876730D01*
X124440894Y-226876730D01*
X124461585Y-226859781D01*
X125644398Y-226859781D01*
X125659723Y-226855984D01*
X125705530Y-226826612D01*
X125781571Y-226771841D01*
X125887594Y-226691849D01*
X125941362Y-226650497D01*
X126008875Y-226596869D01*
X126061401Y-226552310D01*
X126092772Y-226522239D01*
X126098634Y-226512365D01*
X126080977Y-226520860D01*
X126038990Y-226549193D01*
X125979589Y-226592078D01*
X125909688Y-226644224D01*
X125836202Y-226700344D01*
X125766045Y-226755149D01*
X125706132Y-226803350D01*
X125663379Y-226839659D01*
X125644699Y-226858787D01*
X125644398Y-226859781D01*
X124461585Y-226859781D01*
X124507964Y-226821790D01*
X124602702Y-226742280D01*
X124701300Y-226658008D01*
X124799167Y-226573038D01*
X124891714Y-226491435D01*
X124974350Y-226417265D01*
X125042485Y-226354591D01*
X125091528Y-226307480D01*
X125116889Y-226279996D01*
X125119182Y-226274799D01*
X125099128Y-226266011D01*
X125048871Y-226246371D01*
X124975883Y-226218742D01*
X124887636Y-226185988D01*
X124883126Y-226184330D01*
X124416200Y-225992180D01*
X123965464Y-225765678D01*
X123533627Y-225506823D01*
X123123395Y-225217616D01*
X122737476Y-224900059D01*
X122378578Y-224556152D01*
X122049407Y-224187895D01*
X121866359Y-223954828D01*
X121815736Y-223888388D01*
X121773985Y-223836130D01*
X121746798Y-223805043D01*
X121739843Y-223799461D01*
X121736619Y-223818288D01*
X121736145Y-223870131D01*
X121620747Y-223870131D01*
X121618656Y-223609011D01*
X121484617Y-223388490D01*
X121239957Y-222947715D01*
X121031070Y-222489201D01*
X120857882Y-222012725D01*
X120720317Y-221518065D01*
X120618301Y-221004996D01*
X120569936Y-220652026D01*
X120560590Y-220540382D01*
X120553659Y-220397877D01*
X120549145Y-220233673D01*
X120547047Y-220056932D01*
X120547364Y-219876815D01*
X120550098Y-219702483D01*
X120555248Y-219543098D01*
X120562814Y-219407821D01*
X120569936Y-219328900D01*
X120648602Y-218802419D01*
X120763343Y-218293422D01*
X120914197Y-217801817D01*
X121101200Y-217327514D01*
X121324390Y-216870421D01*
X121583805Y-216430448D01*
X121879482Y-216007503D01*
X121993759Y-215860708D01*
X122095818Y-215739120D01*
X122220137Y-215600438D01*
X122358284Y-215453369D01*
X122501829Y-215306621D01*
X122642341Y-215168901D01*
X122771388Y-215048916D01*
X122827745Y-214999355D01*
X123230938Y-214679304D01*
X123654869Y-214393264D01*
X124098016Y-214141899D01*
X124558860Y-213925872D01*
X125035878Y-213745844D01*
X125527550Y-213602478D01*
X126032356Y-213496438D01*
X126396174Y-213444372D01*
X126545365Y-213430873D01*
X126723200Y-213420902D01*
X126919272Y-213414540D01*
X127123175Y-213411868D01*
X127324503Y-213412965D01*
X127512849Y-213417912D01*
X127677807Y-213426790D01*
X127759394Y-213433846D01*
X128278562Y-213506541D01*
X128781592Y-213615891D01*
X129268912Y-213762072D01*
X129740949Y-213945261D01*
X130198129Y-214165634D01*
X130640881Y-214423368D01*
X131069632Y-214718639D01*
X131297753Y-214895585D01*
X131385259Y-214969693D01*
X131489633Y-215063609D01*
X131604793Y-215171332D01*
X131724654Y-215286860D01*
X131843133Y-215404192D01*
X131954148Y-215517326D01*
X132051614Y-215620261D01*
X132129448Y-215706996D01*
X132169813Y-215755909D01*
X132212226Y-215808745D01*
X132244840Y-215846157D01*
X132260026Y-215859681D01*
X132271114Y-215842592D01*
X132297941Y-215793833D01*
X132338322Y-215717596D01*
X132390069Y-215618075D01*
X132450997Y-215499465D01*
X132518919Y-215365958D01*
X132565318Y-215274100D01*
X132709183Y-214991442D01*
X132847542Y-214725393D01*
X132979196Y-214478027D01*
X133102946Y-214251419D01*
X133217594Y-214047643D01*
X133321941Y-213868774D01*
X133414787Y-213716887D01*
X133494935Y-213594055D01*
X133561186Y-213502354D01*
X133612340Y-213443859D01*
X133632472Y-213427320D01*
X133667284Y-213406666D01*
X133679770Y-213406811D01*
G36*
X131798937Y-218116035D02*
X131788913Y-218126059D01*
X131778889Y-218116035D01*
X131788913Y-218106012D01*
X131798937Y-218116035D01*
X131798937Y-218116035D01*
G37*
X131798937Y-218116035D02*
X131788913Y-218126059D01*
X131778889Y-218116035D01*
X131788913Y-218106012D01*
X131798937Y-218116035D01*
G36*
X140249896Y-208937364D02*
X140381117Y-208956290D01*
X140487956Y-208987351D01*
X140504253Y-208994407D01*
X140569655Y-209024715D01*
X140509513Y-209014541D01*
X140300196Y-208991066D01*
X140104137Y-208992629D01*
X139930244Y-209019134D01*
X139923063Y-209020916D01*
X139720424Y-209087555D01*
X139509259Y-209187412D01*
X139288850Y-209321073D01*
X139058476Y-209489123D01*
X138817416Y-209692149D01*
X138564951Y-209930738D01*
X138300360Y-210205476D01*
X138022922Y-210516949D01*
X137884674Y-210680039D01*
X137756595Y-210834726D01*
X137634234Y-210985569D01*
X137515674Y-211135339D01*
X137398997Y-211286810D01*
X137282286Y-211442751D01*
X137163623Y-211605936D01*
X137041092Y-211779136D01*
X136912773Y-211965123D01*
X136776751Y-212166669D01*
X136631107Y-212386545D01*
X136473924Y-212627524D01*
X136303284Y-212892377D01*
X136117270Y-213183876D01*
X135913965Y-213504793D01*
X135743114Y-213775783D01*
X135353504Y-214404057D01*
X134978770Y-215026898D01*
X134624937Y-215634254D01*
X134535886Y-215790542D01*
X134455409Y-215931746D01*
X134362172Y-216094150D01*
X134263853Y-216264458D01*
X134168127Y-216429373D01*
X134084135Y-216573103D01*
X134000477Y-216716510D01*
X133908709Y-216875325D01*
X133815914Y-217037192D01*
X133729173Y-217189754D01*
X133655570Y-217320655D01*
X133653215Y-217324879D01*
X133589738Y-217438571D01*
X133529519Y-217546068D01*
X133476564Y-217640244D01*
X133434882Y-217713974D01*
X133408476Y-217760135D01*
X133407645Y-217761564D01*
X133357215Y-217848135D01*
X133279388Y-217641280D01*
X133238568Y-217538977D01*
X133187818Y-217421482D01*
X133129684Y-217293792D01*
X133066713Y-217160899D01*
X133001450Y-217027801D01*
X132936441Y-216899490D01*
X132874233Y-216780962D01*
X132817371Y-216677212D01*
X132768402Y-216593235D01*
X132729871Y-216534025D01*
X132704324Y-216504577D01*
X132698774Y-216502223D01*
X132685304Y-216518984D01*
X132656388Y-216565461D01*
X132615363Y-216635947D01*
X132565563Y-216724734D01*
X132520112Y-216807945D01*
X132446723Y-216943318D01*
X132368028Y-217087554D01*
X132286422Y-217236346D01*
X132204303Y-217385386D01*
X132124068Y-217530364D01*
X132048113Y-217666974D01*
X131978834Y-217790907D01*
X131918629Y-217897855D01*
X131869894Y-217983510D01*
X131835026Y-218043564D01*
X131816421Y-218073708D01*
X131814709Y-218075940D01*
X131813319Y-218067140D01*
X131823975Y-218027615D01*
X131844652Y-217964184D01*
X131865332Y-217905538D01*
X131915554Y-217767544D01*
X131971380Y-217615317D01*
X132031214Y-217453107D01*
X132093461Y-217285163D01*
X132156526Y-217115736D01*
X132218812Y-216949076D01*
X132278723Y-216789433D01*
X132334665Y-216641057D01*
X132385041Y-216508198D01*
X132428256Y-216395105D01*
X132462713Y-216306030D01*
X132486819Y-216245222D01*
X132498976Y-216216931D01*
X132499836Y-216215546D01*
X132516745Y-216223386D01*
X132548460Y-216258479D01*
X132588907Y-216313849D01*
X132600178Y-216330819D01*
X132641994Y-216392621D01*
X132676076Y-216438624D01*
X132696325Y-216460712D01*
X132698410Y-216461555D01*
X132711103Y-216444489D01*
X132739639Y-216397000D01*
X132781163Y-216324134D01*
X132832823Y-216230939D01*
X132891766Y-216122459D01*
X132921588Y-216066851D01*
X132991820Y-215936087D01*
X133075905Y-215780714D01*
X133168172Y-215611138D01*
X133262949Y-215437770D01*
X133354564Y-215271017D01*
X133410173Y-215170305D01*
X133490896Y-215024217D01*
X133585719Y-214852200D01*
X133689546Y-214663526D01*
X133797279Y-214467465D01*
X133903823Y-214273289D01*
X134004080Y-214090269D01*
X134039032Y-214026375D01*
X134201475Y-213731646D01*
X134361033Y-213446741D01*
X134515976Y-213174559D01*
X134664576Y-212917999D01*
X134805105Y-212679962D01*
X134935834Y-212463346D01*
X135055035Y-212271052D01*
X135160980Y-212105979D01*
X135251941Y-211971026D01*
X135320645Y-211876303D01*
X135416883Y-211760260D01*
X135502714Y-211676827D01*
X135576716Y-211626797D01*
X135637466Y-211610966D01*
X135683542Y-211630126D01*
X135704953Y-211661730D01*
X135724799Y-211715281D01*
X135728215Y-211746765D01*
X135716920Y-211750969D01*
X135692636Y-211722682D01*
X135687512Y-211714550D01*
X135648827Y-211667563D01*
X135612886Y-211654430D01*
X135612410Y-211654515D01*
X135574734Y-211678564D01*
X135522554Y-211738614D01*
X135456504Y-211833541D01*
X135377218Y-211962221D01*
X135285330Y-212123527D01*
X135181474Y-212316335D01*
X135066283Y-212539521D01*
X134940393Y-212791958D01*
X134804436Y-213072522D01*
X134755916Y-213174362D01*
X134708132Y-213276182D01*
X134649809Y-213402305D01*
X134582415Y-213549431D01*
X134507418Y-213714261D01*
X134426284Y-213893496D01*
X134340481Y-214083836D01*
X134251478Y-214281981D01*
X134160740Y-214484634D01*
X134069736Y-214688493D01*
X133979934Y-214890261D01*
X133892800Y-215086637D01*
X133809803Y-215274322D01*
X133732409Y-215450018D01*
X133662086Y-215610424D01*
X133600302Y-215752241D01*
X133548525Y-215872170D01*
X133508221Y-215966911D01*
X133480858Y-216033166D01*
X133467904Y-216067635D01*
X133467144Y-216071879D01*
X133479418Y-216057534D01*
X133510847Y-216014307D01*
X133558324Y-215946660D01*
X133618739Y-215859057D01*
X133688983Y-215755958D01*
X133743530Y-215675187D01*
X133834460Y-215540900D01*
X133942112Y-215383331D01*
X134063739Y-215206405D01*
X134196593Y-215014050D01*
X134337927Y-214810190D01*
X134484992Y-214598751D01*
X134635040Y-214383659D01*
X134785325Y-214168841D01*
X134933097Y-213958221D01*
X135075609Y-213755725D01*
X135210114Y-213565281D01*
X135333863Y-213390812D01*
X135444109Y-213236246D01*
X135538104Y-213105508D01*
X135613100Y-213002523D01*
X135634257Y-212973888D01*
X136000212Y-212487274D01*
X136349207Y-212035839D01*
X136682000Y-211618794D01*
X136999345Y-211235350D01*
X137302002Y-210884718D01*
X137590725Y-210566110D01*
X137866272Y-210278736D01*
X138129399Y-210021807D01*
X138380863Y-209794534D01*
X138621422Y-209596128D01*
X138851830Y-209425801D01*
X139072846Y-209282762D01*
X139285226Y-209166224D01*
X139286624Y-209165529D01*
X139444935Y-209089975D01*
X139579676Y-209033257D01*
X139700715Y-208992091D01*
X139817922Y-208963193D01*
X139941167Y-208943279D01*
X139962341Y-208940679D01*
X140106301Y-208931764D01*
X140249896Y-208937364D01*
X140249896Y-208937364D01*
G37*
X140249896Y-208937364D02*
X140381117Y-208956290D01*
X140487956Y-208987351D01*
X140504253Y-208994407D01*
X140569655Y-209024715D01*
X140509513Y-209014541D01*
X140300196Y-208991066D01*
X140104137Y-208992629D01*
X139930244Y-209019134D01*
X139923063Y-209020916D01*
X139720424Y-209087555D01*
X139509259Y-209187412D01*
X139288850Y-209321073D01*
X139058476Y-209489123D01*
X138817416Y-209692149D01*
X138564951Y-209930738D01*
X138300360Y-210205476D01*
X138022922Y-210516949D01*
X137884674Y-210680039D01*
X137756595Y-210834726D01*
X137634234Y-210985569D01*
X137515674Y-211135339D01*
X137398997Y-211286810D01*
X137282286Y-211442751D01*
X137163623Y-211605936D01*
X137041092Y-211779136D01*
X136912773Y-211965123D01*
X136776751Y-212166669D01*
X136631107Y-212386545D01*
X136473924Y-212627524D01*
X136303284Y-212892377D01*
X136117270Y-213183876D01*
X135913965Y-213504793D01*
X135743114Y-213775783D01*
X135353504Y-214404057D01*
X134978770Y-215026898D01*
X134624937Y-215634254D01*
X134535886Y-215790542D01*
X134455409Y-215931746D01*
X134362172Y-216094150D01*
X134263853Y-216264458D01*
X134168127Y-216429373D01*
X134084135Y-216573103D01*
X134000477Y-216716510D01*
X133908709Y-216875325D01*
X133815914Y-217037192D01*
X133729173Y-217189754D01*
X133655570Y-217320655D01*
X133653215Y-217324879D01*
X133589738Y-217438571D01*
X133529519Y-217546068D01*
X133476564Y-217640244D01*
X133434882Y-217713974D01*
X133408476Y-217760135D01*
X133407645Y-217761564D01*
X133357215Y-217848135D01*
X133279388Y-217641280D01*
X133238568Y-217538977D01*
X133187818Y-217421482D01*
X133129684Y-217293792D01*
X133066713Y-217160899D01*
X133001450Y-217027801D01*
X132936441Y-216899490D01*
X132874233Y-216780962D01*
X132817371Y-216677212D01*
X132768402Y-216593235D01*
X132729871Y-216534025D01*
X132704324Y-216504577D01*
X132698774Y-216502223D01*
X132685304Y-216518984D01*
X132656388Y-216565461D01*
X132615363Y-216635947D01*
X132565563Y-216724734D01*
X132520112Y-216807945D01*
X132446723Y-216943318D01*
X132368028Y-217087554D01*
X132286422Y-217236346D01*
X132204303Y-217385386D01*
X132124068Y-217530364D01*
X132048113Y-217666974D01*
X131978834Y-217790907D01*
X131918629Y-217897855D01*
X131869894Y-217983510D01*
X131835026Y-218043564D01*
X131816421Y-218073708D01*
X131814709Y-218075940D01*
X131813319Y-218067140D01*
X131823975Y-218027615D01*
X131844652Y-217964184D01*
X131865332Y-217905538D01*
X131915554Y-217767544D01*
X131971380Y-217615317D01*
X132031214Y-217453107D01*
X132093461Y-217285163D01*
X132156526Y-217115736D01*
X132218812Y-216949076D01*
X132278723Y-216789433D01*
X132334665Y-216641057D01*
X132385041Y-216508198D01*
X132428256Y-216395105D01*
X132462713Y-216306030D01*
X132486819Y-216245222D01*
X132498976Y-216216931D01*
X132499836Y-216215546D01*
X132516745Y-216223386D01*
X132548460Y-216258479D01*
X132588907Y-216313849D01*
X132600178Y-216330819D01*
X132641994Y-216392621D01*
X132676076Y-216438624D01*
X132696325Y-216460712D01*
X132698410Y-216461555D01*
X132711103Y-216444489D01*
X132739639Y-216397000D01*
X132781163Y-216324134D01*
X132832823Y-216230939D01*
X132891766Y-216122459D01*
X132921588Y-216066851D01*
X132991820Y-215936087D01*
X133075905Y-215780714D01*
X133168172Y-215611138D01*
X133262949Y-215437770D01*
X133354564Y-215271017D01*
X133410173Y-215170305D01*
X133490896Y-215024217D01*
X133585719Y-214852200D01*
X133689546Y-214663526D01*
X133797279Y-214467465D01*
X133903823Y-214273289D01*
X134004080Y-214090269D01*
X134039032Y-214026375D01*
X134201475Y-213731646D01*
X134361033Y-213446741D01*
X134515976Y-213174559D01*
X134664576Y-212917999D01*
X134805105Y-212679962D01*
X134935834Y-212463346D01*
X135055035Y-212271052D01*
X135160980Y-212105979D01*
X135251941Y-211971026D01*
X135320645Y-211876303D01*
X135416883Y-211760260D01*
X135502714Y-211676827D01*
X135576716Y-211626797D01*
X135637466Y-211610966D01*
X135683542Y-211630126D01*
X135704953Y-211661730D01*
X135724799Y-211715281D01*
X135728215Y-211746765D01*
X135716920Y-211750969D01*
X135692636Y-211722682D01*
X135687512Y-211714550D01*
X135648827Y-211667563D01*
X135612886Y-211654430D01*
X135612410Y-211654515D01*
X135574734Y-211678564D01*
X135522554Y-211738614D01*
X135456504Y-211833541D01*
X135377218Y-211962221D01*
X135285330Y-212123527D01*
X135181474Y-212316335D01*
X135066283Y-212539521D01*
X134940393Y-212791958D01*
X134804436Y-213072522D01*
X134755916Y-213174362D01*
X134708132Y-213276182D01*
X134649809Y-213402305D01*
X134582415Y-213549431D01*
X134507418Y-213714261D01*
X134426284Y-213893496D01*
X134340481Y-214083836D01*
X134251478Y-214281981D01*
X134160740Y-214484634D01*
X134069736Y-214688493D01*
X133979934Y-214890261D01*
X133892800Y-215086637D01*
X133809803Y-215274322D01*
X133732409Y-215450018D01*
X133662086Y-215610424D01*
X133600302Y-215752241D01*
X133548525Y-215872170D01*
X133508221Y-215966911D01*
X133480858Y-216033166D01*
X133467904Y-216067635D01*
X133467144Y-216071879D01*
X133479418Y-216057534D01*
X133510847Y-216014307D01*
X133558324Y-215946660D01*
X133618739Y-215859057D01*
X133688983Y-215755958D01*
X133743530Y-215675187D01*
X133834460Y-215540900D01*
X133942112Y-215383331D01*
X134063739Y-215206405D01*
X134196593Y-215014050D01*
X134337927Y-214810190D01*
X134484992Y-214598751D01*
X134635040Y-214383659D01*
X134785325Y-214168841D01*
X134933097Y-213958221D01*
X135075609Y-213755725D01*
X135210114Y-213565281D01*
X135333863Y-213390812D01*
X135444109Y-213236246D01*
X135538104Y-213105508D01*
X135613100Y-213002523D01*
X135634257Y-212973888D01*
X136000212Y-212487274D01*
X136349207Y-212035839D01*
X136682000Y-211618794D01*
X136999345Y-211235350D01*
X137302002Y-210884718D01*
X137590725Y-210566110D01*
X137866272Y-210278736D01*
X138129399Y-210021807D01*
X138380863Y-209794534D01*
X138621422Y-209596128D01*
X138851830Y-209425801D01*
X139072846Y-209282762D01*
X139285226Y-209166224D01*
X139286624Y-209165529D01*
X139444935Y-209089975D01*
X139579676Y-209033257D01*
X139700715Y-208992091D01*
X139817922Y-208963193D01*
X139941167Y-208943279D01*
X139962341Y-208940679D01*
X140106301Y-208931764D01*
X140249896Y-208937364D01*
D15*
X119564115Y-160065981D02*
X118992686Y-160065981D01*
X119278400Y-160065981D02*
X119278400Y-159065981D01*
X119183162Y-159208838D01*
X119087924Y-159304076D01*
X118992686Y-159351695D01*
X142100324Y-160015181D02*
X141528895Y-160015181D01*
X141814609Y-160015181D02*
X141814609Y-159015181D01*
X141719371Y-159158038D01*
X141624133Y-159253276D01*
X141528895Y-159300895D01*
X142719371Y-159015181D02*
X142814610Y-159015181D01*
X142909848Y-159062800D01*
X142957467Y-159110419D01*
X143005086Y-159205657D01*
X143052705Y-159396133D01*
X143052705Y-159634229D01*
X143005086Y-159824705D01*
X142957467Y-159919943D01*
X142909848Y-159967562D01*
X142814610Y-160015181D01*
X142719371Y-160015181D01*
X142624133Y-159967562D01*
X142576514Y-159919943D01*
X142528895Y-159824705D01*
X142481276Y-159634229D01*
X142481276Y-159396133D01*
X142528895Y-159205657D01*
X142576514Y-159110419D01*
X142624133Y-159062800D01*
X142719371Y-159015181D01*
X119564115Y-203195181D02*
X118992686Y-203195181D01*
X119278400Y-203195181D02*
X119278400Y-202195181D01*
X119183162Y-202338038D01*
X119087924Y-202433276D01*
X118992686Y-202480895D01*
X142201924Y-203195181D02*
X141630495Y-203195181D01*
X141916209Y-203195181D02*
X141916209Y-202195181D01*
X141820971Y-202338038D01*
X141725733Y-202433276D01*
X141630495Y-202480895D01*
X142820971Y-202195181D02*
X142916210Y-202195181D01*
X143011448Y-202242800D01*
X143059067Y-202290419D01*
X143106686Y-202385657D01*
X143154305Y-202576133D01*
X143154305Y-202814229D01*
X143106686Y-203004705D01*
X143059067Y-203099943D01*
X143011448Y-203147562D01*
X142916210Y-203195181D01*
X142820971Y-203195181D01*
X142725733Y-203147562D01*
X142678114Y-203099943D01*
X142630495Y-203004705D01*
X142582876Y-202814229D01*
X142582876Y-202576133D01*
X142630495Y-202385657D01*
X142678114Y-202290419D01*
X142725733Y-202242800D01*
X142820971Y-202195181D01*
X141430476Y-157694381D02*
X142097143Y-158694381D01*
X142097143Y-157694381D02*
X141430476Y-158694381D01*
X142525714Y-158694381D02*
X142716190Y-158694381D01*
X142811429Y-158646762D01*
X142859048Y-158599143D01*
X142954286Y-158456286D01*
X143001905Y-158265810D01*
X143001905Y-157884857D01*
X142954286Y-157789619D01*
X142906667Y-157742000D01*
X142811429Y-157694381D01*
X142620952Y-157694381D01*
X142525714Y-157742000D01*
X142478095Y-157789619D01*
X142430476Y-157884857D01*
X142430476Y-158122952D01*
X142478095Y-158218190D01*
X142525714Y-158265810D01*
X142620952Y-158313429D01*
X142811429Y-158313429D01*
X142906667Y-158265810D01*
X142954286Y-158218190D01*
X143001905Y-158122952D01*
X141582876Y-200925181D02*
X142249543Y-201925181D01*
X142249543Y-200925181D02*
X141582876Y-201925181D01*
X142773352Y-201353752D02*
X142678114Y-201306133D01*
X142630495Y-201258514D01*
X142582876Y-201163276D01*
X142582876Y-201115657D01*
X142630495Y-201020419D01*
X142678114Y-200972800D01*
X142773352Y-200925181D01*
X142963829Y-200925181D01*
X143059067Y-200972800D01*
X143106686Y-201020419D01*
X143154305Y-201115657D01*
X143154305Y-201163276D01*
X143106686Y-201258514D01*
X143059067Y-201306133D01*
X142963829Y-201353752D01*
X142773352Y-201353752D01*
X142678114Y-201401371D01*
X142630495Y-201448990D01*
X142582876Y-201544229D01*
X142582876Y-201734705D01*
X142630495Y-201829943D01*
X142678114Y-201877562D01*
X142773352Y-201925181D01*
X142963829Y-201925181D01*
X143059067Y-201877562D01*
X143106686Y-201829943D01*
X143154305Y-201734705D01*
X143154305Y-201544229D01*
X143106686Y-201448990D01*
X143059067Y-201401371D01*
X142963829Y-201353752D01*
X144257734Y-164491943D02*
X144210115Y-164539562D01*
X144067258Y-164587181D01*
X143972020Y-164587181D01*
X143829162Y-164539562D01*
X143733924Y-164444324D01*
X143686305Y-164349086D01*
X143638686Y-164158610D01*
X143638686Y-164015752D01*
X143686305Y-163825276D01*
X143733924Y-163730038D01*
X143829162Y-163634800D01*
X143972020Y-163587181D01*
X144067258Y-163587181D01*
X144210115Y-163634800D01*
X144257734Y-163682419D01*
X145210115Y-164587181D02*
X144638686Y-164587181D01*
X144924400Y-164587181D02*
X144924400Y-163587181D01*
X144829162Y-163730038D01*
X144733924Y-163825276D01*
X144638686Y-163872895D01*
X143686305Y-162301181D02*
X143686305Y-161301181D01*
X143924400Y-161301181D01*
X144067258Y-161348800D01*
X144162496Y-161444038D01*
X144210115Y-161539276D01*
X144257734Y-161729752D01*
X144257734Y-161872610D01*
X144210115Y-162063086D01*
X144162496Y-162158324D01*
X144067258Y-162253562D01*
X143924400Y-162301181D01*
X143686305Y-162301181D01*
X145210115Y-162301181D02*
X144638686Y-162301181D01*
X144924400Y-162301181D02*
X144924400Y-161301181D01*
X144829162Y-161444038D01*
X144733924Y-161539276D01*
X144638686Y-161586895D01*
X144019639Y-204703371D02*
X144162496Y-204750990D01*
X144210115Y-204798610D01*
X144257734Y-204893848D01*
X144257734Y-205036705D01*
X144210115Y-205131943D01*
X144162496Y-205179562D01*
X144067258Y-205227181D01*
X143686305Y-205227181D01*
X143686305Y-204227181D01*
X144019639Y-204227181D01*
X144114877Y-204274800D01*
X144162496Y-204322419D01*
X144210115Y-204417657D01*
X144210115Y-204512895D01*
X144162496Y-204608133D01*
X144114877Y-204655752D01*
X144019639Y-204703371D01*
X143686305Y-204703371D01*
X145210115Y-205227181D02*
X144638686Y-205227181D01*
X144924400Y-205227181D02*
X144924400Y-204227181D01*
X144829162Y-204370038D01*
X144733924Y-204465276D01*
X144638686Y-204512895D01*
X143710114Y-207481467D02*
X144186305Y-207481467D01*
X143614876Y-207767181D02*
X143948209Y-206767181D01*
X144281543Y-207767181D01*
X145138686Y-207767181D02*
X144567257Y-207767181D01*
X144852971Y-207767181D02*
X144852971Y-206767181D01*
X144757733Y-206910038D01*
X144662495Y-207005276D01*
X144567257Y-207052895D01*
X142295953Y-182713381D02*
X142915001Y-182713381D01*
X142581667Y-183094333D01*
X142724525Y-183094333D01*
X142819763Y-183141952D01*
X142867382Y-183189571D01*
X142915001Y-183284810D01*
X142915001Y-183522905D01*
X142867382Y-183618143D01*
X142819763Y-183665762D01*
X142724525Y-183713381D01*
X142438810Y-183713381D01*
X142343572Y-183665762D01*
X142295953Y-183618143D01*
X143343572Y-183618143D02*
X143391191Y-183665762D01*
X143343572Y-183713381D01*
X143295953Y-183665762D01*
X143343572Y-183618143D01*
X143343572Y-183713381D01*
X143724524Y-182713381D02*
X144343572Y-182713381D01*
X144010238Y-183094333D01*
X144153096Y-183094333D01*
X144248334Y-183141952D01*
X144295953Y-183189571D01*
X144343572Y-183284810D01*
X144343572Y-183522905D01*
X144295953Y-183618143D01*
X144248334Y-183665762D01*
X144153096Y-183713381D01*
X143867381Y-183713381D01*
X143772143Y-183665762D01*
X143724524Y-183618143D01*
X144629286Y-182713381D02*
X144962619Y-183713381D01*
X145295953Y-182713381D01*
X145391191Y-183808619D02*
X146153096Y-183808619D01*
X146581667Y-182713381D02*
X146772144Y-182713381D01*
X146867382Y-182761000D01*
X146962620Y-182856238D01*
X147010239Y-183046714D01*
X147010239Y-183380048D01*
X146962620Y-183570524D01*
X146867382Y-183665762D01*
X146772144Y-183713381D01*
X146581667Y-183713381D01*
X146486429Y-183665762D01*
X146391191Y-183570524D01*
X146343572Y-183380048D01*
X146343572Y-183046714D01*
X146391191Y-182856238D01*
X146486429Y-182761000D01*
X146581667Y-182713381D01*
X147438810Y-183713381D02*
X147438810Y-182713381D01*
X148010239Y-183713381D02*
X147581667Y-183141952D01*
X148010239Y-182713381D02*
X147438810Y-183284810D01*
X148438810Y-183713381D02*
X148438810Y-182713381D01*
X163679143Y-185078666D02*
X163726762Y-185126285D01*
X163774381Y-185269142D01*
X163774381Y-185364380D01*
X163726762Y-185507238D01*
X163631524Y-185602476D01*
X163536286Y-185650095D01*
X163345810Y-185697714D01*
X163202952Y-185697714D01*
X163012476Y-185650095D01*
X162917238Y-185602476D01*
X162822000Y-185507238D01*
X162774381Y-185364380D01*
X162774381Y-185269142D01*
X162822000Y-185126285D01*
X162869619Y-185078666D01*
X163107714Y-184221523D02*
X163774381Y-184221523D01*
X162726762Y-184459619D02*
X163441048Y-184697714D01*
X163441048Y-184078666D01*
X163322095Y-145121381D02*
X163322095Y-145930905D01*
X163369714Y-146026143D01*
X163417333Y-146073762D01*
X163512571Y-146121381D01*
X163703048Y-146121381D01*
X163798286Y-146073762D01*
X163845905Y-146026143D01*
X163893524Y-145930905D01*
X163893524Y-145121381D01*
X164893524Y-146121381D02*
X164322095Y-146121381D01*
X164607809Y-146121381D02*
X164607809Y-145121381D01*
X164512571Y-145264238D01*
X164417333Y-145359476D01*
X164322095Y-145407095D01*
X156631286Y-165568381D02*
X156964619Y-166568381D01*
X157297953Y-165568381D01*
X157631286Y-166568381D02*
X157631286Y-165568381D01*
X158202715Y-166568381D01*
X158202715Y-165568381D01*
X158678905Y-166568381D02*
X158678905Y-165568381D01*
X158678905Y-166044571D02*
X159250334Y-166044571D01*
X159250334Y-166568381D02*
X159250334Y-165568381D01*
X160202715Y-165568381D02*
X159726524Y-165568381D01*
X159678905Y-166044571D01*
X159726524Y-165996952D01*
X159821762Y-165949333D01*
X160059858Y-165949333D01*
X160155096Y-165996952D01*
X160202715Y-166044571D01*
X160250334Y-166139810D01*
X160250334Y-166377905D01*
X160202715Y-166473143D01*
X160155096Y-166520762D01*
X160059858Y-166568381D01*
X159821762Y-166568381D01*
X159726524Y-166520762D01*
X159678905Y-166473143D01*
X160869381Y-165568381D02*
X160964620Y-165568381D01*
X161059858Y-165616000D01*
X161107477Y-165663619D01*
X161155096Y-165758857D01*
X161202715Y-165949333D01*
X161202715Y-166187429D01*
X161155096Y-166377905D01*
X161107477Y-166473143D01*
X161059858Y-166520762D01*
X160964620Y-166568381D01*
X160869381Y-166568381D01*
X160774143Y-166520762D01*
X160726524Y-166473143D01*
X160678905Y-166377905D01*
X160631286Y-166187429D01*
X160631286Y-165949333D01*
X160678905Y-165758857D01*
X160726524Y-165663619D01*
X160774143Y-165616000D01*
X160869381Y-165568381D01*
X162155096Y-166568381D02*
X161583667Y-166568381D01*
X161869381Y-166568381D02*
X161869381Y-165568381D01*
X161774143Y-165711238D01*
X161678905Y-165806476D01*
X161583667Y-165854095D01*
X162631286Y-166568381D02*
X162821762Y-166568381D01*
X162917001Y-166520762D01*
X162964620Y-166473143D01*
X163059858Y-166330286D01*
X163107477Y-166139810D01*
X163107477Y-165758857D01*
X163059858Y-165663619D01*
X163012239Y-165616000D01*
X162917001Y-165568381D01*
X162726524Y-165568381D01*
X162631286Y-165616000D01*
X162583667Y-165663619D01*
X162536048Y-165758857D01*
X162536048Y-165996952D01*
X162583667Y-166092190D01*
X162631286Y-166139810D01*
X162726524Y-166187429D01*
X162917001Y-166187429D01*
X163012239Y-166139810D01*
X163059858Y-166092190D01*
X163107477Y-165996952D01*
X163488429Y-166282667D02*
X163964620Y-166282667D01*
X163393191Y-166568381D02*
X163726524Y-165568381D01*
X164059858Y-166568381D01*
X164393191Y-166187429D02*
X165155096Y-166187429D01*
X165631286Y-166044571D02*
X165964620Y-166044571D01*
X166107477Y-166568381D02*
X165631286Y-166568381D01*
X165631286Y-165568381D01*
X166107477Y-165568381D01*
X170732334Y-158323881D02*
X170399000Y-157847690D01*
X170160905Y-158323881D02*
X170160905Y-157323881D01*
X170541858Y-157323881D01*
X170637096Y-157371500D01*
X170684715Y-157419119D01*
X170732334Y-157514357D01*
X170732334Y-157657214D01*
X170684715Y-157752452D01*
X170637096Y-157800071D01*
X170541858Y-157847690D01*
X170160905Y-157847690D01*
X171684715Y-158323881D02*
X171113286Y-158323881D01*
X171399000Y-158323881D02*
X171399000Y-157323881D01*
X171303762Y-157466738D01*
X171208524Y-157561976D01*
X171113286Y-157609595D01*
X170691334Y-155275881D02*
X170358000Y-154799690D01*
X170119905Y-155275881D02*
X170119905Y-154275881D01*
X170500858Y-154275881D01*
X170596096Y-154323500D01*
X170643715Y-154371119D01*
X170691334Y-154466357D01*
X170691334Y-154609214D01*
X170643715Y-154704452D01*
X170596096Y-154752071D01*
X170500858Y-154799690D01*
X170119905Y-154799690D01*
X171072286Y-154371119D02*
X171119905Y-154323500D01*
X171215143Y-154275881D01*
X171453239Y-154275881D01*
X171548477Y-154323500D01*
X171596096Y-154371119D01*
X171643715Y-154466357D01*
X171643715Y-154561595D01*
X171596096Y-154704452D01*
X171024667Y-155275881D01*
X171643715Y-155275881D01*
X170691334Y-152291381D02*
X170358000Y-151815190D01*
X170119905Y-152291381D02*
X170119905Y-151291381D01*
X170500858Y-151291381D01*
X170596096Y-151339000D01*
X170643715Y-151386619D01*
X170691334Y-151481857D01*
X170691334Y-151624714D01*
X170643715Y-151719952D01*
X170596096Y-151767571D01*
X170500858Y-151815190D01*
X170119905Y-151815190D01*
X171024667Y-151291381D02*
X171643715Y-151291381D01*
X171310381Y-151672333D01*
X171453239Y-151672333D01*
X171548477Y-151719952D01*
X171596096Y-151767571D01*
X171643715Y-151862810D01*
X171643715Y-152100905D01*
X171596096Y-152196143D01*
X171548477Y-152243762D01*
X171453239Y-152291381D01*
X171167524Y-152291381D01*
X171072286Y-152243762D01*
X171024667Y-152196143D01*
X150252134Y-171777581D02*
X149918800Y-171301390D01*
X149680705Y-171777581D02*
X149680705Y-170777581D01*
X150061658Y-170777581D01*
X150156896Y-170825200D01*
X150204515Y-170872819D01*
X150252134Y-170968057D01*
X150252134Y-171110914D01*
X150204515Y-171206152D01*
X150156896Y-171253771D01*
X150061658Y-171301390D01*
X149680705Y-171301390D01*
X151109277Y-171110914D02*
X151109277Y-171777581D01*
X150871181Y-170729962D02*
X150633086Y-171444248D01*
X151252134Y-171444248D01*
X150201334Y-174696381D02*
X149868000Y-174220190D01*
X149629905Y-174696381D02*
X149629905Y-173696381D01*
X150010858Y-173696381D01*
X150106096Y-173744000D01*
X150153715Y-173791619D01*
X150201334Y-173886857D01*
X150201334Y-174029714D01*
X150153715Y-174124952D01*
X150106096Y-174172571D01*
X150010858Y-174220190D01*
X149629905Y-174220190D01*
X151106096Y-173696381D02*
X150629905Y-173696381D01*
X150582286Y-174172571D01*
X150629905Y-174124952D01*
X150725143Y-174077333D01*
X150963239Y-174077333D01*
X151058477Y-174124952D01*
X151106096Y-174172571D01*
X151153715Y-174267810D01*
X151153715Y-174505905D01*
X151106096Y-174601143D01*
X151058477Y-174648762D01*
X150963239Y-174696381D01*
X150725143Y-174696381D01*
X150629905Y-174648762D01*
X150582286Y-174601143D01*
X150252134Y-177721181D02*
X149918800Y-177244990D01*
X149680705Y-177721181D02*
X149680705Y-176721181D01*
X150061658Y-176721181D01*
X150156896Y-176768800D01*
X150204515Y-176816419D01*
X150252134Y-176911657D01*
X150252134Y-177054514D01*
X150204515Y-177149752D01*
X150156896Y-177197371D01*
X150061658Y-177244990D01*
X149680705Y-177244990D01*
X151109277Y-176721181D02*
X150918800Y-176721181D01*
X150823562Y-176768800D01*
X150775943Y-176816419D01*
X150680705Y-176959276D01*
X150633086Y-177149752D01*
X150633086Y-177530705D01*
X150680705Y-177625943D01*
X150728324Y-177673562D01*
X150823562Y-177721181D01*
X151014039Y-177721181D01*
X151109277Y-177673562D01*
X151156896Y-177625943D01*
X151204515Y-177530705D01*
X151204515Y-177292610D01*
X151156896Y-177197371D01*
X151109277Y-177149752D01*
X151014039Y-177102133D01*
X150823562Y-177102133D01*
X150728324Y-177149752D01*
X150680705Y-177197371D01*
X150633086Y-177292610D01*
X169672095Y-163790381D02*
X169672095Y-164599905D01*
X169719714Y-164695143D01*
X169767333Y-164742762D01*
X169862571Y-164790381D01*
X170053048Y-164790381D01*
X170148286Y-164742762D01*
X170195905Y-164695143D01*
X170243524Y-164599905D01*
X170243524Y-163790381D01*
X170672095Y-163885619D02*
X170719714Y-163838000D01*
X170814952Y-163790381D01*
X171053048Y-163790381D01*
X171148286Y-163838000D01*
X171195905Y-163885619D01*
X171243524Y-163980857D01*
X171243524Y-164076095D01*
X171195905Y-164218952D01*
X170624476Y-164790381D01*
X171243524Y-164790381D01*
X155488286Y-147153381D02*
X155821619Y-148153381D01*
X156154953Y-147153381D01*
X156488286Y-148153381D02*
X156488286Y-147153381D01*
X157059715Y-148153381D01*
X157059715Y-147153381D01*
X157535905Y-148153381D02*
X157535905Y-147153381D01*
X157535905Y-147629571D02*
X158107334Y-147629571D01*
X158107334Y-148153381D02*
X158107334Y-147153381D01*
X159059715Y-147153381D02*
X158583524Y-147153381D01*
X158535905Y-147629571D01*
X158583524Y-147581952D01*
X158678762Y-147534333D01*
X158916858Y-147534333D01*
X159012096Y-147581952D01*
X159059715Y-147629571D01*
X159107334Y-147724810D01*
X159107334Y-147962905D01*
X159059715Y-148058143D01*
X159012096Y-148105762D01*
X158916858Y-148153381D01*
X158678762Y-148153381D01*
X158583524Y-148105762D01*
X158535905Y-148058143D01*
X159726381Y-147153381D02*
X159821620Y-147153381D01*
X159916858Y-147201000D01*
X159964477Y-147248619D01*
X160012096Y-147343857D01*
X160059715Y-147534333D01*
X160059715Y-147772429D01*
X160012096Y-147962905D01*
X159964477Y-148058143D01*
X159916858Y-148105762D01*
X159821620Y-148153381D01*
X159726381Y-148153381D01*
X159631143Y-148105762D01*
X159583524Y-148058143D01*
X159535905Y-147962905D01*
X159488286Y-147772429D01*
X159488286Y-147534333D01*
X159535905Y-147343857D01*
X159583524Y-147248619D01*
X159631143Y-147201000D01*
X159726381Y-147153381D01*
X161012096Y-148153381D02*
X160440667Y-148153381D01*
X160726381Y-148153381D02*
X160726381Y-147153381D01*
X160631143Y-147296238D01*
X160535905Y-147391476D01*
X160440667Y-147439095D01*
X161488286Y-148153381D02*
X161678762Y-148153381D01*
X161774001Y-148105762D01*
X161821620Y-148058143D01*
X161916858Y-147915286D01*
X161964477Y-147724810D01*
X161964477Y-147343857D01*
X161916858Y-147248619D01*
X161869239Y-147201000D01*
X161774001Y-147153381D01*
X161583524Y-147153381D01*
X161488286Y-147201000D01*
X161440667Y-147248619D01*
X161393048Y-147343857D01*
X161393048Y-147581952D01*
X161440667Y-147677190D01*
X161488286Y-147724810D01*
X161583524Y-147772429D01*
X161774001Y-147772429D01*
X161869239Y-147724810D01*
X161916858Y-147677190D01*
X161964477Y-147581952D01*
X162345429Y-147867667D02*
X162821620Y-147867667D01*
X162250191Y-148153381D02*
X162583524Y-147153381D01*
X162916858Y-148153381D01*
X163250191Y-147772429D02*
X164012096Y-147772429D01*
X164488286Y-147629571D02*
X164821620Y-147629571D01*
X164964477Y-148153381D02*
X164488286Y-148153381D01*
X164488286Y-147153381D01*
X164964477Y-147153381D01*
X133326143Y-185459666D02*
X133373762Y-185507285D01*
X133421381Y-185650142D01*
X133421381Y-185745380D01*
X133373762Y-185888238D01*
X133278524Y-185983476D01*
X133183286Y-186031095D01*
X132992810Y-186078714D01*
X132849952Y-186078714D01*
X132659476Y-186031095D01*
X132564238Y-185983476D01*
X132469000Y-185888238D01*
X132421381Y-185745380D01*
X132421381Y-185650142D01*
X132469000Y-185507285D01*
X132516619Y-185459666D01*
X132516619Y-185078714D02*
X132469000Y-185031095D01*
X132421381Y-184935857D01*
X132421381Y-184697761D01*
X132469000Y-184602523D01*
X132516619Y-184554904D01*
X132611857Y-184507285D01*
X132707095Y-184507285D01*
X132849952Y-184554904D01*
X133421381Y-185126333D01*
X133421381Y-184507285D01*
X133199143Y-181871857D02*
X133246762Y-181919476D01*
X133294381Y-182062333D01*
X133294381Y-182157571D01*
X133246762Y-182300429D01*
X133151524Y-182395667D01*
X133056286Y-182443286D01*
X132865810Y-182490905D01*
X132722952Y-182490905D01*
X132532476Y-182443286D01*
X132437238Y-182395667D01*
X132342000Y-182300429D01*
X132294381Y-182157571D01*
X132294381Y-182062333D01*
X132342000Y-181919476D01*
X132389619Y-181871857D01*
X133294381Y-180919476D02*
X133294381Y-181490905D01*
X133294381Y-181205191D02*
X132294381Y-181205191D01*
X132437238Y-181300429D01*
X132532476Y-181395667D01*
X132580095Y-181490905D01*
X132389619Y-180538524D02*
X132342000Y-180490905D01*
X132294381Y-180395667D01*
X132294381Y-180157571D01*
X132342000Y-180062333D01*
X132389619Y-180014714D01*
X132484857Y-179967095D01*
X132580095Y-179967095D01*
X132722952Y-180014714D01*
X133294381Y-180586143D01*
X133294381Y-179967095D01*
X133802381Y-201291666D02*
X133326190Y-201625000D01*
X133802381Y-201863095D02*
X132802381Y-201863095D01*
X132802381Y-201482142D01*
X132850000Y-201386904D01*
X132897619Y-201339285D01*
X132992857Y-201291666D01*
X133135714Y-201291666D01*
X133230952Y-201339285D01*
X133278571Y-201386904D01*
X133326190Y-201482142D01*
X133326190Y-201863095D01*
X132802381Y-200958333D02*
X132802381Y-200291666D01*
X133802381Y-200720238D01*
X132024381Y-201334666D02*
X131548190Y-201668000D01*
X132024381Y-201906095D02*
X131024381Y-201906095D01*
X131024381Y-201525142D01*
X131072000Y-201429904D01*
X131119619Y-201382285D01*
X131214857Y-201334666D01*
X131357714Y-201334666D01*
X131452952Y-201382285D01*
X131500571Y-201429904D01*
X131548190Y-201525142D01*
X131548190Y-201906095D01*
X131452952Y-200763238D02*
X131405333Y-200858476D01*
X131357714Y-200906095D01*
X131262476Y-200953714D01*
X131214857Y-200953714D01*
X131119619Y-200906095D01*
X131072000Y-200858476D01*
X131024381Y-200763238D01*
X131024381Y-200572761D01*
X131072000Y-200477523D01*
X131119619Y-200429904D01*
X131214857Y-200382285D01*
X131262476Y-200382285D01*
X131357714Y-200429904D01*
X131405333Y-200477523D01*
X131452952Y-200572761D01*
X131452952Y-200763238D01*
X131500571Y-200858476D01*
X131548190Y-200906095D01*
X131643429Y-200953714D01*
X131833905Y-200953714D01*
X131929143Y-200906095D01*
X131976762Y-200858476D01*
X132024381Y-200763238D01*
X132024381Y-200572761D01*
X131976762Y-200477523D01*
X131929143Y-200429904D01*
X131833905Y-200382285D01*
X131643429Y-200382285D01*
X131548190Y-200429904D01*
X131500571Y-200477523D01*
X131452952Y-200572761D01*
X130246381Y-201291666D02*
X129770190Y-201625000D01*
X130246381Y-201863095D02*
X129246381Y-201863095D01*
X129246381Y-201482142D01*
X129294000Y-201386904D01*
X129341619Y-201339285D01*
X129436857Y-201291666D01*
X129579714Y-201291666D01*
X129674952Y-201339285D01*
X129722571Y-201386904D01*
X129770190Y-201482142D01*
X129770190Y-201863095D01*
X130246381Y-200815476D02*
X130246381Y-200625000D01*
X130198762Y-200529761D01*
X130151143Y-200482142D01*
X130008286Y-200386904D01*
X129817810Y-200339285D01*
X129436857Y-200339285D01*
X129341619Y-200386904D01*
X129294000Y-200434523D01*
X129246381Y-200529761D01*
X129246381Y-200720238D01*
X129294000Y-200815476D01*
X129341619Y-200863095D01*
X129436857Y-200910714D01*
X129674952Y-200910714D01*
X129770190Y-200863095D01*
X129817810Y-200815476D01*
X129865429Y-200720238D01*
X129865429Y-200529761D01*
X129817810Y-200434523D01*
X129770190Y-200386904D01*
X129674952Y-200339285D01*
X128468381Y-202234857D02*
X127992190Y-202568191D01*
X128468381Y-202806286D02*
X127468381Y-202806286D01*
X127468381Y-202425333D01*
X127516000Y-202330095D01*
X127563619Y-202282476D01*
X127658857Y-202234857D01*
X127801714Y-202234857D01*
X127896952Y-202282476D01*
X127944571Y-202330095D01*
X127992190Y-202425333D01*
X127992190Y-202806286D01*
X128468381Y-201282476D02*
X128468381Y-201853905D01*
X128468381Y-201568191D02*
X127468381Y-201568191D01*
X127611238Y-201663429D01*
X127706476Y-201758667D01*
X127754095Y-201853905D01*
X127468381Y-200663429D02*
X127468381Y-200568190D01*
X127516000Y-200472952D01*
X127563619Y-200425333D01*
X127658857Y-200377714D01*
X127849333Y-200330095D01*
X128087429Y-200330095D01*
X128277905Y-200377714D01*
X128373143Y-200425333D01*
X128420762Y-200472952D01*
X128468381Y-200568190D01*
X128468381Y-200663429D01*
X128420762Y-200758667D01*
X128373143Y-200806286D01*
X128277905Y-200853905D01*
X128087429Y-200901524D01*
X127849333Y-200901524D01*
X127658857Y-200853905D01*
X127563619Y-200806286D01*
X127516000Y-200758667D01*
X127468381Y-200663429D01*
X166600143Y-185078666D02*
X166647762Y-185126285D01*
X166695381Y-185269142D01*
X166695381Y-185364380D01*
X166647762Y-185507238D01*
X166552524Y-185602476D01*
X166457286Y-185650095D01*
X166266810Y-185697714D01*
X166123952Y-185697714D01*
X165933476Y-185650095D01*
X165838238Y-185602476D01*
X165743000Y-185507238D01*
X165695381Y-185364380D01*
X165695381Y-185269142D01*
X165743000Y-185126285D01*
X165790619Y-185078666D01*
X165695381Y-184745333D02*
X165695381Y-184126285D01*
X166076333Y-184459619D01*
X166076333Y-184316761D01*
X166123952Y-184221523D01*
X166171571Y-184173904D01*
X166266810Y-184126285D01*
X166504905Y-184126285D01*
X166600143Y-184173904D01*
X166647762Y-184221523D01*
X166695381Y-184316761D01*
X166695381Y-184602476D01*
X166647762Y-184697714D01*
X166600143Y-184745333D01*
X158726143Y-185205666D02*
X158773762Y-185253285D01*
X158821381Y-185396142D01*
X158821381Y-185491380D01*
X158773762Y-185634238D01*
X158678524Y-185729476D01*
X158583286Y-185777095D01*
X158392810Y-185824714D01*
X158249952Y-185824714D01*
X158059476Y-185777095D01*
X157964238Y-185729476D01*
X157869000Y-185634238D01*
X157821381Y-185491380D01*
X157821381Y-185396142D01*
X157869000Y-185253285D01*
X157916619Y-185205666D01*
X157821381Y-184300904D02*
X157821381Y-184777095D01*
X158297571Y-184824714D01*
X158249952Y-184777095D01*
X158202333Y-184681857D01*
X158202333Y-184443761D01*
X158249952Y-184348523D01*
X158297571Y-184300904D01*
X158392810Y-184253285D01*
X158630905Y-184253285D01*
X158726143Y-184300904D01*
X158773762Y-184348523D01*
X158821381Y-184443761D01*
X158821381Y-184681857D01*
X158773762Y-184777095D01*
X158726143Y-184824714D01*
X155805143Y-185205666D02*
X155852762Y-185253285D01*
X155900381Y-185396142D01*
X155900381Y-185491380D01*
X155852762Y-185634238D01*
X155757524Y-185729476D01*
X155662286Y-185777095D01*
X155471810Y-185824714D01*
X155328952Y-185824714D01*
X155138476Y-185777095D01*
X155043238Y-185729476D01*
X154948000Y-185634238D01*
X154900381Y-185491380D01*
X154900381Y-185396142D01*
X154948000Y-185253285D01*
X154995619Y-185205666D01*
X154900381Y-184348523D02*
X154900381Y-184539000D01*
X154948000Y-184634238D01*
X154995619Y-184681857D01*
X155138476Y-184777095D01*
X155328952Y-184824714D01*
X155709905Y-184824714D01*
X155805143Y-184777095D01*
X155852762Y-184729476D01*
X155900381Y-184634238D01*
X155900381Y-184443761D01*
X155852762Y-184348523D01*
X155805143Y-184300904D01*
X155709905Y-184253285D01*
X155471810Y-184253285D01*
X155376571Y-184300904D01*
X155328952Y-184348523D01*
X155281333Y-184443761D01*
X155281333Y-184634238D01*
X155328952Y-184729476D01*
X155376571Y-184777095D01*
X155471810Y-184824714D01*
X169521143Y-185078666D02*
X169568762Y-185126285D01*
X169616381Y-185269142D01*
X169616381Y-185364380D01*
X169568762Y-185507238D01*
X169473524Y-185602476D01*
X169378286Y-185650095D01*
X169187810Y-185697714D01*
X169044952Y-185697714D01*
X168854476Y-185650095D01*
X168759238Y-185602476D01*
X168664000Y-185507238D01*
X168616381Y-185364380D01*
X168616381Y-185269142D01*
X168664000Y-185126285D01*
X168711619Y-185078666D01*
X169616381Y-184602476D02*
X169616381Y-184412000D01*
X169568762Y-184316761D01*
X169521143Y-184269142D01*
X169378286Y-184173904D01*
X169187810Y-184126285D01*
X168806857Y-184126285D01*
X168711619Y-184173904D01*
X168664000Y-184221523D01*
X168616381Y-184316761D01*
X168616381Y-184507238D01*
X168664000Y-184602476D01*
X168711619Y-184650095D01*
X168806857Y-184697714D01*
X169044952Y-184697714D01*
X169140190Y-184650095D01*
X169187810Y-184602476D01*
X169235429Y-184507238D01*
X169235429Y-184316761D01*
X169187810Y-184221523D01*
X169140190Y-184173904D01*
X169044952Y-184126285D01*
X129436905Y-174801381D02*
X129436905Y-173801381D01*
X129675000Y-173801381D01*
X129817858Y-173849000D01*
X129913096Y-173944238D01*
X129960715Y-174039476D01*
X130008334Y-174229952D01*
X130008334Y-174372810D01*
X129960715Y-174563286D01*
X129913096Y-174658524D01*
X129817858Y-174753762D01*
X129675000Y-174801381D01*
X129436905Y-174801381D01*
X130960715Y-174801381D02*
X130389286Y-174801381D01*
X130675000Y-174801381D02*
X130675000Y-173801381D01*
X130579762Y-173944238D01*
X130484524Y-174039476D01*
X130389286Y-174087095D01*
X135204143Y-176548381D02*
X134870809Y-176072190D01*
X134632714Y-176548381D02*
X134632714Y-175548381D01*
X135013667Y-175548381D01*
X135108905Y-175596000D01*
X135156524Y-175643619D01*
X135204143Y-175738857D01*
X135204143Y-175881714D01*
X135156524Y-175976952D01*
X135108905Y-176024571D01*
X135013667Y-176072190D01*
X134632714Y-176072190D01*
X136156524Y-176548381D02*
X135585095Y-176548381D01*
X135870809Y-176548381D02*
X135870809Y-175548381D01*
X135775571Y-175691238D01*
X135680333Y-175786476D01*
X135585095Y-175834095D01*
X137108905Y-176548381D02*
X136537476Y-176548381D01*
X136823190Y-176548381D02*
X136823190Y-175548381D01*
X136727952Y-175691238D01*
X136632714Y-175786476D01*
X136537476Y-175834095D01*
M02*
